<svg width="276" height="166" viewBox="0 0 276 166" fill="none" xmlns="http://www.w3.org/2000/svg">
<g filter="url(#filter0_d_354_9179)">
<path d="M16 22C16 17.5817 19.5817 14 24 14H252C256.418 14 260 17.5817 260 22V158C260 162.418 256.418 166 252 166H24C19.5817 166 16 162.418 16 158V22Z" fill="white" shape-rendering="crispEdges"/>
<g clip-path="url(#clip0_354_9179)">
<path d="M38.5 30.5C38.5 31.3284 36.4853 32 34 32C31.5147 32 29.5 31.3284 29.5 30.5M38.5 30.5C38.5 29.6716 36.4853 29 34 29C31.5147 29 29.5 29.6716 29.5 30.5M38.5 30.5V37.5C38.5 37.8978 38.0259 38.2794 37.182 38.5607C36.3381 38.842 35.1935 39 34 39C32.8065 39 31.6619 38.842 30.818 38.5607C29.9741 38.2794 29.5 37.8978 29.5 37.5V30.5M29.5 34C29.5 34.3978 29.9741 34.7794 30.818 35.0607C31.6619 35.342 32.8065 35.5 34 35.5C35.1935 35.5 36.3381 35.342 37.182 35.0607C38.0259 34.7794 38.5 34.3978 38.5 34" stroke="black" stroke-opacity="0.3" stroke-width="1.33333" stroke-linecap="round" stroke-linejoin="round"/>
</g>
<path d="M44.4297 36.3564C44.4297 35.0244 45.5576 34.6807 46.6104 34.6055C46.9971 34.5786 47.8726 34.5303 48.1465 34.5195L48.1357 34.0576C48.1357 33.4023 47.7383 33.0156 46.9541 33.0156C46.2773 33.0156 45.8691 33.3271 45.751 33.7568H44.6123C44.7197 32.79 45.6221 32.0918 46.9971 32.0918C47.9209 32.0918 49.2852 32.4355 49.2852 34.1221V38H48.168V37.2051H48.125C47.8994 37.6455 47.3623 38.1289 46.3955 38.1289C45.2891 38.1289 44.4297 37.4951 44.4297 36.3564ZM45.5469 36.3672C45.5469 36.9258 46.0088 37.2158 46.6533 37.2158C47.5879 37.2158 48.1465 36.5928 48.1465 35.8945V35.3574L46.7715 35.4541C46.0195 35.5078 45.5469 35.7871 45.5469 36.3672ZM54.377 35.5723V32.167H55.5156V38H54.3984V36.9902H54.334C54.0654 37.6133 53.4639 38.0752 52.5938 38.0752C51.4658 38.0752 50.6709 37.3232 50.6709 35.873V32.167H51.8203V35.7334C51.8203 36.5283 52.3037 37.0332 53.002 37.0332C53.6357 37.0332 54.377 36.5713 54.377 35.5723ZM59.6406 32.167V33.0801H58.4482V36.2812C58.4482 36.9365 58.7812 37.0547 59.1465 37.0654C59.3076 37.0654 59.5654 37.0439 59.7266 37.0332V38.0322C59.5654 38.0537 59.3184 38.0752 59.0068 38.0752C58.1045 38.0752 57.2988 37.5811 57.3096 36.5176V33.0801H56.4502V32.167H57.3096V30.7705H58.4482V32.167H59.6406ZM62.0361 34.541V38H60.8867V30.2227H62.0146V33.123H62.0898C62.3691 32.4893 62.9062 32.0918 63.8193 32.0918C65.0225 32.0918 65.8174 32.833 65.8174 34.2939V38H64.668V34.4336C64.668 33.5742 64.2061 33.0801 63.4326 33.0801C62.627 33.0801 62.0361 33.6064 62.0361 34.541ZM70.6406 34.2188V35.207H67.1924V34.2188H70.6406ZM75.3027 33.7568C75.1953 33.2949 74.8301 32.9941 74.1963 32.9941C73.541 32.9941 73.0684 33.3379 73.0791 33.7783C73.0684 34.1221 73.3477 34.3691 73.9922 34.5195L74.916 34.7344C75.9902 34.9707 76.5059 35.4863 76.5166 36.3135C76.5059 37.3662 75.625 38.1182 74.1318 38.1182C72.7354 38.1182 71.8975 37.4951 71.7578 36.4102H72.9287C73.0254 36.9365 73.4336 37.1943 74.1211 37.1943C74.8623 37.1943 75.335 36.8936 75.3457 36.3994C75.335 36.0234 75.0557 35.7764 74.4434 35.6367L73.5303 35.4434C72.4775 35.207 71.9297 34.6484 71.9297 33.8428C71.9297 32.8008 72.832 32.0918 74.1855 32.0918C75.4854 32.0918 76.291 32.7578 76.4092 33.7568H75.3027ZM80.1475 38.1182C78.4287 38.1182 77.376 36.9365 77.376 35.1211C77.376 33.3271 78.4502 32.0918 80.0723 32.0918C81.4043 32.0918 82.6611 32.9189 82.6611 35.0244V35.4326H78.5146C78.5469 36.5391 79.1968 37.1729 80.1582 37.1729C80.8135 37.1729 81.2324 36.8936 81.4258 36.5391H82.5859C82.3281 37.4844 81.4258 38.1182 80.1475 38.1182ZM78.5254 34.5732H81.5332C81.5332 33.6816 80.9639 33.0371 80.083 33.0371C79.1646 33.0371 78.5684 33.7461 78.5254 34.5732ZM83.7998 38V32.167H84.9062V33.0908H84.9707C85.1855 32.4678 85.7656 32.0811 86.4531 32.0811C86.5928 32.0811 86.8184 32.0918 86.9365 32.1025V33.1982C86.8398 33.1768 86.5713 33.1338 86.335 33.1338C85.54 33.1338 84.9492 33.6816 84.9492 34.4443V38H83.7998ZM92.9844 32.167L90.8682 38H89.6328L87.5166 32.167H88.752L90.2236 36.6465H90.2773L91.749 32.167H92.9844ZM93.9189 38V32.167H95.0684V38H93.9189ZM94.499 31.2646C94.1016 31.2646 93.7686 30.9639 93.7686 30.5879C93.7686 30.2119 94.1016 29.9111 94.499 29.9111C94.8857 29.9111 95.2188 30.2119 95.2188 30.5879C95.2188 30.9639 94.8857 31.2646 94.499 31.2646ZM98.9355 38.1182C97.2383 38.1182 96.207 36.8613 96.207 35.1104C96.207 33.3271 97.2705 32.0918 98.9141 32.0918C100.246 32.0918 101.213 32.876 101.331 34.0576H100.214C100.096 33.5098 99.6553 33.0479 98.9355 33.0479C97.9902 33.0479 97.3564 33.832 97.3564 35.0781C97.3564 36.3564 97.9795 37.1406 98.9355 37.1406C99.5801 37.1406 100.074 36.7861 100.214 36.1523H101.331C101.202 37.2803 100.311 38.1182 98.9355 38.1182ZM104.93 38.1182C103.211 38.1182 102.158 36.9365 102.158 35.1211C102.158 33.3271 103.232 32.0918 104.854 32.0918C106.187 32.0918 107.443 32.9189 107.443 35.0244V35.4326H103.297C103.329 36.5391 103.979 37.1729 104.94 37.1729C105.596 37.1729 106.015 36.8936 106.208 36.5391H107.368C107.11 37.4844 106.208 38.1182 104.93 38.1182ZM103.308 34.5732H106.315C106.315 33.6816 105.746 33.0371 104.865 33.0371C103.947 33.0371 103.351 33.7461 103.308 34.5732Z" fill="black"/>
<path d="M239 32.5L242 35.5L245 32.5" stroke="black" stroke-opacity="0.3" stroke-width="1.33333" stroke-linecap="round" stroke-linejoin="round"/>
<path d="M38 66C38.2652 66 38.5196 65.8946 38.7071 65.7071C38.8946 65.5196 39 65.2652 39 65V60C39 59.7348 38.8946 59.4804 38.7071 59.2929C38.5196 59.1054 38.2652 59 38 59H34.05C33.8828 59.0016 33.7178 58.9613 33.5702 58.8827C33.4225 58.8041 33.297 58.6897 33.205 58.55L32.8 57.95C32.7089 57.8117 32.585 57.6982 32.4392 57.6197C32.2935 57.5412 32.1306 57.5 31.965 57.5H30C29.7348 57.5 29.4804 57.6054 29.2929 57.7929C29.1054 57.9804 29 58.2348 29 58.5V65C29 65.2652 29.1054 65.5196 29.2929 65.7071C29.4804 65.8946 29.7348 66 30 66H38Z" stroke="black" stroke-opacity="0.3" stroke-linecap="round" stroke-linejoin="round"/>
<path d="M45.4609 66H44.2041L46.9971 58.2227H48.3613L51.165 66H49.9082L49.1992 63.9482H46.1699L45.4609 66ZM46.5137 62.96H48.8555L47.7061 59.6406H47.6523L46.5137 62.96ZM55.7627 63.5723V60.167H56.9014V66H55.7842V64.9902H55.7197C55.4512 65.6133 54.8496 66.0752 53.9795 66.0752C52.8516 66.0752 52.0566 65.3232 52.0566 63.873V60.167H53.2061V63.7334C53.2061 64.5283 53.6895 65.0332 54.3877 65.0332C55.0215 65.0332 55.7627 64.5713 55.7627 63.5723ZM61.0264 60.167V61.0801H59.834V64.2812C59.834 64.9365 60.167 65.0547 60.5322 65.0654C60.6934 65.0654 60.9512 65.0439 61.1123 65.0332V66.0322C60.9512 66.0537 60.7041 66.0752 60.3926 66.0752C59.4902 66.0752 58.6846 65.5811 58.6953 64.5176V61.0801H57.8359V60.167H58.6953V58.7705H59.834V60.167H61.0264ZM63.4219 62.541V66H62.2725V58.2227H63.4004V61.123H63.4756C63.7549 60.4893 64.292 60.0918 65.2051 60.0918C66.4082 60.0918 67.2031 60.833 67.2031 62.2939V66H66.0537V62.4336C66.0537 61.5742 65.5918 61.0801 64.8184 61.0801C64.0127 61.0801 63.4219 61.6064 63.4219 62.541Z" fill="black"/>
<path d="M239 60.5L242 63.5L245 60.5" stroke="black" stroke-opacity="0.3" stroke-width="1.33333" stroke-linecap="round" stroke-linejoin="round"/>
<g clip-path="url(#clip1_354_9179)">
<path d="M33.0001 90.5C33.2148 90.787 33.4888 91.0246 33.8034 91.1965C34.118 91.3683 34.4659 91.4705 34.8234 91.4961C35.181 91.5218 35.5399 91.4702 35.8758 91.3449C36.2117 91.2196 36.5167 91.0235 36.7701 90.77L38.2701 89.27C38.7255 88.7985 38.9775 88.167 38.9718 87.5115C38.9661 86.856 38.7032 86.229 38.2396 85.7654C37.7761 85.3019 37.1491 85.039 36.4936 85.0333C35.8381 85.0276 35.2066 85.2796 34.7351 85.735L33.8751 86.59M35.0001 89.5C34.7854 89.2129 34.5114 88.9754 34.1968 88.8035C33.8822 88.6316 33.5343 88.5294 33.1768 88.5038C32.8192 88.4782 32.4603 88.5298 32.1244 88.6551C31.7885 88.7804 31.4835 88.9764 31.2301 89.23L29.7301 90.73C29.2747 91.2015 29.0227 91.833 29.0284 92.4885C29.0341 93.144 29.297 93.771 29.7606 94.2345C30.2241 94.698 30.8511 94.961 31.5066 94.9667C32.1621 94.9724 32.7936 94.7204 33.2651 94.265L34.1201 93.41" stroke="#49CC90" stroke-width="1.33333" stroke-linecap="round" stroke-linejoin="round"/>
</g>
<path d="M47.6631 85.8574L45.1602 95.1709H44.1396L46.6426 85.8574H47.6631ZM48.2432 92.3564C48.2432 91.0244 49.3711 90.6807 50.4238 90.6055C50.8105 90.5786 51.686 90.5303 51.96 90.5195L51.9492 90.0576C51.9492 89.4023 51.5518 89.0156 50.7676 89.0156C50.0908 89.0156 49.6826 89.3271 49.5645 89.7568H48.4258C48.5332 88.79 49.4355 88.0918 50.8105 88.0918C51.7344 88.0918 53.0986 88.4355 53.0986 90.1221V94H51.9814V93.2051H51.9385C51.7129 93.6455 51.1758 94.1289 50.209 94.1289C49.1025 94.1289 48.2432 93.4951 48.2432 92.3564ZM49.3604 92.3672C49.3604 92.9258 49.8223 93.2158 50.4668 93.2158C51.4014 93.2158 51.96 92.5928 51.96 91.8945V91.3574L50.585 91.4541C49.833 91.5078 49.3604 91.7871 49.3604 92.3672ZM54.4844 96.1914V88.167H55.6016V89.1123H55.6982C55.9023 88.7471 56.2998 88.0918 57.374 88.0918C58.7812 88.0918 59.8232 89.1982 59.8232 91.0996C59.8232 92.9795 58.8027 94.1182 57.3848 94.1182C56.3213 94.1182 55.9023 93.4736 55.6982 93.0869H55.6338V96.1914H54.4844ZM55.6123 91.0781C55.6123 92.3027 56.1494 93.1406 57.127 93.1406C58.1367 93.1406 58.6631 92.249 58.6631 91.0781C58.6631 89.9287 58.1475 89.0693 57.127 89.0693C56.1387 89.0693 55.6123 89.8643 55.6123 91.0781ZM60.9619 94V88.167H62.1113V94H60.9619ZM61.542 87.2646C61.1445 87.2646 60.8115 86.9639 60.8115 86.5879C60.8115 86.2119 61.1445 85.9111 61.542 85.9111C61.9287 85.9111 62.2617 86.2119 62.2617 86.5879C62.2617 86.9639 61.9287 87.2646 61.542 87.2646ZM66.4727 85.8574L63.9697 95.1709H62.9492L65.4521 85.8574H66.4727ZM67.0527 92.3564C67.0527 91.0244 68.1807 90.6807 69.2334 90.6055C69.6201 90.5786 70.4956 90.5303 70.7695 90.5195L70.7588 90.0576C70.7588 89.4023 70.3613 89.0156 69.5771 89.0156C68.9004 89.0156 68.4922 89.3271 68.374 89.7568H67.2354C67.3428 88.79 68.2451 88.0918 69.6201 88.0918C70.5439 88.0918 71.9082 88.4355 71.9082 90.1221V94H70.791V93.2051H70.748C70.5225 93.6455 69.9854 94.1289 69.0186 94.1289C67.9121 94.1289 67.0527 93.4951 67.0527 92.3564ZM68.1699 92.3672C68.1699 92.9258 68.6318 93.2158 69.2764 93.2158C70.2109 93.2158 70.7695 92.5928 70.7695 91.8945V91.3574L69.3945 91.4541C68.6426 91.5078 68.1699 91.7871 68.1699 92.3672ZM77 91.5723V88.167H78.1387V94H77.0215V92.9902H76.957C76.6885 93.6133 76.0869 94.0752 75.2168 94.0752C74.0889 94.0752 73.2939 93.3232 73.2939 91.873V88.167H74.4434V91.7334C74.4434 92.5283 74.9268 93.0332 75.625 93.0332C76.2588 93.0332 77 92.5713 77 91.5723ZM82.2637 88.167V89.0801H81.0713V92.2812C81.0713 92.9365 81.4043 93.0547 81.7695 93.0654C81.9307 93.0654 82.1885 93.0439 82.3496 93.0332V94.0322C82.1885 94.0537 81.9414 94.0752 81.6299 94.0752C80.7275 94.0752 79.9219 93.5811 79.9326 92.5176V89.0801H79.0732V88.167H79.9326V86.7705H81.0713V88.167H82.2637ZM84.6592 90.541V94H83.5098V86.2227H84.6377V89.123H84.7129C84.9922 88.4893 85.5293 88.0918 86.4424 88.0918C87.6455 88.0918 88.4404 88.833 88.4404 90.2939V94H87.291V90.4336C87.291 89.5742 86.8291 89.0801 86.0557 89.0801C85.25 89.0801 84.6592 89.6064 84.6592 90.541ZM92.791 85.8574L90.2881 95.1709H89.2676L91.7705 85.8574H92.791ZM94.7891 86.2227V94H93.6396V86.2227H94.7891ZM98.6562 94.1182C97.002 94.1182 95.9277 92.915 95.9277 91.1104C95.9277 89.2949 97.002 88.0918 98.6562 88.0918C100.3 88.0918 101.374 89.2949 101.374 91.1104C101.374 92.915 100.3 94.1182 98.6562 94.1182ZM98.6562 93.1621C99.709 93.1621 100.214 92.2275 100.214 91.1104C100.214 89.9932 99.709 89.0371 98.6562 89.0371C97.582 89.0371 97.0771 89.9932 97.0771 91.1104C97.0771 92.2275 97.582 93.1621 98.6562 93.1621ZM104.951 96.3096C103.479 96.3096 102.513 95.6543 102.405 94.5693H103.576C103.684 95.1172 104.199 95.3857 104.962 95.3857C105.875 95.3857 106.455 94.999 106.455 94.0859V92.9365H106.38C106.176 93.3125 105.757 93.9141 104.683 93.9141C103.308 93.9141 102.244 92.8828 102.244 91.0244C102.244 89.166 103.286 88.0918 104.693 88.0918C105.778 88.0918 106.176 88.7471 106.391 89.1123H106.466V88.167H107.583V94.1289C107.583 95.6221 106.455 96.3096 104.951 96.3096ZM104.94 92.9688C105.918 92.9688 106.466 92.249 106.466 91.0459C106.466 89.8643 105.929 89.0693 104.94 89.0693C103.92 89.0693 103.415 89.9287 103.415 91.0459C103.415 92.1846 103.941 92.9688 104.94 92.9688ZM108.979 94V88.167H110.129V94H108.979ZM109.56 87.2646C109.162 87.2646 108.829 86.9639 108.829 86.5879C108.829 86.2119 109.162 85.9111 109.56 85.9111C109.946 85.9111 110.279 86.2119 110.279 86.5879C110.279 86.9639 109.946 87.2646 109.56 87.2646ZM112.675 90.541V94H111.525V88.167H112.632V89.123H112.696C112.976 88.5 113.545 88.0918 114.415 88.0918C115.618 88.0918 116.402 88.8438 116.402 90.2939V94H115.264V90.4336C115.264 89.585 114.802 89.0801 114.028 89.0801C113.244 89.0801 112.675 89.6064 112.675 90.541Z" fill="black"/>
<path d="M219.795 94V86.2227H222.566C224.371 86.2227 225.263 87.3076 225.263 88.7471C225.263 90.1758 224.371 91.2715 222.566 91.2715H220.977V94H219.795ZM220.977 90.2617H222.448C223.598 90.2617 224.07 89.6172 224.07 88.7471C224.07 87.8662 223.598 87.2324 222.448 87.2324H220.977V90.2617ZM233.266 90.1113C233.266 92.5928 231.772 94.1074 229.764 94.1074C227.733 94.1074 226.251 92.5928 226.251 90.1113C226.251 87.6191 227.733 86.1152 229.764 86.1152C231.772 86.1152 233.266 87.6191 233.266 90.1113ZM232.095 90.1113C232.095 88.2207 231.096 87.2002 229.764 87.2002C228.421 87.2002 227.422 88.2207 227.422 90.1113C227.422 92.002 228.421 93.0225 229.764 93.0225C231.096 93.0225 232.095 92.002 232.095 90.1113ZM238.83 88.2744C238.755 87.5547 238.121 87.1357 237.229 87.1357C236.273 87.1357 235.672 87.6191 235.672 88.2852C235.672 89.0264 236.478 89.3057 237.09 89.4561L237.842 89.6602C238.841 89.8965 240.076 90.4443 240.087 91.8516C240.076 93.1621 239.034 94.1289 237.197 94.1289C235.457 94.1289 234.361 93.2588 234.286 91.8408H235.468C235.543 92.6895 236.284 93.0977 237.197 93.0977C238.186 93.0977 238.905 92.5928 238.916 91.8301C238.905 91.1533 238.271 90.874 237.444 90.6592L236.521 90.4121C235.274 90.0684 234.49 89.4346 234.49 88.3496C234.49 87.0068 235.693 86.1152 237.262 86.1152C238.841 86.1152 239.947 87.0176 239.979 88.2744H238.83ZM240.968 87.2432V86.2227H246.994V87.2432H244.577V94H243.396V87.2432H240.968Z" fill="#49CC90"/>
<g clip-path="url(#clip2_354_9179)">
<path d="M33.0001 118.5C33.2148 118.787 33.4888 119.025 33.8034 119.196C34.118 119.368 34.4659 119.471 34.8234 119.496C35.181 119.522 35.5399 119.47 35.8758 119.345C36.2117 119.22 36.5167 119.024 36.7701 118.77L38.2701 117.27C38.7255 116.798 38.9775 116.167 38.9718 115.511C38.9661 114.856 38.7032 114.229 38.2396 113.765C37.7761 113.302 37.1491 113.039 36.4936 113.033C35.8381 113.028 35.2066 113.28 34.7351 113.735L33.8751 114.59M35.0001 117.5C34.7854 117.213 34.5114 116.975 34.1968 116.804C33.8822 116.632 33.5343 116.529 33.1768 116.504C32.8192 116.478 32.4603 116.53 32.1244 116.655C31.7885 116.78 31.4835 116.976 31.2301 117.23L29.7301 118.73C29.2747 119.201 29.0227 119.833 29.0284 120.488C29.0341 121.144 29.297 121.771 29.7606 122.235C30.2241 122.698 30.8511 122.961 31.5066 122.967C32.1621 122.972 32.7936 122.72 33.2651 122.265L34.1201 121.41" stroke="#49CC90" stroke-width="1.33333" stroke-linecap="round" stroke-linejoin="round"/>
</g>
<path d="M47.6631 113.857L45.1602 123.171H44.1396L46.6426 113.857H47.6631ZM48.2432 120.356C48.2432 119.024 49.3711 118.681 50.4238 118.605C50.8105 118.579 51.686 118.53 51.96 118.52L51.9492 118.058C51.9492 117.402 51.5518 117.016 50.7676 117.016C50.0908 117.016 49.6826 117.327 49.5645 117.757H48.4258C48.5332 116.79 49.4355 116.092 50.8105 116.092C51.7344 116.092 53.0986 116.436 53.0986 118.122V122H51.9814V121.205H51.9385C51.7129 121.646 51.1758 122.129 50.209 122.129C49.1025 122.129 48.2432 121.495 48.2432 120.356ZM49.3604 120.367C49.3604 120.926 49.8223 121.216 50.4668 121.216C51.4014 121.216 51.96 120.593 51.96 119.895V119.357L50.585 119.454C49.833 119.508 49.3604 119.787 49.3604 120.367ZM54.4844 124.191V116.167H55.6016V117.112H55.6982C55.9023 116.747 56.2998 116.092 57.374 116.092C58.7812 116.092 59.8232 117.198 59.8232 119.1C59.8232 120.979 58.8027 122.118 57.3848 122.118C56.3213 122.118 55.9023 121.474 55.6982 121.087H55.6338V124.191H54.4844ZM55.6123 119.078C55.6123 120.303 56.1494 121.141 57.127 121.141C58.1367 121.141 58.6631 120.249 58.6631 119.078C58.6631 117.929 58.1475 117.069 57.127 117.069C56.1387 117.069 55.6123 117.864 55.6123 119.078ZM60.9619 122V116.167H62.1113V122H60.9619ZM61.542 115.265C61.1445 115.265 60.8115 114.964 60.8115 114.588C60.8115 114.212 61.1445 113.911 61.542 113.911C61.9287 113.911 62.2617 114.212 62.2617 114.588C62.2617 114.964 61.9287 115.265 61.542 115.265ZM66.4727 113.857L63.9697 123.171H62.9492L65.4521 113.857H66.4727ZM67.0527 120.356C67.0527 119.024 68.1807 118.681 69.2334 118.605C69.6201 118.579 70.4956 118.53 70.7695 118.52L70.7588 118.058C70.7588 117.402 70.3613 117.016 69.5771 117.016C68.9004 117.016 68.4922 117.327 68.374 117.757H67.2354C67.3428 116.79 68.2451 116.092 69.6201 116.092C70.5439 116.092 71.9082 116.436 71.9082 118.122V122H70.791V121.205H70.748C70.5225 121.646 69.9854 122.129 69.0186 122.129C67.9121 122.129 67.0527 121.495 67.0527 120.356ZM68.1699 120.367C68.1699 120.926 68.6318 121.216 69.2764 121.216C70.2109 121.216 70.7695 120.593 70.7695 119.895V119.357L69.3945 119.454C68.6426 119.508 68.1699 119.787 68.1699 120.367ZM77 119.572V116.167H78.1387V122H77.0215V120.99H76.957C76.6885 121.613 76.0869 122.075 75.2168 122.075C74.0889 122.075 73.2939 121.323 73.2939 119.873V116.167H74.4434V119.733C74.4434 120.528 74.9268 121.033 75.625 121.033C76.2588 121.033 77 120.571 77 119.572ZM82.2637 116.167V117.08H81.0713V120.281C81.0713 120.937 81.4043 121.055 81.7695 121.065C81.9307 121.065 82.1885 121.044 82.3496 121.033V122.032C82.1885 122.054 81.9414 122.075 81.6299 122.075C80.7275 122.075 79.9219 121.581 79.9326 120.518V117.08H79.0732V116.167H79.9326V114.771H81.0713V116.167H82.2637ZM84.6592 118.541V122H83.5098V114.223H84.6377V117.123H84.7129C84.9922 116.489 85.5293 116.092 86.4424 116.092C87.6455 116.092 88.4404 116.833 88.4404 118.294V122H87.291V118.434C87.291 117.574 86.8291 117.08 86.0557 117.08C85.25 117.08 84.6592 117.606 84.6592 118.541ZM92.791 113.857L90.2881 123.171H89.2676L91.7705 113.857H92.791ZM96.916 117.757C96.8086 117.295 96.4434 116.994 95.8096 116.994C95.1543 116.994 94.6816 117.338 94.6924 117.778C94.6816 118.122 94.9609 118.369 95.6055 118.52L96.5293 118.734C97.6035 118.971 98.1191 119.486 98.1299 120.313C98.1191 121.366 97.2383 122.118 95.7451 122.118C94.3486 122.118 93.5107 121.495 93.3711 120.41H94.542C94.6387 120.937 95.0469 121.194 95.7344 121.194C96.4756 121.194 96.9482 120.894 96.959 120.399C96.9482 120.023 96.6689 119.776 96.0566 119.637L95.1436 119.443C94.0908 119.207 93.543 118.648 93.543 117.843C93.543 116.801 94.4453 116.092 95.7988 116.092C97.0986 116.092 97.9043 116.758 98.0225 117.757H96.916ZM99.2471 122V116.167H100.396V122H99.2471ZM99.8271 115.265C99.4297 115.265 99.0967 114.964 99.0967 114.588C99.0967 114.212 99.4297 113.911 99.8271 113.911C100.214 113.911 100.547 114.212 100.547 114.588C100.547 114.964 100.214 115.265 99.8271 115.265ZM104.242 124.31C102.771 124.31 101.804 123.654 101.696 122.569H102.867C102.975 123.117 103.49 123.386 104.253 123.386C105.166 123.386 105.746 122.999 105.746 122.086V120.937H105.671C105.467 121.312 105.048 121.914 103.974 121.914C102.599 121.914 101.535 120.883 101.535 119.024C101.535 117.166 102.577 116.092 103.984 116.092C105.069 116.092 105.467 116.747 105.682 117.112H105.757V116.167H106.874V122.129C106.874 123.622 105.746 124.31 104.242 124.31ZM104.231 120.969C105.209 120.969 105.757 120.249 105.757 119.046C105.757 117.864 105.22 117.069 104.231 117.069C103.211 117.069 102.706 117.929 102.706 119.046C102.706 120.185 103.232 120.969 104.231 120.969ZM109.42 118.541V122H108.271V116.167H109.377V117.123H109.441C109.721 116.5 110.29 116.092 111.16 116.092C112.363 116.092 113.147 116.844 113.147 118.294V122H112.009V118.434C112.009 117.585 111.547 117.08 110.773 117.08C109.989 117.08 109.42 117.606 109.42 118.541ZM118.25 119.572V116.167H119.389V122H118.271V120.99H118.207C117.938 121.613 117.337 122.075 116.467 122.075C115.339 122.075 114.544 121.323 114.544 119.873V116.167H115.693V119.733C115.693 120.528 116.177 121.033 116.875 121.033C117.509 121.033 118.25 120.571 118.25 119.572ZM120.785 124.191V116.167H121.902V117.112H121.999C122.203 116.747 122.601 116.092 123.675 116.092C125.082 116.092 126.124 117.198 126.124 119.1C126.124 120.979 125.104 122.118 123.686 122.118C122.622 122.118 122.203 121.474 121.999 121.087H121.935V124.191H120.785ZM121.913 119.078C121.913 120.303 122.45 121.141 123.428 121.141C124.438 121.141 124.964 120.249 124.964 119.078C124.964 117.929 124.448 117.069 123.428 117.069C122.439 117.069 121.913 117.864 121.913 119.078Z" fill="black"/>
<path d="M219.795 122V114.223H222.566C224.371 114.223 225.263 115.308 225.263 116.747C225.263 118.176 224.371 119.271 222.566 119.271H220.977V122H219.795ZM220.977 118.262H222.448C223.598 118.262 224.07 117.617 224.07 116.747C224.07 115.866 223.598 115.232 222.448 115.232H220.977V118.262ZM233.266 118.111C233.266 120.593 231.772 122.107 229.764 122.107C227.733 122.107 226.251 120.593 226.251 118.111C226.251 115.619 227.733 114.115 229.764 114.115C231.772 114.115 233.266 115.619 233.266 118.111ZM232.095 118.111C232.095 116.221 231.096 115.2 229.764 115.2C228.421 115.2 227.422 116.221 227.422 118.111C227.422 120.002 228.421 121.022 229.764 121.022C231.096 121.022 232.095 120.002 232.095 118.111ZM238.83 116.274C238.755 115.555 238.121 115.136 237.229 115.136C236.273 115.136 235.672 115.619 235.672 116.285C235.672 117.026 236.478 117.306 237.09 117.456L237.842 117.66C238.841 117.896 240.076 118.444 240.087 119.852C240.076 121.162 239.034 122.129 237.197 122.129C235.457 122.129 234.361 121.259 234.286 119.841H235.468C235.543 120.689 236.284 121.098 237.197 121.098C238.186 121.098 238.905 120.593 238.916 119.83C238.905 119.153 238.271 118.874 237.444 118.659L236.521 118.412C235.274 118.068 234.49 117.435 234.49 116.35C234.49 115.007 235.693 114.115 237.262 114.115C238.841 114.115 239.947 115.018 239.979 116.274H238.83ZM240.968 115.243V114.223H246.994V115.243H244.577V122H243.396V115.243H240.968Z" fill="#49CC90"/>
<g clip-path="url(#clip3_354_9179)">
<path d="M33.0001 146.5C33.2148 146.787 33.4888 147.025 33.8034 147.196C34.118 147.368 34.4659 147.471 34.8234 147.496C35.181 147.522 35.5399 147.47 35.8758 147.345C36.2117 147.22 36.5167 147.024 36.7701 146.77L38.2701 145.27C38.7255 144.798 38.9775 144.167 38.9718 143.511C38.9661 142.856 38.7032 142.229 38.2396 141.765C37.7761 141.302 37.1491 141.039 36.4936 141.033C35.8381 141.028 35.2066 141.28 34.7351 141.735L33.8751 142.59M35.0001 145.5C34.7854 145.213 34.5114 144.975 34.1968 144.804C33.8822 144.632 33.5343 144.529 33.1768 144.504C32.8192 144.478 32.4603 144.53 32.1244 144.655C31.7885 144.78 31.4835 144.976 31.2301 145.23L29.7301 146.73C29.2747 147.201 29.0227 147.833 29.0284 148.488C29.0341 149.144 29.297 149.771 29.7606 150.235C30.2241 150.698 30.8511 150.961 31.5066 150.967C32.1621 150.972 32.7936 150.72 33.2651 150.265L34.1201 149.41" stroke="#61AFFE" stroke-width="1.33333" stroke-linecap="round" stroke-linejoin="round"/>
</g>
<path d="M47.6631 141.857L45.1602 151.171H44.1396L46.6426 141.857H47.6631ZM48.2432 148.356C48.2432 147.024 49.3711 146.681 50.4238 146.605C50.8105 146.579 51.686 146.53 51.96 146.52L51.9492 146.058C51.9492 145.402 51.5518 145.016 50.7676 145.016C50.0908 145.016 49.6826 145.327 49.5645 145.757H48.4258C48.5332 144.79 49.4355 144.092 50.8105 144.092C51.7344 144.092 53.0986 144.436 53.0986 146.122V150H51.9814V149.205H51.9385C51.7129 149.646 51.1758 150.129 50.209 150.129C49.1025 150.129 48.2432 149.495 48.2432 148.356ZM49.3604 148.367C49.3604 148.926 49.8223 149.216 50.4668 149.216C51.4014 149.216 51.96 148.593 51.96 147.895V147.357L50.585 147.454C49.833 147.508 49.3604 147.787 49.3604 148.367ZM54.4844 152.191V144.167H55.6016V145.112H55.6982C55.9023 144.747 56.2998 144.092 57.374 144.092C58.7812 144.092 59.8232 145.198 59.8232 147.1C59.8232 148.979 58.8027 150.118 57.3848 150.118C56.3213 150.118 55.9023 149.474 55.6982 149.087H55.6338V152.191H54.4844ZM55.6123 147.078C55.6123 148.303 56.1494 149.141 57.127 149.141C58.1367 149.141 58.6631 148.249 58.6631 147.078C58.6631 145.929 58.1475 145.069 57.127 145.069C56.1387 145.069 55.6123 145.864 55.6123 147.078ZM60.9619 150V144.167H62.1113V150H60.9619ZM61.542 143.265C61.1445 143.265 60.8115 142.964 60.8115 142.588C60.8115 142.212 61.1445 141.911 61.542 141.911C61.9287 141.911 62.2617 142.212 62.2617 142.588C62.2617 142.964 61.9287 143.265 61.542 143.265ZM66.4727 141.857L63.9697 151.171H62.9492L65.4521 141.857H66.4727ZM67.0527 148.356C67.0527 147.024 68.1807 146.681 69.2334 146.605C69.6201 146.579 70.4956 146.53 70.7695 146.52L70.7588 146.058C70.7588 145.402 70.3613 145.016 69.5771 145.016C68.9004 145.016 68.4922 145.327 68.374 145.757H67.2354C67.3428 144.79 68.2451 144.092 69.6201 144.092C70.5439 144.092 71.9082 144.436 71.9082 146.122V150H70.791V149.205H70.748C70.5225 149.646 69.9854 150.129 69.0186 150.129C67.9121 150.129 67.0527 149.495 67.0527 148.356ZM68.1699 148.367C68.1699 148.926 68.6318 149.216 69.2764 149.216C70.2109 149.216 70.7695 148.593 70.7695 147.895V147.357L69.3945 147.454C68.6426 147.508 68.1699 147.787 68.1699 148.367ZM77 147.572V144.167H78.1387V150H77.0215V148.99H76.957C76.6885 149.613 76.0869 150.075 75.2168 150.075C74.0889 150.075 73.2939 149.323 73.2939 147.873V144.167H74.4434V147.733C74.4434 148.528 74.9268 149.033 75.625 149.033C76.2588 149.033 77 148.571 77 147.572ZM82.2637 144.167V145.08H81.0713V148.281C81.0713 148.937 81.4043 149.055 81.7695 149.065C81.9307 149.065 82.1885 149.044 82.3496 149.033V150.032C82.1885 150.054 81.9414 150.075 81.6299 150.075C80.7275 150.075 79.9219 149.581 79.9326 148.518V145.08H79.0732V144.167H79.9326V142.771H81.0713V144.167H82.2637ZM84.6592 146.541V150H83.5098V142.223H84.6377V145.123H84.7129C84.9922 144.489 85.5293 144.092 86.4424 144.092C87.6455 144.092 88.4404 144.833 88.4404 146.294V150H87.291V146.434C87.291 145.574 86.8291 145.08 86.0557 145.08C85.25 145.08 84.6592 145.606 84.6592 146.541ZM92.791 141.857L90.2881 151.171H89.2676L91.7705 141.857H92.791ZM98.6455 144.167L96.5293 150H95.2939L93.1777 144.167H94.4131L95.8848 148.646H95.9385L97.4102 144.167H98.6455ZM99.1289 148.356C99.1289 147.024 100.257 146.681 101.31 146.605C101.696 146.579 102.572 146.53 102.846 146.52L102.835 146.058C102.835 145.402 102.438 145.016 101.653 145.016C100.977 145.016 100.568 145.327 100.45 145.757H99.3115C99.4189 144.79 100.321 144.092 101.696 144.092C102.62 144.092 103.984 144.436 103.984 146.122V150H102.867V149.205H102.824C102.599 149.646 102.062 150.129 101.095 150.129C99.9883 150.129 99.1289 149.495 99.1289 148.356ZM100.246 148.367C100.246 148.926 100.708 149.216 101.353 149.216C102.287 149.216 102.846 148.593 102.846 147.895V147.357L101.471 147.454C100.719 147.508 100.246 147.787 100.246 148.367ZM106.52 142.223V150H105.37V142.223H106.52ZM107.916 150V144.167H109.065V150H107.916ZM108.496 143.265C108.099 143.265 107.766 142.964 107.766 142.588C107.766 142.212 108.099 141.911 108.496 141.911C108.883 141.911 109.216 142.212 109.216 142.588C109.216 142.964 108.883 143.265 108.496 143.265ZM112.643 150.118C111.235 150.118 110.204 148.979 110.204 147.1C110.204 145.198 111.246 144.092 112.653 144.092C113.738 144.092 114.136 144.747 114.34 145.112H114.394V142.223H115.543V150H114.426V149.087H114.34C114.125 149.474 113.706 150.118 112.643 150.118ZM112.9 149.141C113.878 149.141 114.426 148.303 114.426 147.078C114.426 145.864 113.889 145.069 112.9 145.069C111.88 145.069 111.375 145.929 111.375 147.078C111.375 148.249 111.901 149.141 112.9 149.141ZM116.768 148.356C116.768 147.024 117.896 146.681 118.948 146.605C119.335 146.579 120.21 146.53 120.484 146.52L120.474 146.058C120.474 145.402 120.076 145.016 119.292 145.016C118.615 145.016 118.207 145.327 118.089 145.757H116.95C117.058 144.79 117.96 144.092 119.335 144.092C120.259 144.092 121.623 144.436 121.623 146.122V150H120.506V149.205H120.463C120.237 149.646 119.7 150.129 118.733 150.129C117.627 150.129 116.768 149.495 116.768 148.356ZM117.885 148.367C117.885 148.926 118.347 149.216 118.991 149.216C119.926 149.216 120.484 148.593 120.484 147.895V147.357L119.109 147.454C118.357 147.508 117.885 147.787 117.885 148.367ZM125.737 144.167V145.08H124.545V148.281C124.545 148.937 124.878 149.055 125.243 149.065C125.404 149.065 125.662 149.044 125.823 149.033V150.032C125.662 150.054 125.415 150.075 125.104 150.075C124.201 150.075 123.396 149.581 123.406 148.518V145.08H122.547V144.167H123.406V142.771H124.545V144.167H125.737ZM129.304 150.118C127.585 150.118 126.532 148.937 126.532 147.121C126.532 145.327 127.606 144.092 129.229 144.092C130.561 144.092 131.817 144.919 131.817 147.024V147.433H127.671C127.703 148.539 128.353 149.173 129.314 149.173C129.97 149.173 130.389 148.894 130.582 148.539H131.742C131.484 149.484 130.582 150.118 129.304 150.118ZM127.682 146.573H130.689C130.689 145.682 130.12 145.037 129.239 145.037C128.321 145.037 127.725 145.746 127.682 146.573Z" fill="black"/>
<path d="M232.048 144.683C231.758 143.759 231.06 143.2 230.028 143.2C228.718 143.2 227.708 144.231 227.708 146.111C227.708 147.991 228.707 149.022 230.082 149.022C231.323 149.022 232.145 148.238 232.166 146.992H230.254V146.015H233.315V146.896C233.315 148.861 231.962 150.107 230.071 150.107C227.966 150.107 226.537 148.571 226.537 146.111C226.537 143.63 228.009 142.115 230.018 142.115C231.704 142.115 232.993 143.168 233.262 144.683H232.048ZM234.68 150V142.223H239.557V143.243H235.861V145.596H239.299V146.605H235.861V148.979H239.6V150H234.68ZM240.62 143.243V142.223H246.646V143.243H244.229V150H243.048V143.243H240.62Z" fill="#61AFFE"/>
</g>
<defs>
<filter id="filter0_d_354_9179" x="0" y="0" width="276" height="184" filterUnits="userSpaceOnUse" color-interpolation-filters="sRGB">
<feFlood flood-opacity="0" result="BackgroundImageFix"/>
<feColorMatrix in="SourceAlpha" type="matrix" values="0 0 0 0 0 0 0 0 0 0 0 0 0 0 0 0 0 0 127 0" result="hardAlpha"/>
<feOffset dy="2"/>
<feGaussianBlur stdDeviation="8"/>
<feComposite in2="hardAlpha" operator="out"/>
<feColorMatrix type="matrix" values="0 0 0 0 0 0 0 0 0 0 0 0 0 0 0 0 0 0 0.03 0"/>
<feBlend mode="normal" in2="BackgroundImageFix" result="effect1_dropShadow_354_9179"/>
<feBlend mode="normal" in="SourceGraphic" in2="effect1_dropShadow_354_9179" result="shape"/>
</filter>
<clipPath id="clip0_354_9179">
<rect width="12" height="12" fill="white" transform="translate(28 28)"/>
</clipPath>
<clipPath id="clip1_354_9179">
<rect width="12" height="12" fill="white" transform="translate(28 84)"/>
</clipPath>
<clipPath id="clip2_354_9179">
<rect width="12" height="12" fill="white" transform="translate(28 112)"/>
</clipPath>
<clipPath id="clip3_354_9179">
<rect width="12" height="12" fill="white" transform="translate(28 140)"/>
</clipPath>
</defs>
</svg>
