<svg width="191" height="140" viewBox="0 0 191 140" fill="none" xmlns="http://www.w3.org/2000/svg">
<g filter="url(#filter0_d_354_8598)">
<path d="M32.1691 18.8031C32.6425 15.9514 35.3381 14.0234 38.1897 14.4969L169.857 36.3555C172.709 36.8289 174.637 39.5244 174.163 42.3761L158.734 135.318C158.26 138.169 155.565 140.097 152.713 139.624L21.0457 117.765C18.194 117.292 16.2661 114.596 16.7395 111.745L32.1691 18.8031Z" fill="white" shape-rendering="crispEdges"/>
<path d="M41.2102 28.2624C41.4469 26.8365 42.7946 25.8726 44.2205 26.1093L81.1828 32.2455C82.6086 32.4822 83.5726 33.83 83.3359 35.2558L81.963 43.5256C81.7263 44.9514 80.3785 45.9154 78.9527 45.6787L41.9904 39.5425C40.5645 39.3057 39.6006 37.958 39.8373 36.5321L41.2102 28.2624Z" fill="#61AFFE" fill-opacity="0.2"/>
<g clip-path="url(#clip0_354_8598)">
<path d="M44.0735 32.9865C44.2014 32.2162 44.6301 31.5282 45.2652 31.0739C45.9003 30.6197 46.6899 30.4363 47.4602 30.5642C48.2716 30.7021 48.9984 31.1483 49.4885 31.8095L50.0967 32.66M50.0967 32.66L50.3646 31.0464M50.0967 32.66L48.4831 32.3921M49.8824 33.9508C49.7545 34.7211 49.3259 35.4091 48.6908 35.8633C48.0557 36.3176 47.2661 36.5009 46.4958 36.3731C45.6843 36.2352 44.9576 35.789 44.4675 35.1277L43.8592 34.2773M43.8592 34.2773L45.4728 34.5452M43.8592 34.2773L43.5914 35.8909" stroke="#61AFFE" stroke-width="0.654262" stroke-linecap="round" stroke-linejoin="round"/>
</g>
<path d="M56.6007 32.5348L56.4994 33.1449L54.8908 32.8779L54.7124 33.9525L56.0575 34.1758L55.9585 34.7721L54.6134 34.5488L54.412 35.7621C55.1585 35.8789 55.6773 35.9294 56.3082 35.9273L56.2751 36.5559C55.531 36.5748 54.9324 36.4897 53.9826 36.332L53.5735 36.2641L54.2572 32.1457L56.6007 32.5348ZM59.5769 32.2879L58.5364 38.5556L57.7876 38.4313L58.8281 32.1636L59.5769 32.2879ZM58.2389 32.194L57.2697 38.0319L56.5486 37.9122L57.0505 34.8892L56.2739 34.7603L56.3775 34.1363L57.1541 34.2652L57.5178 32.0743L58.2389 32.194ZM63.4 33.806C63.2389 34.7767 64.0276 35.9051 65.3 36.3514L64.8463 36.9387C63.8327 36.5424 63.0783 35.7653 62.8126 34.8555C62.2579 35.6219 61.2923 36.1171 60.2079 36.1686L59.9752 35.4674C61.3109 35.4469 62.415 34.6328 62.5819 33.6702L62.659 33.2057L63.4771 33.3415L63.4 33.806ZM65.2295 38.1921L65.1237 38.8299L59.3967 37.8792L59.5026 37.2413L65.2295 38.1921ZM70.9913 37.5598L70.89 38.17L66.4943 37.4402L67.0594 34.036L71.3997 34.7565L71.2961 35.3805L67.7393 34.79L67.6138 35.5458L71.025 36.1121L70.9249 36.7153L67.5137 36.149L67.379 36.9602L70.9913 37.5598ZM71.3586 39.2523L71.2539 39.8832L65.527 38.9325L65.6317 38.3016L71.3586 39.2523ZM79.497 38.5516L79.3934 39.1756L76.9113 38.7635L76.825 39.2835C77.9355 39.5462 78.5297 40.0438 78.4285 40.6967C78.3018 41.4166 77.4239 41.6841 76.0719 41.4597C74.706 41.2329 73.9546 40.6949 74.0743 39.9739C74.1825 39.3222 74.9132 39.0409 76.0623 39.1569L76.1486 38.6369L73.6804 38.2271L73.784 37.6031L79.497 38.5516ZM76.347 39.8026C75.4306 39.6576 74.9084 39.7561 74.8578 40.104C74.7933 40.4495 75.2545 40.7184 76.1697 40.8703C77.0641 41.0188 77.5944 40.9145 77.6589 40.569C77.7095 40.2211 77.2402 39.958 76.347 39.8026ZM79.4156 35.8664L79.3132 36.4835L77.5105 36.1842C77.5461 36.7209 78.2178 37.3097 79.3751 37.6123L79.0034 38.1775C77.8854 37.8744 77.1149 37.2798 76.881 36.5855C76.436 37.1635 75.528 37.483 74.372 37.4086L74.2098 36.7548C75.3786 36.8384 76.2056 36.4912 76.422 36.0035L74.6332 35.7065L74.7356 35.0895L79.4156 35.8664Z" fill="#61AFFE"/>
<path d="M155.339 51.8998C155.576 51.9393 155.801 51.7786 155.84 51.541C155.88 51.3033 155.719 51.0787 155.481 51.0392C155.244 50.9998 155.019 51.1605 154.98 51.3981C154.94 51.6357 155.101 51.8604 155.339 51.8998Z" stroke="black" stroke-opacity="0.3" stroke-width="0.87235" stroke-linecap="round" stroke-linejoin="round"/>
<path d="M158.351 52.3998C158.588 52.4393 158.813 52.2786 158.852 52.041C158.892 51.8034 158.731 51.5787 158.493 51.5393C158.256 51.4998 158.031 51.6605 157.992 51.8981C157.952 52.1358 158.113 52.3604 158.351 52.3998Z" stroke="black" stroke-opacity="0.3" stroke-width="0.87235" stroke-linecap="round" stroke-linejoin="round"/>
<path d="M152.327 51.3998C152.564 51.4392 152.789 51.2786 152.828 51.0409C152.868 50.8033 152.707 50.5787 152.469 50.5392C152.232 50.4998 152.007 50.6604 151.968 50.8981C151.928 51.1357 152.089 51.3603 152.327 51.3998Z" stroke="black" stroke-opacity="0.3" stroke-width="0.87235" stroke-linecap="round" stroke-linejoin="round"/>
<path d="M45.46 56.345L45.2826 57.414L36.8819 56.0193L37.0594 54.9503L45.46 56.345ZM45.7888 49.9954L45.618 51.024L44.3271 50.8097L43.8651 53.5931L45.1156 53.8007L44.9481 54.8092L37.9896 53.654L38.157 52.6455L39.3874 52.8498L39.8495 50.0664L38.5788 49.8554L38.7496 48.8268L45.7888 49.9954ZM40.6782 53.0641L42.5944 53.3822L43.0564 50.5988L41.1403 50.2807L40.6782 53.0641ZM54.3751 57.8872L54.1993 58.9461L45.7986 57.5514L45.9744 56.4925L49.5142 57.0802L49.7435 55.6986L47.1719 55.2716L47.6842 52.1857L52.8779 53.0479L53.0453 52.0394L47.8416 51.1755L48.0123 50.1469L54.4868 51.2217L53.9812 54.2674L48.8077 53.4085L48.6369 54.4371L54.0222 55.3312L53.8481 56.38L51.0243 55.9112L50.7949 57.2928L54.3751 57.8872ZM62.109 52.0622L61.2183 57.4274L59.998 57.2248L60.3697 54.986L59.3511 54.8169L59.5236 53.7781L60.5421 53.9472L60.8887 51.8597L62.109 52.0622ZM58.6443 53.3316C58.4836 54.2998 58.8086 55.3382 59.9132 55.9879L59.1037 56.8691C58.3723 56.4368 57.9333 55.8043 57.7312 55.0868C57.2694 55.777 56.6034 56.2934 55.7052 56.4914L55.1986 55.3607C56.5379 55.096 57.2264 54.1325 57.3955 53.114L57.4407 52.8417L55.9784 52.5989L56.1491 51.5702L60.2335 52.2483L60.0627 53.277L58.6912 53.0493L58.6443 53.3316ZM63.9644 52.1838L63.0353 57.7808L61.815 57.5783L62.7442 51.9812L63.9644 52.1838ZM62.98 58.1136L62.4409 61.3609L61.1601 61.1483L61.5301 58.9196L56.4676 58.0791L56.6366 57.0605L62.98 58.1136ZM71.6992 58.3383L71.5301 59.3569L65.0355 58.2787L65.8793 53.196L72.3033 54.2624L72.1309 55.3012L67.0179 54.4523L66.8572 55.4205L71.7584 56.2342L71.591 57.2426L66.6898 56.429L66.5156 57.4778L71.6992 58.3383ZM72.2319 60.8102L72.0578 61.859L63.6571 60.4644L63.8312 59.4156L72.2319 60.8102ZM80.8923 55.7712L80.7182 56.82L77.6726 56.3144L77.4214 57.8272L80.3359 58.311L80.1685 59.3195L77.254 58.8356L76.966 60.5702C78.2838 60.7786 79.362 60.9006 80.6199 60.9074L80.5685 61.9662C79.1316 61.9453 77.8744 61.778 76.2709 61.5118L75.4943 61.3829L76.5457 55.0496L80.8923 55.7712ZM83.5492 55.4351L82.9716 58.9144L84.3229 59.1387L84.1438 60.2178L82.7924 59.9934L82.0256 64.6123L80.7348 64.398L82.2583 55.2208L83.5492 55.4351ZM92.918 56.9904L91.3911 66.1878L90.0901 65.9718L91.617 56.7745L92.918 56.9904ZM87.8289 56.8088C89.2105 57.0382 90.0282 58.4796 89.6967 60.4764C89.3619 62.4934 88.124 63.5832 86.7423 63.3539C85.3305 63.1195 84.5111 61.6881 84.856 59.6728C85.1774 57.6743 86.417 56.5744 87.8289 56.8088ZM87.6364 57.9686C86.9204 57.8497 86.3225 58.5173 86.0965 59.8787C85.8688 61.2503 86.2205 62.0652 86.9365 62.184C87.6324 62.2995 88.2286 61.642 88.4563 60.2705C88.6823 58.9091 88.3322 58.0841 87.6364 57.9686ZM101.166 61.2406L101.02 62.1179L94.576 61.0481L95.1552 57.5588L101.519 58.6152L101.375 59.4825L96.3021 58.6404L96.2284 59.0841L101.089 59.8911L100.949 60.7382L96.0878 59.9312L96.0125 60.385L101.166 61.2406ZM101.826 62.6972L101.666 63.6553L93.3364 62.2724L93.4955 61.3143L101.826 62.6972ZM100.596 63.9232L100.229 66.1318L95.1164 65.2829L95.0361 65.767L100.391 66.656L100.239 67.5737L93.6231 66.4755L93.9998 64.2064L99.1027 65.0535L99.1764 64.6098L94.0634 63.761L94.2124 62.8634L100.596 63.9232Z" fill="black"/>
<path d="M40.6147 71.7828L40.5142 72.3879L34.3121 71.3583L34.4125 70.7532L40.6147 71.7828ZM40.8234 67.0143L40.7255 67.6043L39.6892 67.4323L39.3138 69.6938L40.3273 69.8621L40.2319 70.4369L35.1643 69.5956L35.2597 69.0208L36.2732 69.189L36.6487 66.9275L35.62 66.7567L35.718 66.1668L40.8234 67.0143ZM36.9842 69.3071L38.6104 69.577L38.9858 67.3155L37.3596 67.0455L36.9842 69.3071ZM47.3022 72.9319L47.2017 73.537L40.9996 72.5074L41.1 71.9023L43.8305 72.3556L44.0276 71.1681L42.0535 70.8404L42.4114 68.6847L46.3899 69.3452L46.5481 68.3922L42.5545 67.7292L42.6524 67.1392L47.357 67.9203L47.0054 70.0381L43.0269 69.3776L42.8624 70.3684L46.9997 71.0553L46.9018 71.6452L44.7386 71.2861L44.5415 72.4736L47.3022 72.9319ZM53.1076 68.533L52.4534 72.4736L51.7727 72.3606L52.0678 70.5832L51.1223 70.4262L51.219 69.8438L52.1645 70.0008L52.4269 68.42L53.1076 68.533ZM50.4927 69.4434C50.3709 70.1771 50.6904 71.0151 51.4936 71.5138L51.0389 72.0056C50.4645 71.6499 50.1188 71.1106 49.9728 70.5152C49.6272 71.099 49.0937 71.5506 48.3892 71.7212L48.0976 71.0899C49.058 70.8762 49.6663 70.1145 49.7969 69.3279L49.8521 68.9951L48.6495 68.7955L48.7462 68.2131L51.7792 68.7166L51.6825 69.299L50.548 69.1106L50.4927 69.4434ZM54.4627 68.6103L53.7758 72.7476L53.0951 72.6346L53.782 68.4973L54.4627 68.6103ZM53.7294 73.0274L53.3376 75.3873L52.6266 75.2692L52.9217 73.4918L49.0265 72.8451L49.1231 72.2627L53.7294 73.0274ZM60.2777 73.2829L60.1823 73.8577L55.4626 73.0742L56.064 69.4512L60.7156 70.2235L60.619 70.8059L56.6934 70.1542L56.5415 71.0694L60.3233 71.6972L60.2291 72.2645L56.4473 71.6367L56.2841 72.6199L60.2777 73.2829ZM60.6948 75.1242L60.5969 75.7142L54.3947 74.6845L54.4926 74.0945L60.6948 75.1242ZM69.2795 76.5494L69.1803 77.1469L62.9782 76.1173L63.0773 75.5197L64.5598 75.7658L64.8536 73.996C64.3486 73.5973 64.093 73.0536 64.1934 72.4485C64.3705 71.382 65.531 70.8519 66.9833 71.093C68.443 71.3353 69.37 72.212 69.193 73.2785C69.0938 73.876 68.6888 74.3023 68.0934 74.5183L67.797 76.3033L69.2795 76.5494ZM66.8878 71.6678C65.8214 71.4908 65.0111 71.8304 64.8893 72.564C64.7687 73.2901 65.4233 73.8885 66.4898 74.0655C67.5487 74.2413 68.3766 73.8891 68.4971 73.163C68.6189 72.4293 67.9467 71.8436 66.8878 71.6678ZM65.2708 75.8839L67.0709 76.1827L67.3221 74.67C67.0341 74.696 66.7221 74.6792 66.3969 74.6252C66.0792 74.5725 65.7823 74.4882 65.5207 74.3787L65.2708 75.8839ZM76.7773 73.3329L76.6793 73.9229L75.7187 73.7634L75.5756 74.6257L76.5362 74.7852L76.4357 75.3902L75.4751 75.2308L75.3144 76.1989L74.5959 76.0796L75.2626 72.0633L75.9812 72.1826L75.8167 73.1735L76.7773 73.3329ZM75.2642 76.5015L74.8561 78.9596L74.1376 78.8403L74.449 76.9646L70.6898 76.3405L70.7865 75.7581L75.2642 76.5015ZM72.4971 72.0084C73.5333 72.1804 74.1868 72.9728 74.0361 73.9271C73.8703 74.8789 72.9959 75.4176 71.9597 75.2456C70.9235 75.0736 70.2625 74.2799 70.4283 73.3281C70.5789 72.3739 71.4609 71.8364 72.4971 72.0084ZM72.3954 72.621C71.7601 72.5156 71.2246 72.8386 71.1317 73.4449C71.0224 74.0563 71.4248 74.535 72.0614 74.633C72.6955 74.746 73.231 74.423 73.3327 73.8103C73.4332 73.2052 73.0308 72.7265 72.3954 72.621ZM82.97 73.3429L82.366 76.981L81.6474 76.8617L82.2514 73.2236L82.97 73.3429ZM78.5831 76.6872L78.4563 77.4511L81.4742 77.9521L81.601 77.1882L82.312 77.3062L81.8587 80.0367L77.4264 79.3009L77.8797 76.5704L78.5831 76.6872ZM78.2278 78.8277L81.2457 79.3287L81.38 78.5194L78.3621 78.0184L78.2278 78.8277ZM79.2426 73.0427C80.2788 73.2148 80.936 73.9845 80.7815 74.9148C80.6271 75.8451 79.7564 76.3612 78.7215 76.1816C77.684 76.0172 77.0192 75.2462 77.1737 74.3159C77.3281 73.3855 78.2063 72.8707 79.2426 73.0427ZM79.1421 73.6478C78.5005 73.5335 77.9725 73.8578 77.8771 74.4326C77.7804 75.015 78.1765 75.4849 78.8194 75.5917C79.4547 75.6971 79.9814 75.3804 80.0781 74.798C80.1735 74.2232 79.7787 73.7457 79.1421 73.6478ZM89.6713 74.4554L88.5462 81.2324L87.8277 81.1131L88.9528 74.3361L89.6713 74.4554ZM85.0617 74.3663L84.4351 78.1405C85.4235 78.2969 86.4766 78.3901 87.6028 78.3478L87.6007 78.9692C86.3579 79.0116 85.2549 78.914 84.1885 78.7369L83.6212 78.6427L84.3507 74.2483L85.0617 74.3663ZM96.0172 75.5089L95.5815 78.1335L96.6706 78.3143L96.5727 78.9042L95.4835 78.7234L94.8896 82.301L94.1711 82.1817L95.2986 75.3896L96.0172 75.5089ZM94.0864 75.8568L93.9897 76.4392L91.5391 76.0323L90.9954 79.3074C92.1343 79.4926 92.9972 79.5853 93.9904 79.5714L93.9807 80.1916C92.8904 80.2049 91.9841 80.0933 90.7222 79.876L90.1776 79.7856L90.9172 75.3306L94.0864 75.8568ZM97.1759 82.0588C96.881 82.0099 96.6715 81.7264 96.7281 81.4327C96.7695 81.1364 97.0593 80.9358 97.3542 80.9848C97.6417 81.0325 97.8511 81.316 97.8021 81.611C97.7531 81.9059 97.4634 82.1065 97.1759 82.0588ZM103.301 80.4176L103.106 81.5899C103.732 81.6589 104.369 81.7101 104.973 81.7211L104.938 82.2593C103.356 82.2843 101.712 82.0269 100.502 81.826L100.509 81.221C101.055 81.3076 101.698 81.4106 102.383 81.5009L102.582 80.2983L103.301 80.4176ZM105.276 77.9319L105.179 78.5143L103.659 78.262C103.565 79.0624 104.093 79.8574 105.062 80.298L104.636 80.8024C103.865 80.4374 103.341 79.8453 103.146 79.1484C102.734 79.7795 102.055 80.1953 101.199 80.2941L100.95 79.693C102.007 79.5733 102.76 78.9678 102.933 78.1414L101.435 77.8928L101.532 77.3104L103.037 77.5603L103.171 76.751L103.89 76.8702L103.755 77.6796L105.276 77.9319ZM106.879 77.312L105.751 84.1042L105.032 83.9849L106.16 77.1927L106.879 77.312ZM113.784 78.4585L112.659 85.2355L111.971 85.1212L112.552 81.6192L111.675 81.4736L111.151 84.6276L110.493 84.5184L111.538 78.2254L112.196 78.3347L111.773 80.8836L112.65 81.0293L113.096 78.3442L113.784 78.4585ZM110.6 78.7693L110.504 79.3517L108.681 79.0491L108.16 82.188C108.993 82.3185 109.627 82.3849 110.376 82.3693L110.331 82.9681C109.486 82.9989 108.785 82.9136 107.793 82.7567L107.339 82.6813L108.059 78.3474L110.6 78.7693ZM121.569 82.3156L121.475 82.8829L116.876 82.1194L117.32 79.4419L121.836 80.1915L121.739 80.7739L117.95 80.1448L117.696 81.6727L121.569 82.3156ZM122.102 83.8341L122.005 84.4165L119.237 83.9569L118.856 86.2487L118.153 86.1319L118.533 83.8402L115.803 83.3869L115.899 82.8045L122.102 83.8341ZM128.964 83.8386L128.868 84.4134L126.13 83.9589L126.03 84.564L127.989 84.8892L127.722 86.4927L123.774 85.8372L123.676 86.4272L127.814 87.114L127.722 87.6662L122.881 86.8625L123.156 85.2061L127.097 85.8603L127.189 85.3082L123.24 84.6527L123.329 84.1157L125.319 84.4459L125.419 83.8408L122.689 83.3875L122.784 82.8127L128.964 83.8386ZM128.837 81.1829L128.743 81.7501L126.64 81.4011C126.685 82.0187 127.571 82.6515 128.79 82.9627L128.465 83.4683C127.315 83.1647 126.413 82.5835 126.111 81.8728C125.592 82.4473 124.554 82.7063 123.375 82.6233L123.239 82.041C124.482 82.1385 125.52 81.8291 125.77 81.2567L123.683 80.9101L123.777 80.3428L128.837 81.1829ZM135.252 87.5328L135.151 88.1379L128.949 87.1083L129.05 86.5032L131.78 86.9565L131.977 85.769L130.003 85.4412L130.361 83.2856L134.34 83.9461L134.498 82.9931L130.504 82.3301L130.602 81.7401L135.307 82.5211L134.955 84.639L130.977 83.9785L130.812 84.9693L134.949 85.6562L134.852 86.2461L132.688 85.887L132.491 87.0745L135.252 87.5328ZM140.69 84.1765C140.547 85.0388 141.007 85.9624 141.986 86.4823L141.53 86.9818C140.806 86.5896 140.331 85.9666 140.146 85.252C139.729 85.9367 139.048 86.4143 138.203 86.5616L137.91 85.9379C139.03 85.7506 139.809 84.9863 139.973 84.0497L140.003 83.8681L138.513 83.6208L138.609 83.0384L142.278 83.6474L142.181 84.2298L140.721 83.9874L140.69 84.1765ZM143.849 83.4497L143.561 85.1894L144.544 85.3526L144.444 85.9577L143.46 85.7945L143.171 87.5341L142.453 87.4148L143.131 83.3304L143.849 83.4497ZM143.116 87.8669L142.724 90.2267L142.006 90.1074L142.301 88.33L138.542 87.7059L138.639 87.1235L143.116 87.8669ZM147.455 85.0898C147.297 86.0428 147.769 86.9917 148.743 87.4953L148.256 87.9897C147.556 87.5975 147.094 86.9845 146.912 86.2586C146.488 86.9849 145.798 87.4883 144.932 87.6477L144.642 87.0088C145.785 86.8177 146.562 86.0219 146.739 85.0021L146.85 84.3365L147.561 84.4545L147.455 85.0898ZM150.869 84.615L150.204 88.6161L149.486 88.4969L149.824 86.4622L148.394 86.2249L148.492 85.635L149.921 85.8723L150.15 84.4957L150.869 84.615ZM147.904 88.4285C149.326 88.6646 150.118 89.2779 149.981 90.1024C149.845 90.9192 148.898 91.2438 147.477 91.0002C146.054 90.7717 145.254 90.1571 145.397 89.3414C145.527 88.5158 146.482 88.1925 147.904 88.4285ZM147.811 88.9882C146.82 88.8237 146.186 88.9905 146.108 89.4595C146.033 89.9133 146.58 90.2684 147.571 90.4329C148.562 90.5974 149.195 90.4382 149.27 89.9843C149.348 89.5154 148.802 89.1527 147.811 88.9882ZM38.8235 77.1412L38.5599 78.7295L39.5507 78.894L39.4527 79.484L38.4619 79.3195L38.2045 80.87L37.486 80.7508L38.105 77.0219L38.8235 77.1412ZM38.1518 81.1877L37.8906 82.7609L34.2298 82.1532L34.1356 82.7205L38.0309 83.3671L37.9405 83.9117L33.3418 83.1483L33.6105 81.5297L37.2637 82.1362L37.3516 81.6067L33.6833 80.9977L33.7724 80.4607L38.1518 81.1877ZM37.4461 77.5265L37.3519 78.0938L33.313 77.4232L33.4071 76.856L35.0711 77.1322L35.1766 76.4969L35.8951 76.6162L35.7897 77.2515L37.4461 77.5265ZM35.2897 78.0157C36.2806 78.1802 36.8607 78.7117 36.7465 79.4C36.6322 80.0883 35.9127 80.3963 34.9218 80.2318C33.9234 80.0661 33.342 79.5421 33.4563 78.8538C33.5706 78.1655 34.2913 77.8499 35.2897 78.0157ZM35.2044 78.53C34.622 78.4333 34.2049 78.605 34.1521 78.9693C34.0843 79.3311 34.4261 79.6132 35.0085 79.7099C35.5909 79.8066 36.0055 79.65 36.0733 79.2883C36.126 78.9239 35.7868 78.6267 35.2044 78.53ZM45.4522 78.8789C45.2952 79.7778 46.2589 80.8082 47.5612 81.2032L47.1834 81.7467C46.1048 81.385 45.2245 80.6482 44.9221 79.778C44.3428 80.5057 43.276 80.9154 42.146 80.9104L41.9565 80.2727C43.3166 80.3198 44.5452 79.661 44.7034 78.7546L44.7649 78.384L45.5137 78.5083L45.4522 78.8789ZM47.6326 82.5052L47.5347 83.0952L44.7815 82.6381L44.3809 85.0509L43.6775 84.9341L44.0781 82.5213L41.3552 82.0693L41.4531 81.4793L47.6326 82.5052ZM52.2733 83.9984C52.1766 84.5808 52.3617 85.245 52.9135 85.7135C53.6034 85.42 54.0177 84.8204 54.1037 84.3023L54.1577 83.9771L54.8611 84.0938L54.8071 84.4191C54.6904 85.1225 55.0387 85.8798 55.876 86.3141L55.4326 86.7846C54.8015 86.4428 54.4224 85.9174 54.2771 85.3181C53.9705 85.8307 53.4836 86.2589 52.8206 86.4131C52.211 86.0593 51.8785 85.5106 51.7622 84.9239C51.4278 85.4164 50.9069 85.7923 50.2288 85.9207L49.9537 85.3309C50.8749 85.1652 51.4607 84.5397 51.5775 83.8829L51.6315 83.5577L52.3273 83.6732L52.2733 83.9984ZM56.2829 80.0708L55.6425 83.9282L54.924 83.8089L55.5644 79.9515L56.2829 80.0708ZM52.5455 79.8311C53.5817 80.0032 54.2364 80.788 54.0794 81.7335C53.9237 82.6714 53.0518 83.195 52.0156 83.023C50.9794 82.851 50.3159 82.0724 50.4716 81.1345C50.6285 80.1891 51.5093 79.6591 52.5455 79.8311ZM52.4438 80.4438C51.8021 80.3295 51.2742 80.6538 51.175 81.2513C51.077 81.8413 51.4719 82.3187 52.1148 82.4255C52.7501 82.5309 53.278 82.2067 53.376 81.6167C53.4752 81.0192 53.0804 80.5417 52.4438 80.4438ZM58.1588 84.548L58.0395 85.2666L61.2238 85.7952L61.3431 85.0767L62.0616 85.196L61.6247 87.8281L57.0109 87.0621L57.4478 84.43L58.1588 84.548ZM57.8173 86.6053L61.0016 87.134L61.1309 86.3549L57.9466 85.8263L57.8173 86.6053ZM63.0329 84.308L62.9337 84.9055L56.7542 83.8796L56.8534 83.2821L63.0329 84.308ZM60.7545 81.1784C60.6252 81.9575 61.5812 82.8934 62.8558 83.2682L62.5044 83.7928C61.4297 83.455 60.5589 82.7781 60.247 81.988C59.6847 82.6368 58.6387 82.9917 57.5276 82.9665L57.3495 82.3541C58.6932 82.4062 59.8877 81.8584 60.0208 81.0566L60.0685 80.7692L60.8022 80.891L60.7545 81.1784ZM69.6793 82.287L68.5542 89.064L67.8357 88.9447L68.9608 82.1677L69.6793 82.287ZM65.0697 82.1979L64.4432 85.9722C65.4315 86.1285 66.4846 86.2217 67.6108 86.1794L67.6087 86.8008C66.3659 86.8432 65.263 86.7456 64.1965 86.5685L63.6292 86.4743L64.3588 82.0799L65.0697 82.1979ZM76.0252 83.3405L75.5895 85.9651L76.6786 86.1459L76.5807 86.7359L75.4915 86.555L74.8976 90.1326L74.1791 90.0133L75.3067 83.2212L76.0252 83.3405ZM74.0944 83.6884L73.9977 84.2708L71.5471 83.8639L71.0034 87.139C72.1423 87.3242 73.0052 87.4169 73.9984 87.403L73.9887 88.0232C72.8984 88.0365 71.9921 87.9249 70.7302 87.7076L70.1856 87.6172L70.9252 83.1622L74.0944 83.6884ZM77.1839 89.8904C76.889 89.8415 76.6795 89.558 76.7361 89.2643C76.7775 88.968 77.0673 88.7674 77.3623 88.8164C77.6497 88.8641 77.8591 89.1476 77.8101 89.4426C77.7611 89.7375 77.4714 89.9381 77.1839 89.8904ZM83.3088 88.2492L83.1142 89.4215C83.74 89.4905 84.3766 89.5417 84.981 89.5527L84.946 90.091C83.3642 90.1159 81.7204 89.8586 80.5102 89.6576L80.5174 89.0526C81.0626 89.1392 81.7061 89.2422 82.3906 89.3325L82.5902 88.1299L83.3088 88.2492ZM85.2836 85.7635L85.1869 86.3459L83.6667 86.0936C83.5726 86.894 84.1013 87.689 85.0696 88.1296L84.6439 88.634C83.8729 88.269 83.3494 87.6769 83.1542 86.98C82.7424 87.6111 82.0633 88.0269 81.2075 88.1257L80.9576 87.5246C82.015 87.4049 82.7684 86.7994 82.9405 85.973L81.443 85.7244L81.5396 85.142L83.0448 85.3919L83.1792 84.5826L83.8977 84.7018L83.7633 85.5112L85.2836 85.7635ZM86.8865 85.1436L85.759 91.9358L85.0404 91.8165L86.168 85.0243L86.8865 85.1436ZM93.7921 86.2901L92.6671 93.0671L91.9788 92.9528L92.5601 89.4508L91.6828 89.3052L91.1591 92.4592L90.5011 92.35L91.5458 86.057L92.2039 86.1663L91.7807 88.7152L92.6581 88.8609L93.1038 86.1758L93.7921 86.2901ZM90.6084 86.6009L90.5117 87.1833L88.6889 86.8807L88.1678 90.0196C89.001 90.1501 89.6351 90.2165 90.3838 90.2009L90.3388 90.7997C89.4943 90.8305 88.7934 90.7452 87.8013 90.5883L87.3475 90.5129L88.067 86.179L90.6084 86.6009ZM101.577 90.1472L101.483 90.7145L96.8839 89.951L97.3284 87.2735L101.844 88.0231L101.747 88.6055L97.9578 87.9764L97.7041 89.5043L101.577 90.1472ZM102.11 91.6657L102.013 92.2481L99.2446 91.7885L98.8642 94.0803L98.1607 93.9635L98.5412 91.6718L95.8108 91.2185L95.9074 90.6361L102.11 91.6657ZM108.972 91.6702L108.876 92.245L106.138 91.7905L106.038 92.3956L107.997 92.7208L107.73 94.3243L103.782 93.6688L103.684 94.2588L107.822 94.9456L107.73 95.4978L102.889 94.6941L103.164 93.0377L107.105 93.6919L107.197 93.1398L103.248 92.4843L103.337 91.9473L105.327 92.2775L105.427 91.6724L102.697 91.2191L102.792 90.6443L108.972 91.6702ZM108.845 89.0145L108.751 89.5817L106.648 89.2327C106.693 89.8503 107.579 90.4831 108.798 90.7943L108.473 91.2999C107.323 90.9963 106.421 90.4151 106.119 89.7044C105.6 90.2789 104.562 90.5379 103.383 90.4549L103.247 89.8726C104.49 89.9701 105.528 89.6607 105.778 89.0883L103.691 88.7417L103.785 88.1744L108.845 89.0145ZM115.26 95.3644L115.159 95.9695L108.957 94.9399L109.058 94.3348L111.788 94.7881L111.985 93.6006L110.011 93.2728L110.369 91.1172L114.348 91.7777L114.506 90.8247L110.512 90.1617L110.61 89.5717L115.315 90.3528L114.963 92.4706L110.985 91.8101L110.82 92.8009L114.957 93.4878L114.86 94.0777L112.696 93.7186L112.499 94.9061L115.26 95.3644ZM120.698 92.0081C120.555 92.8704 121.015 93.794 121.994 94.3139L121.538 94.8134C120.814 94.4212 120.339 93.7982 120.154 93.0836C119.737 93.7683 119.056 94.2459 118.211 94.3932L117.918 93.7695C119.038 93.5822 119.817 92.8179 119.981 91.8813L120.011 91.6997L118.521 91.4524L118.617 90.87L122.286 91.479L122.189 92.0614L120.729 91.819L120.698 92.0081ZM123.857 91.2813L123.569 93.021L124.552 93.1842L124.452 93.7893L123.468 93.6261L123.179 95.3657L122.461 95.2464L123.139 91.162L123.857 91.2813ZM123.124 95.6985L122.732 98.0583L122.014 97.939L122.309 96.1616L118.55 95.5375L118.647 94.9551L123.124 95.6985ZM127.463 92.9214C127.305 93.8745 127.777 94.8233 128.751 95.3269L128.264 95.8213C127.564 95.4291 127.102 94.8161 126.92 94.0902C126.496 94.8165 125.806 95.3199 124.94 95.4793L124.65 94.8404C125.793 94.6493 126.57 93.8535 126.747 92.8337L126.858 92.1681L127.569 92.2861L127.463 92.9214ZM130.877 92.4466L130.212 96.4477L129.494 96.3285L129.832 94.2938L128.402 94.0565L128.5 93.4666L129.929 93.7039L130.158 92.3273L130.877 92.4466ZM127.912 96.2601C129.334 96.4962 130.126 97.1095 129.989 97.934C129.853 98.7508 128.906 99.0754 127.485 98.8318C126.062 98.6033 125.262 97.9887 125.405 97.173C125.535 96.3474 126.49 96.0241 127.912 96.2601ZM127.819 96.8198C126.828 96.6553 126.194 96.8221 126.116 97.2911C126.041 97.7449 126.588 98.1 127.579 98.2645C128.57 98.429 129.203 98.2698 129.278 97.8159C129.356 97.347 128.81 96.9843 127.819 96.8198ZM137.249 93.4812L136.985 95.0695L137.976 95.234L137.878 95.824L136.887 95.6595L136.63 97.21L135.911 97.0907L136.53 93.3619L137.249 93.4812ZM136.577 97.5277L136.316 99.1009L132.655 98.4932L132.561 99.0605L136.456 99.7071L136.366 100.252L131.767 99.4883L132.036 97.8697L135.689 98.4761L135.777 97.9467L132.109 97.3377L132.198 96.8007L136.577 97.5277ZM135.871 93.8665L135.777 94.4338L131.738 93.7632L131.832 93.196L133.496 93.4722L133.602 92.8369L134.32 92.9562L134.215 93.5915L135.871 93.8665ZM133.715 94.3557C134.706 94.5202 135.286 95.0517 135.172 95.74C135.058 96.4283 134.338 96.7363 133.347 96.5718C132.349 96.4061 131.767 95.8821 131.882 95.1938C131.996 94.5055 132.717 94.1899 133.715 94.3557ZM133.63 94.87C133.047 94.7733 132.63 94.945 132.577 95.3093C132.51 95.6711 132.851 95.9532 133.434 96.0499C134.016 96.1466 134.431 95.99 134.499 95.6282C134.551 95.2639 134.212 94.9667 133.63 94.87ZM143.878 95.2189C143.721 96.1177 144.684 97.1482 145.986 97.5432L145.609 98.0867C144.53 97.725 143.65 96.9881 143.347 96.118C142.768 96.8456 141.701 97.2553 140.571 97.2504L140.382 96.6127C141.742 96.6597 142.97 96.001 143.129 95.0946L143.19 94.724L143.939 94.8483L143.878 95.2189ZM146.058 98.8452L145.96 99.4351L143.207 98.9781L142.806 101.391L142.103 101.274L142.503 98.8613L139.78 98.4093L139.878 97.8193L146.058 98.8452ZM146.943 101.471C146.648 101.422 146.439 101.139 146.495 100.845C146.537 100.549 146.826 100.348 147.121 100.397C147.409 100.445 147.618 100.729 147.569 101.024C147.52 101.319 147.231 101.519 146.943 101.471ZM148.985 101.81C148.69 101.761 148.481 101.478 148.537 101.184C148.579 100.888 148.869 100.687 149.164 100.736C149.451 100.784 149.66 101.068 149.612 101.363C149.563 101.658 149.273 101.858 148.985 101.81ZM151.028 102.149C150.733 102.101 150.523 101.817 150.58 101.523C150.621 101.227 150.911 101.026 151.206 101.075C151.493 101.123 151.703 101.407 151.654 101.702C151.605 101.997 151.315 102.197 151.028 102.149Z" fill="black" fill-opacity="0.5"/>
<path d="M29.0365 104.166L29.1447 103.514L31.2039 102.097C31.7941 101.674 32.1071 101.42 32.1773 100.997C32.2544 100.533 31.9364 100.173 31.4442 100.092C30.9242 100.005 30.5373 100.276 30.4602 100.783L29.6004 100.641C29.7512 99.6895 30.5678 99.191 31.5731 99.3579C32.5992 99.5283 33.1913 100.254 33.0508 101.099C32.9565 101.668 32.6032 102.079 31.4644 102.845L30.4227 103.584L30.4169 103.619L32.6494 103.989L32.524 104.745L29.0365 104.166ZM35.1541 105.253C33.9477 105.053 33.382 103.997 33.6548 102.354C33.9264 100.718 34.804 99.8943 36.0104 100.095C37.2099 100.294 37.7813 101.357 37.5097 102.994C37.2369 104.637 36.3604 105.453 35.1541 105.253ZM35.2795 104.497C35.9104 104.602 36.4012 104.049 36.6014 102.843C36.8006 101.644 36.5101 100.947 35.8861 100.843C35.2621 100.74 34.7622 101.305 34.563 102.505C34.3628 103.711 34.6486 104.392 35.2795 104.497ZM37.8488 105.629L37.957 104.977L40.0162 103.559C40.6063 103.137 40.9193 102.883 40.9895 102.46C41.0666 101.996 40.7487 101.636 40.2564 101.555C39.7364 101.468 39.3495 101.739 39.2724 102.246L38.4127 102.104C38.5634 101.152 39.38 100.654 40.3853 100.821C41.4115 100.991 42.0035 101.716 41.8631 102.562C41.7687 103.131 41.4154 103.542 40.2766 104.308L39.2349 105.047L39.2291 105.082L41.4617 105.452L41.3362 106.208L37.8488 105.629ZM43.897 106.704C42.8916 106.538 42.2557 105.819 42.3661 104.983L43.2466 105.129C43.2064 105.542 43.5394 105.897 44.0178 105.976C44.5794 106.07 45.0495 105.727 45.1415 105.173C45.2371 104.597 44.889 104.119 44.3135 104.024C43.9264 103.952 43.6191 104.044 43.4102 104.315L42.5712 104.176L43.3482 101.384L46.3157 101.877L46.1902 102.632L43.9646 102.263L43.5911 103.569L43.6396 103.577C43.8706 103.387 44.2645 103.289 44.6736 103.357C45.6096 103.512 46.1797 104.326 46.0197 105.29C45.8528 106.295 44.9786 106.884 43.897 106.704ZM46.8875 107.187C46.5894 107.137 46.387 106.854 46.4365 106.556C46.4848 106.265 46.7678 106.062 47.0659 106.112C47.3502 106.159 47.5595 106.443 47.5112 106.734C47.4617 107.033 47.1718 107.234 46.8875 107.187ZM51.6415 107.99C50.4351 107.79 49.8694 106.734 50.1422 105.091C50.4138 103.455 51.2914 102.631 52.4978 102.832C53.6973 103.031 54.2688 104.095 53.9971 105.731C53.7243 107.374 52.8479 108.19 51.6415 107.99ZM51.7669 107.234C52.3979 107.339 52.8886 106.787 53.0888 105.58C53.288 104.381 52.9975 103.684 52.3735 103.581C51.7495 103.477 51.2496 104.042 51.0505 105.242C50.8502 106.448 51.136 107.13 51.7669 107.234ZM57.2079 103.685L56.3746 108.705L55.4663 108.554L56.1535 104.415L56.1257 104.41L54.8297 104.964L54.9667 104.139L56.3412 103.541L57.2079 103.685ZM57.863 109.009C57.5648 108.959 57.3624 108.676 57.4119 108.378C57.4603 108.087 57.7432 107.885 58.0414 107.934C58.3256 107.981 58.5349 108.265 58.4866 108.557C58.4371 108.855 58.1472 109.056 57.863 109.009ZM62.6169 109.812C61.4105 109.612 60.8448 108.556 61.1176 106.913C61.3893 105.277 62.2669 104.454 63.4733 104.654C64.6727 104.853 65.2442 105.917 64.9725 107.553C64.6998 109.196 63.8233 110.012 62.6169 109.812ZM62.7424 109.056C63.3733 109.161 63.864 108.609 64.0643 107.402C64.2634 106.203 63.973 105.506 63.349 105.403C62.725 105.299 62.225 105.864 62.0259 107.064C61.8256 108.27 62.1114 108.952 62.7424 109.056ZM68.1833 105.507L67.35 110.527L66.4417 110.376L67.1289 106.237L67.1012 106.232L65.8051 106.786L65.9421 105.961L67.3167 105.363L68.1833 105.507ZM68.8384 110.831C68.5403 110.781 68.3379 110.498 68.3874 110.2C68.4357 109.909 68.7187 109.707 69.0168 109.756C69.3011 109.803 69.5104 110.087 69.462 110.379C69.4125 110.677 69.1227 110.878 68.8384 110.831Z" fill="black" fill-opacity="0.5"/>
</g>
<defs>
<filter id="filter0_d_354_8598" x="-0.117737" y="-0.360352" width="191.138" height="158.842" filterUnits="userSpaceOnUse" color-interpolation-filters="sRGB">
<feFlood flood-opacity="0" result="BackgroundImageFix"/>
<feColorMatrix in="SourceAlpha" type="matrix" values="0 0 0 0 0 0 0 0 0 0 0 0 0 0 0 0 0 0 127 0" result="hardAlpha"/>
<feOffset dy="2"/>
<feGaussianBlur stdDeviation="8"/>
<feComposite in2="hardAlpha" operator="out"/>
<feColorMatrix type="matrix" values="0 0 0 0 0 0 0 0 0 0 0 0 0 0 0 0 0 0 0.03 0"/>
<feBlend mode="normal" in2="BackgroundImageFix" result="effect1_dropShadow_354_8598"/>
<feBlend mode="normal" in="SourceGraphic" in2="effect1_dropShadow_354_8598" result="shape"/>
</filter>
<clipPath id="clip0_354_8598">
<rect width="7.85115" height="7.85115" fill="white" transform="translate(43.7483 28.9531) rotate(9.42594)"/>
</clipPath>
</defs>
</svg>
