<svg width="176" height="138" viewBox="0 0 176 138" fill="none" xmlns="http://www.w3.org/2000/svg">
<g filter="url(#filter0_d_354_8596)">
<path d="M3.71093 38.6661C3.3183 35.8021 5.32167 33.1622 8.18559 32.7695L140.418 14.6408C143.282 14.2482 145.922 16.2516 146.315 19.1155L159.111 112.456C159.504 115.32 157.501 117.96 154.637 118.353L22.4042 136.481C19.5403 136.874 16.9003 134.871 16.5077 132.007L3.71093 38.6661Z" fill="white" shape-rendering="crispEdges"/>
<path d="M15.1485 45.0225C14.9522 43.5905 15.9539 42.2705 17.3858 42.0742L60.4512 36.1701C61.8832 35.9738 63.2031 36.9754 63.3995 38.4074L64.5381 46.7127C64.7344 48.1446 63.7327 49.4646 62.3008 49.6609L19.2354 55.5651C17.8034 55.7614 16.4835 54.7597 16.2871 53.3277L15.1485 45.0225Z" fill="#F93E3E" fill-opacity="0.2"/>
<g clip-path="url(#clip0_354_8596)">
<path d="M22.0665 47.3145L22.2442 48.6109M22.4219 49.9073L22.4252 49.9069M25.6198 49.7991L22.405 45.6171C22.3348 45.5251 22.2414 45.4534 22.1344 45.4093C22.0274 45.3651 21.9107 45.3501 21.796 45.3659C21.6813 45.3816 21.5729 45.4274 21.4817 45.4987C21.3906 45.5701 21.32 45.6643 21.2771 45.7718L19.3064 50.6646C19.2628 50.7714 19.2482 50.8879 19.2642 51.0021C19.2801 51.1163 19.3259 51.2244 19.397 51.3152C19.4682 51.406 19.562 51.4764 19.6691 51.5192C19.7762 51.5621 19.8927 51.5759 20.0069 51.5592L25.1925 50.8482C25.3062 50.8325 25.4137 50.7872 25.5044 50.7168C25.595 50.6463 25.6655 50.5533 25.7088 50.447C25.7521 50.3407 25.7667 50.2248 25.7511 50.1111C25.7355 49.9974 25.6902 49.8898 25.6198 49.7991Z" stroke="#F93E3E" stroke-width="0.654262" stroke-linecap="round" stroke-linejoin="round"/>
</g>
<path d="M31.1139 44.5444L31.1979 45.1571L29.5825 45.3786L29.7305 46.4579L31.0813 46.2727L31.1634 46.8715L29.8126 47.0567L29.9796 48.2753C30.7272 48.1657 31.2377 48.0602 31.8396 47.8713L31.9942 48.4815C31.2891 48.72 30.6922 48.816 29.7383 48.9468L29.3275 49.0031L28.7604 44.8671L31.1139 44.5444ZM33.8834 43.4269L34.7464 49.7216L33.9944 49.8247L33.1314 43.53L33.8834 43.4269ZM32.5776 43.7336L33.3814 49.5966L32.6573 49.6958L32.2411 46.6599L31.4612 46.7669L31.3753 46.1402L32.1551 46.0333L31.8535 43.8329L32.5776 43.7336ZM37.9847 43.7443C38.1183 44.7191 39.2059 45.5632 40.5535 45.6125L40.2941 46.3078C39.2086 46.2297 38.2579 45.7109 37.7345 44.9207C37.4318 45.8171 36.6562 46.576 35.6358 46.9465L35.2058 46.3457C36.4754 45.9304 37.2888 44.8258 37.1631 43.857L37.0991 43.3904L37.9207 43.2778L37.9847 43.7443ZM41.0314 47.3914L41.1193 48.032L35.3678 48.8206L35.2799 48.18L41.0314 47.3914ZM46.3472 45.0807L46.4312 45.6935L42.0167 46.2987L41.5479 42.8798L45.9068 42.2822L45.9927 42.9089L42.4207 43.3986L42.5247 44.1576L45.9506 43.6879L46.0336 44.2937L42.6078 44.7634L42.7195 45.5781L46.3472 45.0807ZM47.1995 46.5884L47.2864 47.222L41.5349 48.0105L41.448 47.3769L47.1995 46.5884ZM53.8605 40.6881L54.3006 43.8981L53.5346 44.0031L53.0946 40.7931L53.8605 40.6881ZM54.3546 44.1887L54.5789 45.825L51.174 46.2918L51.2408 46.7792L54.8338 46.2866L54.9178 46.8994L50.5658 47.496L50.3358 45.8179L53.7268 45.353L53.6638 44.8934L50.2589 45.3602L50.1768 44.7614L54.3546 44.1887ZM51.0656 41.7239C51.1754 42.5247 51.8077 43.2042 52.8445 43.3671L52.5505 44.0174C51.7889 43.8949 51.2022 43.4964 50.8341 42.9333C50.6384 43.6269 50.1724 44.2122 49.4533 44.5556L48.9803 44.0032C49.9521 43.5366 50.3775 42.6554 50.2649 41.8337L50.198 41.3463L50.9988 41.2365L51.0656 41.7239ZM60.2248 39.8156L61.0877 46.1102L60.3427 46.2124L59.9045 43.0163L59.2778 43.1022L59.6721 45.978L58.941 46.0782L58.1381 40.2223L58.8693 40.122L59.191 42.4686L59.8176 42.3827L59.4797 39.9178L60.2248 39.8156ZM57.862 40.8986L57.9479 41.5253L57.4953 41.5873L57.8666 44.296C58.0527 44.2563 58.2279 44.2145 58.3952 44.1667L58.5143 44.725C57.5601 45.0616 56.2679 45.26 55.4741 45.3688L55.2957 44.7406L55.8797 44.6535L55.4969 41.8613L55.0373 41.9243L54.9514 41.2976L57.862 40.8986ZM56.5741 44.5441L57.17 44.4411L56.792 41.6837L56.1932 41.7658L56.5741 44.5441Z" fill="#F93E3E"/>
<path d="M131.156 33.7897C131.395 33.757 131.562 33.537 131.529 33.2983C131.497 33.0597 131.277 32.8927 131.038 32.9255C130.799 32.9582 130.632 33.1782 130.665 33.4168C130.698 33.6555 130.918 33.8224 131.156 33.7897Z" stroke="black" stroke-opacity="0.3" stroke-width="0.87235" stroke-linecap="round" stroke-linejoin="round"/>
<path d="M134.181 33.375C134.42 33.3423 134.587 33.1223 134.554 32.8836C134.522 32.645 134.302 32.478 134.063 32.5108C133.824 32.5435 133.657 32.7635 133.69 33.0021C133.723 33.2408 133.943 33.4077 134.181 33.375Z" stroke="black" stroke-opacity="0.3" stroke-width="0.87235" stroke-linecap="round" stroke-linejoin="round"/>
<path d="M128.132 34.2044C128.37 34.1717 128.537 33.9517 128.504 33.7131C128.472 33.4744 128.252 33.3075 128.013 33.3402C127.774 33.3729 127.607 33.5929 127.64 33.8315C127.673 34.0702 127.893 34.2372 128.132 34.2044Z" stroke="black" stroke-opacity="0.3" stroke-width="0.87235" stroke-linecap="round" stroke-linejoin="round"/>
<path d="M27.527 70.5857L27.6742 71.6593L19.2375 72.816L19.0903 71.7424L27.527 70.5857ZM25.9599 64.4238L26.1015 65.4568L24.8051 65.6345L25.1884 68.4299L26.4443 68.2577L26.5831 69.2705L19.5947 70.2286L19.4559 69.2158L20.6915 69.0464L20.3083 66.2511L19.0321 66.426L18.8905 65.3929L25.9599 64.4238ZM21.9879 68.8687L23.9122 68.6049L23.529 65.8095L21.6047 66.0733L21.9879 68.8687ZM36.4987 69.4176L36.6445 70.4811L28.2078 71.6377L28.062 70.5743L31.617 70.0869L31.4267 68.6994L28.8441 69.0534L28.4192 65.9542L33.6351 65.2391L33.4963 64.2263L28.2702 64.9428L28.1286 63.9097L34.6308 63.0183L35.0501 66.077L29.8544 66.7893L29.9961 67.8224L35.4045 67.0809L35.5489 68.1342L32.713 68.523L32.9032 69.9106L36.4987 69.4176ZM42.1598 61.563L42.8985 66.9512L41.673 67.1192L41.3648 64.8708L40.3418 65.011L40.1988 63.9678L41.2218 63.8276L40.9343 61.7311L42.1598 61.563ZM39.2268 63.8018C39.3601 64.7741 39.9781 65.6697 41.2256 65.963L40.7135 67.0444C39.8869 66.8482 39.2802 66.3741 38.8746 65.7487C38.638 66.5447 38.1549 67.2352 37.3557 67.6905L36.5368 66.7606C37.7376 66.111 38.1097 64.9868 37.9695 63.9639L37.932 63.6904L36.4634 63.8918L36.3218 62.8587L40.4237 62.2964L40.5653 63.3294L39.1879 63.5183L39.2268 63.8018ZM43.968 61.1294L44.7387 66.7505L43.5132 66.9185L42.7425 61.2974L43.968 61.1294ZM44.7845 67.0847L45.2316 70.346L43.9453 70.5223L43.6384 68.284L38.5541 68.9811L38.4139 67.9581L44.7845 67.0847ZM53.1789 64.7163L53.3191 65.7392L46.7966 66.6335L46.0968 61.5289L52.5484 60.6444L52.6914 61.6876L47.5565 62.3916L47.6898 63.3639L52.612 62.6891L52.7509 63.7019L47.8286 64.3767L47.973 65.43L53.1789 64.7163ZM54.4199 66.9194L54.5643 67.9727L46.1276 69.1294L45.9832 68.0761L54.4199 66.9194ZM61.1988 59.541L61.3432 60.5943L58.2845 61.0137L58.4928 62.5329L61.4198 62.1316L61.5587 63.1444L58.6316 63.5457L58.8705 65.2877C60.1908 65.0964 61.2567 64.8935 62.4602 64.5273L62.7248 65.5538C61.3461 65.9595 60.0958 66.1722 58.4854 66.393L57.7056 66.4999L56.8336 60.1395L61.1988 59.541ZM63.6368 58.4329L64.1158 61.9271L65.473 61.741L65.6216 62.8247L64.2644 63.0108L64.9004 67.6495L63.604 67.8272L62.3404 58.6106L63.6368 58.4329ZM73.0458 57.1429L74.3122 66.3798L73.0056 66.5589L71.7393 57.322L73.0458 57.1429ZM68.1314 58.4771C69.5189 58.2868 70.727 59.4213 71.0019 61.4267C71.2796 63.4523 70.4201 64.86 69.0326 65.0502C67.6146 65.2446 66.408 64.1202 66.1404 62.0932C65.8554 60.0892 66.7135 58.6715 68.1314 58.4771ZM68.2911 59.6418C67.572 59.7404 67.1987 60.5551 67.3862 61.9224C67.575 63.2998 68.1524 63.9739 68.8715 63.8753C69.5703 63.7795 69.945 62.9749 69.7561 61.5975C69.5687 60.2302 68.9899 59.546 68.2911 59.6418ZM82.1825 58.7588L82.3033 59.64L75.8315 60.5273L75.351 57.0229L81.7419 56.1468L81.8613 57.0178L76.7668 57.7162L76.8279 58.1619L81.7097 57.4926L81.8263 58.3433L76.9446 59.0126L77.0071 59.4684L82.1825 58.7588ZM83.2442 59.9547L83.3761 60.9169L75.0103 62.0638L74.8784 61.1016L83.2442 59.9547ZM82.4331 61.4898L82.7372 63.7079L77.6022 64.4119L77.6689 64.898L83.0469 64.1607L83.1733 65.0824L76.5292 65.9933L76.2168 63.7144L81.3416 63.0118L81.2805 62.5662L76.1456 63.2702L76.022 62.3688L82.4331 61.4898Z" fill="black"/>
<path d="M27.4727 86.7663L27.556 87.374L21.3272 88.2279L21.2439 87.6202L27.4727 86.7663ZM26.2594 82.15L26.3406 82.7425L25.3 82.8852L25.6113 85.1564L26.6292 85.0169L26.7084 85.5942L21.619 86.2919L21.5398 85.7146L22.5577 85.575L22.2463 83.3038L21.2133 83.4454L21.132 82.853L26.2594 82.15ZM23.2717 85.4772L24.9049 85.2533L24.5935 82.982L22.9604 83.2059L23.2717 85.4772ZM34.2004 85.8826L34.2837 86.4903L28.0549 87.3443L27.9716 86.7366L30.7138 86.3606L30.5503 85.168L28.5677 85.4398L28.2709 83.275L32.2665 82.7272L32.1353 81.7701L28.1245 82.3199L28.0433 81.7274L32.7681 81.0797L33.0597 83.2066L29.0641 83.7544L29.2005 84.7495L33.3556 84.1798L33.4368 84.7723L31.2644 85.0701L31.4279 86.2627L34.2004 85.8826ZM38.4421 79.9613L38.9847 83.9188L38.301 84.0126L38.0563 82.2275L37.1068 82.3577L37.0266 81.7728L37.9761 81.6426L37.7584 80.055L38.4421 79.9613ZM36.2143 81.6055C36.3153 82.3424 36.8687 83.0481 37.7836 83.2864L37.495 83.8909C36.841 83.7213 36.3511 83.3087 36.0352 82.7832C35.8781 83.4432 35.5023 84.0325 34.88 84.4042L34.4145 83.8876C35.2684 83.3991 35.6238 82.4913 35.5155 81.7013L35.4696 81.3671L34.2619 81.5327L34.1817 80.9478L37.2277 80.5302L37.3079 81.1151L36.1685 81.2713L36.2143 81.6055ZM39.7592 79.6337L40.3289 83.7887L39.6452 83.8825L39.0756 79.7274L39.7592 79.6337ZM40.3674 84.0698L40.6923 86.4398L39.9783 86.5377L39.7336 84.7526L35.8216 85.2889L35.7414 84.704L40.3674 84.0698ZM46.6974 82.3739L46.7766 82.9512L42.0366 83.601L41.5378 79.9625L46.2094 79.322L46.2896 79.9069L42.3472 80.4474L42.4732 81.3666L46.2713 80.8459L46.3494 81.4156L42.5513 81.9363L42.6867 82.9238L46.6974 82.3739ZM47.6413 84.009L47.7225 84.6014L41.4938 85.4554L41.4125 84.8629L47.6413 84.009ZM56.2629 82.827L56.3451 83.4271L50.1164 84.281L50.0341 83.6809L51.5229 83.4768L51.2792 81.6993C50.6787 81.4682 50.2735 81.0246 50.1902 80.4169C50.0434 79.3459 50.9948 78.4957 52.4533 78.2958C53.9193 78.0948 55.0644 78.6575 55.2112 79.7286C55.2935 80.3286 55.033 80.8558 54.5283 81.2384L54.774 83.0311L56.2629 82.827ZM52.5324 78.8731C51.4614 79.0199 50.7881 79.5843 50.8891 80.3211C50.989 81.0503 51.7915 81.4279 52.8625 81.281C53.926 81.1352 54.6124 80.5536 54.5124 79.8244C54.4114 79.0875 53.5959 78.7273 52.5324 78.8731ZM52.237 83.3789L54.0448 83.1311L53.8365 81.6118C53.5692 81.722 53.2662 81.7984 52.9396 81.8431C52.6206 81.8869 52.312 81.8944 52.0297 81.8673L52.237 83.3789ZM62.4712 77.5337L62.5524 78.1262L61.5877 78.2585L61.7064 79.1244L62.6711 78.9922L62.7545 79.5998L61.7898 79.7321L61.9231 80.7044L61.2014 80.8033L60.6484 76.7698L61.3701 76.6709L61.5065 77.666L62.4712 77.5337ZM61.9647 81.0082L62.3032 83.477L61.5815 83.5759L61.3233 81.6921L57.548 82.2097L57.4678 81.6248L61.9647 81.0082ZM57.9908 77.5366C59.0315 77.3939 59.8903 77.9572 60.0291 78.9133C60.1527 79.8714 59.4772 80.645 58.4365 80.7877C57.3959 80.9304 56.5294 80.3682 56.4058 79.41C56.267 78.4539 56.9501 77.6793 57.9908 77.5366ZM58.0751 78.1519C57.4371 78.2394 57.0213 78.7065 57.1122 79.3132C57.189 79.9295 57.7151 80.2675 58.3522 80.1724C58.9913 80.0926 59.407 79.6254 59.3227 79.0101C59.2394 78.4024 58.7132 78.0644 58.0751 78.1519ZM68.3888 75.7086L68.8898 79.3623L68.1681 79.4613L67.6672 75.8076L68.3888 75.7086ZM65.1897 80.2024L65.2949 80.9696L68.3257 80.5541L68.2205 79.7869L68.9345 79.689L69.3105 82.4312L64.8592 83.0414L64.4832 80.2992L65.1897 80.2024ZM65.4844 82.3521L68.5152 81.9366L68.4038 81.1238L65.373 81.5393L65.4844 82.3521ZM64.7399 76.5262C65.7805 76.3835 66.6362 76.924 66.7643 77.8583C66.8924 78.7926 66.2137 79.5435 65.172 79.6786C64.1324 79.8288 63.2691 79.2894 63.141 78.3551C63.0129 77.4208 63.6992 76.6689 64.7399 76.5262ZM64.8232 77.1339C64.1765 77.2148 63.7683 77.6809 63.8474 78.2582C63.9276 78.8431 64.4451 79.1746 65.0908 79.0861C65.7289 78.9986 66.1381 78.5401 66.0579 77.9552C65.9787 77.3779 65.4602 77.0388 64.8232 77.1339ZM75.119 74.7859L76.0521 81.592L75.3304 81.691L74.3974 74.8849L75.119 74.7859ZM70.6899 76.0664L71.2096 79.8569C72.1998 79.7134 73.2333 79.4904 74.2965 79.1164L74.4785 79.7105C73.3041 80.1192 72.2217 80.3527 71.1506 80.4996L70.5809 80.5777L69.9759 76.1643L70.6899 76.0664ZM81.4921 73.9122L81.8535 76.5481L82.9473 76.3981L83.0285 76.9906L81.9347 77.1405L82.4273 80.7335L81.7056 80.8324L80.7705 74.0111L81.4921 73.9122ZM79.751 74.8165L79.8312 75.4014L77.3701 75.7388L77.821 79.0279C78.9637 78.8673 79.8153 78.7003 80.7598 78.3928L80.9343 78.988C79.8969 79.3237 78.9981 79.4856 77.7285 79.6519L77.1816 79.7269L76.5682 75.2528L79.751 74.8165ZM84.5392 79.8248C84.243 79.8655 83.959 79.6567 83.926 79.3595C83.8778 79.0643 84.0951 78.7868 84.3913 78.7462C84.68 78.7066 84.964 78.9153 85.0046 79.2116C85.0452 79.5078 84.8279 79.7853 84.5392 79.8248ZM89.9029 76.4428L90.0643 77.6202C90.6825 77.5006 91.3057 77.361 91.8862 77.1924L92.0123 77.7169C90.5088 78.2093 88.8626 78.4505 87.6472 78.6171L87.4748 78.0371C88.0212 77.9583 88.6663 77.866 89.3469 77.7495L89.1813 76.5417L89.9029 76.4428ZM91.0527 73.4837L91.1329 74.0686L89.6061 74.2779C89.7534 75.0703 90.4939 75.673 91.5492 75.8069L91.2921 76.4149C90.4475 76.2946 89.7722 75.8842 89.3793 75.2764C89.1729 76.0012 88.6475 76.5994 87.8594 76.9474L87.4426 76.4473C88.4171 76.0197 88.9573 75.2182 88.8769 74.3779L87.3729 74.5841L87.2927 73.9992L88.8043 73.792L88.6929 72.9792L89.4145 72.8802L89.5259 73.693L91.0527 73.4837ZM92.4001 72.4168L93.3352 79.238L92.6136 79.337L91.6784 72.5157L92.4001 72.4168ZM99.3353 71.466L100.268 78.272L99.5771 78.3668L99.095 74.8498L98.2138 74.9706L98.6481 78.1382L97.9872 78.2288L97.1208 71.9089L97.7816 71.8183L98.1326 74.3781L99.0137 74.2573L98.644 71.5607L99.3353 71.466ZM96.3865 72.706L96.4667 73.2909L94.6361 73.5419L95.0682 76.6943C95.9028 76.5721 96.528 76.4477 97.2385 76.211L97.3729 76.7962C96.5755 77.0758 95.8808 77.202 94.8867 77.346L94.431 77.4085L93.8342 73.0559L96.3865 72.706ZM107.913 72.8438L107.991 73.4135L103.373 74.0467L103.004 71.3577L107.539 70.7359L107.619 71.3208L103.814 71.8426L104.024 73.377L107.913 72.8438ZM108.872 74.1363L108.952 74.7212L106.172 75.1023L106.487 77.4039L105.781 77.5008L105.466 75.1992L102.723 75.5751L102.643 74.9902L108.872 74.1363ZM115.427 72.1077L115.506 72.685L112.757 73.062L112.84 73.6697L114.807 73.4L115.028 75.0103L111.063 75.5539L111.144 76.1464L115.299 75.5768L115.375 76.1313L110.514 76.7978L110.286 75.1343L114.243 74.5917L114.167 74.0372L110.202 74.5808L110.128 74.0415L112.126 73.7676L112.043 73.1599L109.3 73.5358L109.221 72.9585L115.427 72.1077ZM114.52 69.6087L114.598 70.1784L112.486 70.4679C112.712 71.0444 113.746 71.3863 115.002 71.3224L114.842 71.9016C113.653 71.9524 112.619 71.6646 112.12 71.0752C111.795 71.7776 110.881 72.3325 109.73 72.6025L109.427 72.0868C110.643 71.8118 111.543 71.2085 111.613 70.5876L109.516 70.8751L109.438 70.3053L114.52 69.6087ZM122.528 73.7732L122.611 74.3809L116.382 75.2348L116.299 74.6271L119.041 74.2512L118.878 73.0586L116.895 73.3304L116.598 71.1655L120.594 70.6178L120.462 69.6607L116.452 70.2105L116.371 69.618L121.095 68.9703L121.387 71.0972L117.391 71.645L117.528 72.64L121.683 72.0704L121.764 72.6629L119.592 72.9607L119.755 74.1533L122.528 73.7732ZM126.727 68.9565C126.846 69.8225 127.56 70.5682 128.648 70.7749L128.361 71.387C127.553 71.2269 126.914 70.7727 126.526 70.1449C126.331 70.9223 125.822 71.5803 125.059 71.9713L124.594 71.4623C125.608 70.9519 126.126 69.9908 126.005 69.0479L125.98 68.8656L124.483 69.0707L124.403 68.4858L128.087 67.9808L128.167 68.5657L126.701 68.7666L126.727 68.9565ZM129.53 67.3264L129.769 69.0735L130.757 68.9381L130.84 69.5458L129.853 69.6812L130.092 71.4283L129.37 71.5272L128.808 67.4253L129.53 67.3264ZM130.138 71.7625L130.463 74.1325L129.741 74.2314L129.496 72.4463L125.721 72.9639L125.641 72.379L130.138 71.7625ZM133.46 67.8246C133.591 68.7817 134.323 69.5481 135.402 69.7407L135.084 70.357C134.299 70.1899 133.676 69.7413 133.287 69.102C133.097 69.9212 132.587 70.6064 131.808 71.0151L131.341 70.4909C132.376 69.9698 132.883 68.9794 132.75 67.9529L132.658 67.2844L133.372 67.1865L133.46 67.8246ZM136.579 66.36L137.13 70.3783L136.408 70.4772L136.128 68.4339L134.692 68.6307L134.611 68.0382L136.047 67.8414L135.857 66.4589L136.579 66.36ZM134.877 70.8806C136.305 70.6848 137.243 71.036 137.357 71.864C137.469 72.6844 136.66 73.2751 135.231 73.4633C133.804 73.6667 132.858 73.3165 132.753 72.4951C132.632 71.6682 133.449 71.0764 134.877 70.8806ZM134.954 71.4427C133.959 71.5792 133.403 71.9262 133.467 72.3972C133.53 72.853 134.158 73.03 135.153 72.8936C136.148 72.7572 136.705 72.4177 136.643 71.9619C136.578 71.4909 135.949 71.3063 134.954 71.4427ZM27.3494 92.4147L27.5681 94.0099L28.5631 93.8735L28.6444 94.466L27.6493 94.6024L27.8628 96.1596L27.1411 96.2585L26.6277 92.5136L27.3494 92.4147ZM27.9065 96.4786L28.1231 98.0586L24.4466 98.5626L24.5247 99.1323L28.4367 98.596L28.5117 99.1429L23.8933 99.7761L23.6704 98.1506L27.3393 97.6476L27.2664 97.1158L23.5823 97.6209L23.5084 97.0816L27.9065 96.4786ZM26.1479 93.1908L26.226 93.7605L22.1697 94.3166L22.0916 93.7469L23.7627 93.5178L23.6752 92.8797L24.3969 92.7808L24.4844 93.4189L26.1479 93.1908ZM24.2333 94.2968C25.2283 94.1604 25.9399 94.4962 26.0347 95.1875C26.1295 95.8787 25.5335 96.3861 24.5384 96.5225C23.5357 96.6599 22.8252 96.3317 22.7304 95.6405C22.6356 94.9492 23.2306 94.4343 24.2333 94.2968ZM24.3041 94.8134C23.7192 94.8935 23.3717 95.1811 23.4292 95.5447C23.4716 95.9103 23.8816 96.0785 24.4665 95.9983C25.0514 95.9182 25.401 95.6458 25.3586 95.2801C25.3011 94.9166 24.889 94.7332 24.3041 94.8134ZM34.1953 92.1107C34.3116 93.0157 35.5373 93.7144 36.8981 93.7059L36.6983 94.3369C35.561 94.3109 34.502 93.868 33.9553 93.1265C33.6175 93.9931 32.7201 94.7004 31.6393 95.0305L31.2694 94.4775C32.5824 94.1195 33.5606 93.1264 33.4433 92.2138L33.3922 91.8416L34.1442 91.7385L34.1953 92.1107ZM37.3521 94.9283L37.4333 95.5208L34.6683 95.8998L35.0005 98.323L34.2941 98.4198L33.9619 95.9967L31.2273 96.3716L31.1461 95.7791L37.3521 94.9283ZM42.2268 94.9797C42.307 95.5646 42.6806 96.1441 43.3463 96.4281C43.9183 95.9434 44.1364 95.248 44.0651 94.7276L44.0203 94.401L44.7267 94.3042L44.7715 94.6308C44.8684 95.3372 45.4255 95.9574 46.3538 96.1242L46.0697 96.7048C45.3656 96.5653 44.8479 96.1758 44.5316 95.6465C44.3906 96.2269 44.0524 96.7802 43.4649 97.1238C42.7778 96.9665 42.2977 96.5409 42.0128 96.0151C41.8393 96.5844 41.4531 97.0978 40.8436 97.4213L40.406 96.9396C41.2369 96.5084 41.611 95.7374 41.528 95.0755L41.4832 94.7488L42.1821 94.653L42.2268 94.9797ZM44.8929 90.0405L45.424 93.9145L44.7024 94.0134L44.1712 90.1394L44.8929 90.0405ZM41.2522 90.9188C42.2929 90.7762 43.1507 91.3318 43.2809 92.2813C43.41 93.2233 42.7323 93.9817 41.6917 94.1244C40.651 94.267 39.7867 93.72 39.6575 92.7781C39.5273 91.8286 40.2115 91.0615 41.2522 90.9188ZM41.3366 91.5341C40.6899 91.615 40.2817 92.0812 40.364 92.6812C40.4452 93.2737 40.9637 93.6128 41.6094 93.5243C42.2475 93.4368 42.6556 92.9707 42.5744 92.3782C42.4921 91.7781 41.9736 91.439 41.3366 91.5341ZM48.0109 93.761L48.1099 94.4827L51.3078 94.0442L51.2089 93.3226L51.9305 93.2237L52.2929 95.8671L47.6593 96.5024L47.2969 93.8589L48.0109 93.761ZM48.2942 95.8272L51.4922 95.3887L51.3849 94.6064L48.1869 95.0448L48.2942 95.8272ZM52.5951 92.0878L52.6774 92.6879L46.4714 93.5387L46.3891 92.9386L52.5951 92.0878ZM49.4919 89.7737C49.5991 90.5561 50.7895 91.1668 52.1179 91.1472L51.9378 91.7523C50.8112 91.7481 49.7789 91.3595 49.247 90.6973C48.9021 91.4836 48.0082 92.1324 46.9395 92.4376L46.588 91.9053C47.8868 91.557 48.8654 90.6799 48.7551 89.8747L48.7155 89.5861L49.4523 89.4851L49.4919 89.7737ZM58.3445 88.1886L59.2776 94.9947L58.556 95.0936L57.6229 88.2875L58.3445 88.1886ZM53.9154 89.4691L54.4351 93.2595C55.4253 93.116 56.4589 92.8931 57.522 92.519L57.704 93.1132C56.5296 93.5218 55.4472 93.7553 54.3762 93.9022L53.8065 93.9803L53.2014 89.567L53.9154 89.4691ZM64.7176 87.3148L65.079 89.9507L66.1728 89.8007L66.254 90.3932L65.1602 90.5432L65.6528 94.1361L64.9312 94.2351L63.996 87.4138L64.7176 87.3148ZM62.9765 88.2191L63.0567 88.804L60.5956 89.1414L61.0465 92.4305C62.1892 92.27 63.0408 92.1029 63.9853 91.7954L64.1598 92.3906C63.1224 92.7263 62.2236 92.8882 60.9541 93.0545L60.4071 93.1295L59.7938 88.6554L62.9765 88.2191ZM67.7647 93.2275C67.4685 93.2681 67.1845 93.0594 67.1515 92.7621C67.1033 92.4669 67.3206 92.1894 67.6169 92.1488C67.9055 92.1093 68.1895 92.318 68.2301 92.6142C68.2707 92.9105 68.0534 93.1879 67.7647 93.2275ZM73.1284 89.8454L73.2898 91.0228C73.908 90.9033 74.5312 90.7636 75.1117 90.5951L75.2378 91.1195C73.7343 91.612 72.0881 91.8531 70.8727 92.0198L70.7003 91.4398C71.2467 91.361 71.8919 91.2687 72.5724 91.1521L72.4068 89.9444L73.1284 89.8454ZM74.2783 86.8863L74.3584 87.4712L72.8316 87.6806C72.979 88.4729 73.7194 89.0757 74.7748 89.2096L74.5176 89.8175C73.6731 89.6973 72.9977 89.2868 72.6048 88.679C72.3985 89.4038 71.873 90.0021 71.0849 90.35L70.6681 89.85C71.6426 89.4223 72.1828 88.6208 72.1024 87.7805L70.5984 87.9867L70.5182 87.4018L72.0298 87.1946L71.9184 86.3818L72.64 86.2829L72.7514 87.0957L74.2783 86.8863ZM75.6256 85.8194L76.5608 92.6407L75.8391 92.7396L74.904 85.9183L75.6256 85.8194ZM82.5608 84.8686L83.4939 91.6747L82.8027 91.7694L82.3205 88.2525L81.4393 88.3733L81.8736 91.5408L81.2127 91.6314L80.3463 85.3115L81.0072 85.2209L81.3581 87.7808L82.2393 87.66L81.8696 84.9634L82.5608 84.8686ZM79.6121 86.1087L79.6922 86.6936L77.8616 86.9445L78.2938 90.0969C79.1283 89.9748 79.7536 89.8503 80.464 89.6136L80.5984 90.1988C79.801 90.4784 79.1063 90.6046 78.1123 90.7486L77.6565 90.8111L77.0598 86.4586L79.6121 86.1087ZM91.1386 86.2464L91.2167 86.8161L86.5983 87.4493L86.2296 84.7603L90.7645 84.1386L90.8447 84.7235L87.0391 85.2452L87.2494 86.7796L91.1386 86.2464ZM92.0974 87.5389L92.1776 88.1238L89.3975 88.505L89.713 90.8066L89.0066 90.9034L88.691 88.6018L85.9488 88.9778L85.8687 88.3929L92.0974 87.5389ZM98.6527 85.5103L98.7319 86.0876L95.9821 86.4646L96.0654 87.0723L98.0328 86.8026L98.2536 88.413L94.2884 88.9566L94.3696 89.5491L98.5247 88.9794L98.6007 89.5339L93.7392 90.2004L93.5112 88.5369L97.4687 87.9943L97.3927 87.4398L93.4276 87.9834L93.3536 87.4441L95.3514 87.1702L95.2681 86.5625L92.5259 86.9385L92.4467 86.3612L98.6527 85.5103ZM97.7452 83.0113L97.8233 83.581L95.7116 83.8705C95.9377 84.447 96.9712 84.789 98.2278 84.7251L98.0673 85.3043C96.8786 85.355 95.8447 85.0672 95.346 84.4778C95.0205 85.1802 94.106 85.7351 92.9551 86.0051L92.6523 85.4894C93.8682 85.2144 94.7684 84.6112 94.838 83.9903L92.7415 84.2777L92.6634 83.708L97.7452 83.0113ZM105.753 87.1758L105.836 87.7835L99.6077 88.6375L99.5244 88.0298L102.267 87.6538L102.103 86.4612L100.12 86.7331L99.8237 84.5682L103.819 84.0204L103.688 83.0633L99.6773 83.6131L99.5961 83.0207L104.321 82.3729L104.612 84.4998L100.617 85.0476L100.753 86.0427L104.908 85.473L104.99 86.0655L102.817 86.3634L102.981 87.5559L105.753 87.1758ZM109.953 82.3592C110.072 83.2251 110.785 83.9708 111.874 84.1776L111.586 84.7897C110.779 84.6295 110.14 84.1754 109.752 83.5475C109.557 84.325 109.047 84.983 108.284 85.3739L107.82 84.8649C108.833 84.3545 109.352 83.3935 109.23 82.4505L109.205 82.2682L107.709 82.4734L107.629 81.8885L111.313 81.3834L111.393 81.9683L109.927 82.1693L109.953 82.3592ZM112.755 80.729L112.995 82.4761L113.982 82.3407L114.066 82.9484L113.078 83.0838L113.318 84.8309L112.596 84.9298L112.034 80.828L112.755 80.729ZM113.363 85.1651L113.688 87.5351L112.967 87.634L112.722 85.849L108.947 86.3665L108.867 85.7816L113.363 85.1651ZM116.685 81.2272C116.816 82.1843 117.548 82.9507 118.627 83.1433L118.309 83.7596C117.524 83.5925 116.902 83.1439 116.512 82.5047C116.323 83.3239 115.813 84.009 115.033 84.4177L114.567 83.8935C115.602 83.3724 116.108 82.382 115.975 81.3555L115.884 80.6871L116.598 80.5892L116.685 81.2272ZM119.804 79.7626L120.355 83.7809L119.634 83.8799L119.354 81.8365L117.918 82.0333L117.837 81.4408L119.272 81.244L119.083 79.8615L119.804 79.7626ZM118.102 84.2832C119.531 84.0875 120.469 84.4387 120.582 85.2666C120.695 86.087 119.886 86.6777 118.457 86.8659C117.03 87.0693 116.084 86.7191 115.979 85.8977C115.858 85.0708 116.674 84.479 118.102 84.2832ZM118.18 84.8454C117.184 84.9818 116.628 85.3289 116.693 85.7998C116.755 86.2556 117.383 86.4326 118.378 86.2962C119.374 86.1598 119.931 85.8203 119.868 85.3645C119.804 84.8936 119.175 84.7089 118.18 84.8454ZM126.197 78.863L126.416 80.4581L127.411 80.3217L127.492 80.9142L126.497 81.0506L126.711 82.6078L125.989 82.7068L125.476 78.9619L126.197 78.863ZM126.754 82.9269L126.971 84.5068L123.294 85.0109L123.373 85.5806L127.285 85.0443L127.359 85.5912L122.741 86.2244L122.518 84.5988L126.187 84.0958L126.114 83.5641L122.43 84.0691L122.356 83.5298L126.754 82.9269ZM124.996 79.639L125.074 80.2087L121.017 80.7649L120.939 80.1951L122.611 79.966L122.523 79.328L123.245 79.229L123.332 79.8671L124.996 79.639ZM123.081 80.7451C124.076 80.6086 124.788 80.9445 124.882 81.6357C124.977 82.3269 124.381 82.8343 123.386 82.9707C122.384 83.1082 121.673 82.78 121.578 82.0887C121.483 81.3975 122.078 80.8825 123.081 80.7451ZM123.152 81.2616C122.567 81.3418 122.219 81.6293 122.277 81.9929C122.319 82.3586 122.729 82.5268 123.314 82.4466C123.899 82.3664 124.249 82.094 124.206 81.7284C124.149 81.3648 123.737 81.1814 123.152 81.2616ZM133.043 78.559C133.159 79.464 134.385 80.1627 135.746 80.1541L135.546 80.7851C134.409 80.7592 133.35 80.3162 132.803 79.5747C132.465 80.4413 131.568 81.1487 130.487 81.4787L130.117 80.9258C131.43 80.5678 132.408 79.5747 132.291 78.6621L132.24 78.2899L132.992 78.1868L133.043 78.559ZM136.2 81.3765L136.281 81.969L133.516 82.3481L133.848 84.7712L133.142 84.8681L132.81 82.4449L130.075 82.8198L129.994 82.2273L136.2 81.3765ZM137.823 83.6226C137.527 83.6632 137.243 83.4545 137.21 83.1572C137.162 82.862 137.379 82.5846 137.676 82.544C137.964 82.5044 138.248 82.7131 138.289 83.0094C138.329 83.3056 138.112 83.5831 137.823 83.6226ZM139.874 83.3414C139.578 83.3821 139.294 83.1734 139.261 82.8761C139.213 82.5809 139.43 82.3034 139.726 82.2628C140.015 82.2232 140.299 82.4319 140.34 82.7282C140.38 83.0244 140.163 83.3019 139.874 83.3414ZM141.925 83.0603C141.629 83.1009 141.345 82.8922 141.312 82.5949C141.264 82.2997 141.481 82.0222 141.777 81.9816C142.066 81.9421 142.35 82.1508 142.391 82.447C142.431 82.7433 142.214 83.0207 141.925 83.0603Z" fill="black" fill-opacity="0.5"/>
<path d="M26.0077 121.125L25.9179 120.471L27.4647 118.507C27.9033 117.929 28.1269 117.593 28.0686 117.168C28.0047 116.702 27.5946 116.453 27.1002 116.521C26.578 116.592 26.2886 116.965 26.3653 117.473L25.5018 117.591C25.3641 116.638 25.9963 115.92 27.006 115.782C28.0365 115.64 28.8168 116.158 28.9333 117.007C29.0116 117.578 28.7961 118.076 27.9352 119.144L27.1592 120.159L27.1639 120.194L29.4061 119.886L29.5101 120.645L26.0077 121.125ZM32.1726 120.351C30.961 120.517 30.108 119.677 29.8817 118.026C29.6564 116.383 30.2508 115.337 31.4623 115.171C32.667 115.005 33.5279 115.852 33.7532 117.496C33.9794 119.146 33.3842 120.185 32.1726 120.351ZM32.0685 119.592C32.7022 119.505 33.0071 118.832 32.841 117.621C32.6759 116.416 32.1921 115.837 31.5654 115.923C30.9388 116.009 30.6287 116.697 30.7939 117.901C30.96 119.113 31.4349 119.679 32.0685 119.592ZM34.8577 119.912L34.768 119.258L36.3148 117.293C36.7534 116.715 36.9769 116.38 36.9187 115.955C36.8547 115.488 36.4447 115.24 35.9503 115.307C35.428 115.379 35.1387 115.752 35.2153 116.259L34.3519 116.378C34.2142 115.425 34.8464 114.707 35.856 114.568C36.8866 114.427 37.6669 114.944 37.7834 115.794C37.8616 116.365 37.6461 116.862 36.7853 117.931L36.0092 118.946L36.014 118.98L38.2561 118.673L38.3602 119.432L34.8577 119.912ZM40.953 119.147C39.9434 119.286 39.1232 118.788 38.9808 117.956L39.8651 117.835C39.9493 118.242 40.3723 118.482 40.8528 118.416C41.4168 118.339 41.7643 117.873 41.688 117.316C41.6087 116.738 41.1346 116.384 40.5567 116.463C40.1658 116.51 39.8994 116.688 39.7803 117.01L38.9378 117.125L38.8528 114.228L41.8329 113.82L41.937 114.579L39.7019 114.885L39.732 116.243L39.7807 116.236C39.9451 115.987 40.2922 115.776 40.703 115.72C41.643 115.591 42.4288 116.2 42.5615 117.168C42.6999 118.177 42.0393 118.998 40.953 119.147ZM43.9522 118.722C43.6528 118.763 43.3757 118.553 43.3346 118.253C43.2945 117.961 43.5048 117.684 43.8042 117.643C44.0897 117.604 44.3738 117.813 44.4139 118.105C44.4549 118.405 44.2377 118.683 43.9522 118.722ZM48.7308 118.081C47.5192 118.247 46.6662 117.406 46.4399 115.756C46.2146 114.113 46.809 113.067 48.0205 112.901C49.2251 112.735 50.0861 113.582 50.3114 115.225C50.5376 116.876 49.9423 117.915 48.7308 118.081ZM48.6267 117.322C49.2604 117.235 49.5653 116.562 49.3992 115.35C49.2341 114.146 48.7503 113.567 48.1236 113.653C47.497 113.738 47.1869 114.427 47.3521 115.631C47.5182 116.843 47.9931 117.409 48.6267 117.322ZM52.7719 112.32L53.4631 117.361L52.5509 117.486L51.981 113.329L51.9532 113.333L50.8795 114.247L50.7659 113.418L51.9016 112.439L52.7719 112.32ZM54.9747 117.211C54.6753 117.252 54.3982 117.042 54.3572 116.742C54.3171 116.45 54.5274 116.173 54.8268 116.132C55.1123 116.092 55.3963 116.302 55.4364 116.594C55.4775 116.894 55.2602 117.172 54.9747 117.211ZM59.7533 116.57C58.5417 116.736 57.6887 115.895 57.4625 114.245C57.2372 112.602 57.8315 111.556 59.0431 111.389C60.2477 111.224 61.1086 112.071 61.3339 113.714C61.5602 115.365 60.9649 116.404 59.7533 116.57ZM59.6493 115.811C60.2829 115.724 60.5879 115.051 60.4218 113.839C60.2566 112.635 59.7729 112.055 59.1462 112.141C58.5195 112.227 58.2095 112.915 58.3746 114.12C58.5407 115.332 59.0156 115.898 59.6493 115.811ZM63.7945 110.809L64.4856 115.85L63.5735 115.975L63.0036 111.818L62.9757 111.822L61.902 112.735L61.7884 111.907L62.9241 110.928L63.7945 110.809ZM65.9973 115.7C65.6979 115.741 65.4208 115.53 65.3797 115.231C65.3396 114.939 65.5499 114.661 65.8493 114.62C66.1348 114.581 66.4189 114.791 66.459 115.083C66.5 115.382 66.2828 115.661 65.9973 115.7Z" fill="black" fill-opacity="0.5"/>
</g>
<defs>
<filter id="filter0_d_354_8596" x="-13" y="-0.0703125" width="188.822" height="155.263" filterUnits="userSpaceOnUse" color-interpolation-filters="sRGB">
<feFlood flood-opacity="0" result="BackgroundImageFix"/>
<feColorMatrix in="SourceAlpha" type="matrix" values="0 0 0 0 0 0 0 0 0 0 0 0 0 0 0 0 0 0 127 0" result="hardAlpha"/>
<feOffset dy="2"/>
<feGaussianBlur stdDeviation="8"/>
<feComposite in2="hardAlpha" operator="out"/>
<feColorMatrix type="matrix" values="0 0 0 0 0 0 0 0 0 0 0 0 0 0 0 0 0 0 0.03 0"/>
<feBlend mode="normal" in2="BackgroundImageFix" result="effect1_dropShadow_354_8596"/>
<feBlend mode="normal" in="SourceGraphic" in2="effect1_dropShadow_354_8596" result="shape"/>
</filter>
<clipPath id="clip0_354_8596">
<rect width="7.85115" height="7.85115" fill="white" transform="translate(17.7774 44.9307) rotate(-7.80643)"/>
</clipPath>
</defs>
</svg>
