<svg width="177" height="136" viewBox="0 0 177 136" fill="none" xmlns="http://www.w3.org/2000/svg">
<g filter="url(#filter0_d_354_8597)">
<path d="M16.8736 18.2468C16.8736 15.3561 19.217 13.0127 22.1077 13.0127H155.577C158.468 13.0127 160.811 15.3561 160.811 18.2468V112.461C160.811 115.351 158.468 117.695 155.577 117.695H22.1077C19.217 117.695 16.8736 115.351 16.8736 112.461V18.2468Z" fill="white" shape-rendering="crispEdges"/>
<path d="M27.3418 26.0975C27.3418 24.6522 28.5135 23.4805 29.9589 23.4805H73.4271C74.8724 23.4805 76.0441 24.6522 76.0441 26.0975V34.4805C76.0441 35.9258 74.8724 37.0975 73.4271 37.0975H29.9589C28.5135 37.0975 27.3418 35.9258 27.3418 34.4805V26.0975Z" fill="#49CC90" fill-opacity="0.2"/>
<g clip-path="url(#clip0_354_8597)">
<path d="M32.9031 30.2889L33.5573 30.9432L34.8659 29.6346M37.1558 30.2889C37.1558 32.0956 35.6912 33.5602 33.8845 33.5602C32.0778 33.5602 30.6132 32.0956 30.6132 30.2889C30.6132 28.4822 32.0778 27.0176 33.8845 27.0176C35.6912 27.0176 37.1558 28.4822 37.1558 30.2889Z" stroke="#49CC90" stroke-width="0.654262" stroke-linecap="round" stroke-linejoin="round"/>
</g>
<path d="M43.2243 27.792V28.4105H41.5937V29.4999H42.9572V30.1043H41.5937V31.3342C42.3493 31.3272 42.8694 31.2921 43.4914 31.1866L43.5616 31.8121C42.8307 31.9527 42.2263 31.9668 41.2634 31.9668H40.8488V27.792H43.2243ZM46.1199 27.0611V33.4146H45.3609V27.0611H46.1199ZM44.7846 27.1876V33.1053H44.0536V30.041H43.2665V29.4085H44.0536V27.1876H44.7846ZM50.14 27.9326C50.14 28.9165 51.1029 29.9005 52.4312 30.1324L52.0798 30.786C51.0151 30.5611 50.1436 29.918 49.7324 29.0641C49.3107 29.911 48.4392 30.5576 47.378 30.786L47.0336 30.1324C48.3479 29.8934 49.3037 28.9095 49.3107 27.9326V27.4617H50.14V27.9326ZM52.6632 31.9597V32.6063H46.8579V31.9597H52.6632ZM58.2436 30.3924V31.0109H53.7877V27.5601H58.1873V28.1926H54.5819V28.9587H58.0398V29.5701H54.5819V30.3924H58.2436ZM58.8831 32.0019V32.6415H53.0778V32.0019H58.8831ZM62.9244 27.3352C63.8521 27.3352 64.5127 27.8482 64.5198 28.6143C64.5127 29.2433 64.0383 29.7177 63.332 29.8513V30.3643C63.8591 30.3362 64.3897 30.287 64.8852 30.2167L64.9485 30.786C63.6272 31.025 62.1513 31.0461 61.0759 31.0461L60.9916 30.4206C61.4484 30.4241 61.9826 30.4206 62.5448 30.3995V29.8513C61.8174 29.7318 61.329 29.2539 61.336 28.6143C61.329 27.8482 61.9896 27.3352 62.9244 27.3352ZM62.9244 27.9326C62.4183 27.9326 62.0599 28.1856 62.0669 28.6143C62.0599 29.029 62.4183 29.289 62.9244 29.296C63.4304 29.289 63.7748 29.029 63.7818 28.6143C63.7748 28.1856 63.4304 27.9326 62.9244 27.9326ZM66.0378 27.0681V29.1203H66.8953V29.7669H66.0378V31.9176H65.2577V27.0681H66.0378ZM66.2628 32.6485V33.281H61.8631V31.4888H62.6432V32.6485H66.2628ZM73.0309 32.03V32.6766H67.2256V32.03H68.7648V30.9828H67.9144V28.9095H71.5691V28.1294H67.9003V27.4968H72.3422V29.535H68.6945V30.3503H72.4897V30.9828H71.562V32.03H73.0309ZM69.5238 32.03H70.7959V30.9828H69.5238V32.03Z" fill="#49CC90"/>
<path d="M143.8 30.7249C144.041 30.7249 144.237 30.5296 144.237 30.2887C144.237 30.0478 144.041 29.8525 143.8 29.8525C143.56 29.8525 143.364 30.0478 143.364 30.2887C143.364 30.5296 143.56 30.7249 143.8 30.7249Z" stroke="black" stroke-opacity="0.3" stroke-width="0.87235" stroke-linecap="round" stroke-linejoin="round"/>
<path d="M146.854 30.7249C147.095 30.7249 147.29 30.5296 147.29 30.2887C147.29 30.0478 147.095 29.8525 146.854 29.8525C146.613 29.8525 146.418 30.0478 146.418 30.2887C146.418 30.5296 146.613 30.7249 146.854 30.7249Z" stroke="black" stroke-opacity="0.3" stroke-width="0.87235" stroke-linecap="round" stroke-linejoin="round"/>
<path d="M140.747 30.7249C140.988 30.7249 141.183 30.5296 141.183 30.2887C141.183 30.0478 140.988 29.8525 140.747 29.8525C140.506 29.8525 140.311 30.0478 140.311 30.2887C140.311 30.5296 140.506 30.7249 140.747 30.7249Z" stroke="black" stroke-opacity="0.3" stroke-width="0.87235" stroke-linecap="round" stroke-linejoin="round"/>
<path d="M36.1335 53.1053V54.1889H27.6178V53.1053H36.1335ZM35.4179 46.7876V47.8303H34.1094V50.6518H35.377V51.6741H28.3232V50.6518H29.5704V47.8303H28.2823V46.7876H35.4179ZM30.8789 50.6518H32.8213V47.8303H30.8789V50.6518ZM45.1807 53.1666V54.24H36.6651V53.1666H40.2533V51.7661H37.6465V48.6379H42.9112V47.6156H37.6362V46.5729H44.1993V49.6602H38.955V50.7029H44.414V51.7661H41.5516V53.1666H45.1807ZM51.8562 46.1538V51.5923H50.6192V49.3228H49.5867V48.2699H50.6192V46.1538H51.8562ZM48.6462 47.9734C48.6462 48.9548 49.1369 49.926 50.333 50.386L49.6787 51.3879C48.8865 51.0812 48.3498 50.5291 48.0329 49.8544C47.6904 50.6109 47.1179 51.2294 46.2643 51.5719L45.5794 50.5394C46.8572 50.0589 47.3786 48.9957 47.3786 47.9632V47.6872H45.8963V46.6445H50.0365V47.6872H48.6462V47.9734ZM53.7065 45.9697V51.6434H52.4696V45.9697H53.7065ZM53.7065 51.9808V55.2725H52.4082V53.0133H47.2764V51.9808H53.7065ZM62.3449 50.7745V51.807H55.7613V46.6547H62.2733V47.7076H57.0903V48.689H62.0586V49.7113H57.0903V50.7745H62.3449ZM63.2751 53.1257V54.1889H54.7595V53.1257H63.2751ZM70.9934 46.7365V47.7996H67.9061V49.3331H70.8605V50.3553H67.9061V52.1137C69.2402 52.1035 70.3238 52.0472 71.5659 51.8479L71.6885 52.9008C70.2676 53.1155 68.9999 53.1564 67.3745 53.1564H66.5873V46.7365H70.9934ZM73.5593 45.9697V49.4966H74.9292V50.5905H73.5593V55.2725H72.2508V45.9697H73.5593ZM83.0563 45.9697V55.293H81.7376V45.9697H83.0563ZM78.0063 46.624C79.4068 46.624 80.4495 47.9121 80.4495 49.9362C80.4495 51.9808 79.4068 53.2586 78.0063 53.2586C76.5751 53.2586 75.5323 51.9808 75.5426 49.9362C75.5323 47.9121 76.5751 46.624 78.0063 46.624ZM78.0063 47.7996C77.2804 47.7996 76.8 48.5561 76.8 49.9362C76.8 51.3265 77.2804 52.0728 78.0063 52.0728C78.7116 52.0728 79.1921 51.3265 79.1921 49.9362C79.1921 48.5561 78.7116 47.7996 78.0063 47.7996ZM91.8889 48.8117V49.7011H85.3565V46.164H91.8071V47.0431H86.665V47.4929H91.5924V48.3517H86.665V48.8117H91.8889ZM92.7783 50.1407V51.1118H84.3342V50.1407H92.7783ZM91.7662 51.5514V53.7902H86.5832V54.2809H92.0116V55.2112H85.3054V52.9111H90.4781V52.4613H85.2951V51.5514H91.7662Z" fill="black"/>
<path d="M33.8819 69.1288V69.7422H27.5948V69.1288H33.8819ZM33.3069 64.3905V64.9886H32.2565V67.2811H33.2839V67.8638H28.1469V67.2811H29.1743V64.9886H28.1315V64.3905H33.3069ZM29.895 67.2811H31.5434V64.9886H29.895V67.2811ZM40.6673 69.1672V69.7805H34.3803V69.1672H37.1481V67.9634H35.147V65.7783H39.1799V64.8122H35.1316V64.2142H39.9006V66.361H35.8677V67.3654H40.0616V67.9634H37.8688V69.1672H40.6673ZM45.6739 63.8768V67.8714H44.9839V66.0696H44.0255V65.4793H44.9839V63.8768H45.6739ZM43.2435 65.2033C43.2435 65.947 43.6958 66.7214 44.5699 67.0817L44.2019 67.6414C43.577 67.3846 43.1476 66.9092 42.9061 66.3457C42.6608 66.9782 42.2084 67.5111 41.5414 67.7948L41.1503 67.2197C42.0627 66.8517 42.5381 66.0006 42.5381 65.2033V64.8659H41.319V64.2755H44.3935V64.8659H43.2435V65.2033ZM47.0234 63.7312V67.9251H46.3333V63.7312H47.0234ZM47.0234 68.2088V70.6009H46.3027V68.7991H42.3541V68.2088H47.0234ZM53.5251 67.3884V67.9711H48.7408V64.2985H53.4561V64.8889H49.4768V65.8166H53.3104V66.3917H49.4768V67.3884H53.5251ZM54.2381 69.1365V69.7345H47.9511V69.1365H54.2381ZM62.9403 69.1365V69.7422H56.6533V69.1365H58.156V67.3424C57.5925 67.0319 57.2513 66.5373 57.2513 65.924C57.2513 64.8429 58.3094 64.1299 59.7815 64.1299C61.2612 64.1299 62.3193 64.8429 62.3193 65.924C62.3193 66.5297 61.9896 67.0165 61.4376 67.3271V69.1365H62.9403ZM59.7815 64.7126C58.7004 64.7126 57.9567 65.1803 57.9567 65.924C57.9567 66.66 58.7004 67.143 59.7815 67.143C60.8549 67.143 61.6139 66.66 61.6139 65.924C61.6139 65.1803 60.8549 64.7126 59.7815 64.7126ZM58.8768 69.1365H60.7015V67.6031C60.4217 67.6759 60.1112 67.7104 59.7815 67.7104C59.4595 67.7104 59.1528 67.6759 58.8768 67.6107V69.1365ZM69.8101 64.7356V65.3336H68.8364V66.2077H69.8101V66.821H68.8364V67.8024H68.108V63.7312H68.8364V64.7356H69.8101ZM68.8364 68.1091V70.6009H68.108V68.6995H64.2974V68.1091H68.8364ZM65.3708 64.1299C66.4212 64.1299 67.1956 64.8046 67.2033 65.7706C67.1956 66.7367 66.4212 67.4114 65.3708 67.4114C64.3204 67.4114 63.5384 66.7367 63.546 65.7706C63.5384 64.8046 64.3204 64.1299 65.3708 64.1299ZM65.3708 64.7509C64.7268 64.7509 64.2514 65.1573 64.2591 65.7706C64.2514 66.3917 64.7268 66.798 65.3708 66.7904C66.0149 66.798 66.4902 66.3917 66.4902 65.7706C66.4902 65.1573 66.0149 64.7509 65.3708 64.7509ZM75.9208 63.7312V67.4191H75.1924V63.7312H75.9208ZM72.1409 67.7488V68.5231H75.2001V67.7488H75.9208V70.5166H71.4279V67.7488H72.1409ZM72.1409 69.9186H75.2001V69.0982H72.1409V69.9186ZM72.1946 64.0455C73.245 64.0455 74.0193 64.6972 74.0193 65.6403C74.0193 66.5833 73.245 67.2351 72.1946 67.2274C71.1442 67.2351 70.3621 66.5833 70.3621 65.6403C70.3621 64.6972 71.1442 64.0455 72.1946 64.0455ZM72.1946 64.6589C71.5429 64.6512 71.0752 65.0576 71.0752 65.6403C71.0752 66.2307 71.5429 66.6293 72.1946 66.6293C72.8386 66.6293 73.3063 66.2307 73.3063 65.6403C73.3063 65.0576 72.8386 64.6512 72.1946 64.6589ZM82.7139 63.7312V70.6009H81.9855V63.7312H82.7139ZM78.1519 64.3982V68.2241C79.1525 68.2164 80.2067 68.1359 81.3108 67.9098L81.4105 68.5231C80.1914 68.7685 79.0873 68.8528 78.0063 68.8528H77.4312V64.3982H78.1519ZM89.1466 63.7312V66.3917H90.2507V66.9897H89.1466V70.6163H88.4182V63.7312H89.1466ZM87.2988 64.3905V64.9809H84.8147V68.3008C85.9686 68.297 86.835 68.2471 87.8125 68.0708L87.9045 68.6841C86.8311 68.8758 85.9187 68.9142 84.6383 68.9065H84.0863V64.3905H87.2988ZM91.3624 70.0029C91.0634 70.0029 90.8104 69.7575 90.818 69.4585C90.8104 69.1595 91.0634 68.9142 91.3624 68.9142C91.6538 68.9142 91.9068 69.1595 91.9068 69.4585C91.9068 69.7575 91.6538 70.0029 91.3624 70.0029ZM97.1358 67.3807V68.5691C97.7645 68.5346 98.4008 68.481 98.9989 68.3928L99.0525 68.9295C97.4961 69.2132 95.8323 69.2285 94.6056 69.2285L94.5136 68.6305C95.0656 68.6266 95.7173 68.6228 96.4074 68.5998V67.3807H97.1358ZM98.6768 64.6052V65.1956H97.1358C97.1741 66.0006 97.8258 66.6984 98.8532 66.9744L98.5158 67.5417C97.6955 67.3079 97.0821 66.8095 96.7754 66.154C96.4725 66.844 95.8707 67.3654 95.0426 67.6031L94.6976 67.051C95.7212 66.7597 96.3652 66.039 96.3997 65.1956H94.8816V64.6052H96.4074V63.7848H97.1358V64.6052H98.6768ZM100.157 63.7312V70.6163H99.4282V63.7312H100.157ZM107.157 63.7312V70.6009H106.459V67.051H105.57V70.2482H104.903V63.8692H105.57V66.453H106.459V63.7312H107.157ZM104.067 64.5592V65.1496H102.219V68.3315C103.062 68.3238 103.699 68.2855 104.435 68.1474L104.489 68.7455C103.66 68.9142 102.955 68.9448 101.951 68.9525H101.491V64.5592H104.067ZM115.468 66.2613V66.8364H110.806V64.1222H115.384V64.7126H111.542V66.2613H115.468ZM116.242 67.6721V68.2624H113.436V70.5856H112.723V68.2624H109.955V67.6721H116.242ZM123.012 66.5527V67.1354H120.237V67.7488H122.223V69.3742H118.22V69.9722H122.414V70.5319H117.507V68.8528H121.502V68.2931H117.5V67.7488H119.516V67.1354H116.748V66.5527H123.012ZM122.453 63.9535V64.5286H120.321C120.467 65.1304 121.444 65.6096 122.698 65.717L122.46 66.269C121.276 66.1578 120.291 65.7323 119.876 65.0806C119.459 65.7323 118.477 66.1578 117.3 66.269L117.07 65.717C118.312 65.6096 119.286 65.1343 119.439 64.5286H117.323V63.9535H122.453ZM129.821 69.1672V69.7805H123.534V69.1672H126.302V67.9634H124.3V65.7783H128.333V64.8122H124.285V64.2142H129.054V66.361H125.021V67.3654H129.215V67.9634H127.022V69.1672H129.821ZM134.636 64.9656C134.636 65.8396 135.241 66.6754 136.292 67.028L135.924 67.5954C135.146 67.3271 134.574 66.7904 134.275 66.1157C133.976 66.8594 133.382 67.4421 132.573 67.7257L132.182 67.1584C133.256 66.7904 133.9 65.9086 133.907 64.9579V64.7739H132.397V64.1835H136.115V64.7739H134.636V64.9656ZM137.634 63.7312V65.4946H138.63V66.108H137.634V67.8714H136.905V63.7312H137.634ZM137.634 68.2088V70.6009H136.905V68.7991H133.095V68.2088H137.634ZM141.459 64.7586C141.459 65.7246 142.081 66.5833 143.123 66.9207L142.725 67.4881C141.969 67.2159 141.413 66.6869 141.114 66.0006C140.815 66.7865 140.217 67.3961 139.389 67.6951L138.998 67.1124C140.095 66.7367 140.731 65.8243 140.739 64.7892V64.1145H141.459V64.7586ZM144.749 63.7312V67.7871H144.02V65.7246H142.571V65.1266H144.02V63.7312H144.749ZM142.449 67.9788C143.89 67.9788 144.772 68.4541 144.772 69.2898C144.772 70.1179 143.89 70.5933 142.449 70.5856C141.007 70.5933 140.118 70.1179 140.125 69.2898C140.118 68.4541 141.007 67.9788 142.449 67.9788ZM142.449 68.5461C141.444 68.5461 140.846 68.8145 140.846 69.2898C140.846 69.7499 141.444 70.0106 142.449 70.0106C143.453 70.0106 144.051 69.7499 144.051 69.2898C144.051 68.8145 143.453 68.5461 142.449 68.5461ZM32.9925 74.7082V76.3183H33.9969V76.9163H32.9925V78.4881H32.2641V74.7082H32.9925ZM32.9925 78.8101V80.4049H29.2816V80.9799H33.2302V81.5319H28.5686V79.8912H32.2718V79.3545H28.5532V78.8101H32.9925ZM31.6968 75.3139V75.8889H27.6025V75.3139H29.2893V74.6698H30.0177V75.3139H31.6968ZM29.6496 76.1496C30.654 76.1496 31.3134 76.579 31.3134 77.2767C31.3134 77.9744 30.654 78.3961 29.6496 78.3961C28.6376 78.3961 27.9782 77.9744 27.9782 77.2767C27.9782 76.579 28.6376 76.1496 29.6496 76.1496ZM29.6496 76.671C29.0593 76.671 28.6759 76.9086 28.6836 77.2767C28.6759 77.6447 29.0593 77.867 29.6496 77.867C30.24 77.867 30.6234 77.6447 30.631 77.2767C30.6234 76.9086 30.24 76.671 29.6496 76.671ZM39.8163 75.3369C39.8086 76.2493 40.928 77.108 42.2774 77.2843L41.9937 77.8824C40.8705 77.7022 39.8814 77.1195 39.4406 76.3106C38.9882 77.1233 38.003 77.7022 36.8874 77.8824L36.5961 77.2843C37.9455 77.108 39.0495 76.2569 39.0572 75.3369V74.9612H39.8163V75.3369ZM42.5611 78.5571V79.1551H39.7703V81.6009H39.0572V79.1551H36.297V78.5571H42.5611ZM47.3837 79.2701C47.3837 79.8605 47.6751 80.4854 48.2961 80.8572C48.9286 80.4547 49.2392 79.7953 49.2392 79.2701V78.9404H49.9522V79.2701C49.9522 79.9832 50.4199 80.6732 51.317 80.9646L50.9566 81.5013C50.2781 81.2674 49.818 80.8112 49.5765 80.2438C49.358 80.7997 48.9478 81.3019 48.3191 81.5626C47.6597 81.3134 47.2419 80.8265 47.031 80.2668C46.7818 80.8074 46.3295 81.2636 45.6816 81.5013L45.3136 80.9646C46.1953 80.6502 46.6707 79.9372 46.6783 79.2701V78.9404H47.3837V79.2701ZM50.6959 74.7388V78.6491H49.9675V74.7388H50.6959ZM46.9697 75.1145C48.0201 75.1145 48.7945 75.7816 48.7945 76.74C48.7945 77.6907 48.0201 78.3501 46.9697 78.3501C45.9193 78.3501 45.1372 77.6907 45.1372 76.74C45.1372 75.7816 45.9193 75.1145 46.9697 75.1145ZM46.9697 75.7356C46.318 75.7279 45.8503 76.1343 45.8503 76.74C45.8503 77.338 46.318 77.7444 46.9697 77.7444C47.6137 77.7444 48.0814 77.338 48.0814 76.74C48.0814 76.1343 47.6137 75.7279 46.9697 75.7356ZM53.2797 78.8484V79.5768H56.5076V78.8484H57.236V81.5166H52.559V78.8484H53.2797ZM53.2797 80.9339H56.5076V80.1442H53.2797V80.9339ZM58.0487 77.8134V78.4191H51.7847V77.8134H58.0487ZM55.2885 75.0992C55.2885 75.8889 56.3849 76.6556 57.7037 76.8166L57.443 77.3917C56.3274 77.2345 55.3575 76.7093 54.9205 75.9809C54.472 76.7131 53.4983 77.2345 52.398 77.3917L52.122 76.8166C53.4561 76.648 54.5448 75.9119 54.5448 75.0992V74.8078H55.2885V75.0992ZM64.2744 74.7312V81.6009H63.546V74.7312H64.2744ZM59.7125 75.3982V79.2241C60.713 79.2164 61.7673 79.1359 62.8713 78.9098L62.971 79.5231C61.7519 79.7685 60.6479 79.8528 59.5668 79.8528H58.9918V75.3982H59.7125ZM70.7071 74.7312V77.3917H71.8112V77.9897H70.7071V81.6163H69.9788V74.7312H70.7071ZM68.8594 75.3905V75.9809H66.3752V79.3008C67.5291 79.297 68.3955 79.2471 69.3731 79.0708L69.4651 79.6841C68.3917 79.8758 67.4793 79.9142 66.1989 79.9065H65.6468V75.3905H68.8594ZM72.9229 81.0029C72.6239 81.0029 72.3709 80.7575 72.3786 80.4585C72.3709 80.1595 72.6239 79.9142 72.9229 79.9142C73.2143 79.9142 73.4673 80.1595 73.4673 80.4585C73.4673 80.7575 73.2143 81.0029 72.9229 81.0029ZM78.6963 78.3807V79.5691C79.325 79.5346 79.9614 79.481 80.5594 79.3928L80.6131 79.9295C79.0567 80.2132 77.3929 80.2285 76.1661 80.2285L76.0741 79.6305C76.6262 79.6266 77.2779 79.6228 77.9679 79.5998V78.3807H78.6963ZM80.2374 75.6052V76.1956H78.6963C78.7346 77.0006 79.3863 77.6984 80.4137 77.9744L80.0764 78.5417C79.256 78.3079 78.6426 77.8095 78.3359 77.154C78.0331 77.844 77.4312 78.3654 76.6032 78.6031L76.2581 78.051C77.2817 77.7597 77.9258 77.039 77.9603 76.1956H76.4422V75.6052H77.9679V74.7848H78.6963V75.6052H80.2374ZM81.7171 74.7312V81.6163H80.9888V74.7312H81.7171ZM88.7172 74.7312V81.6009H88.0195V78.051H87.1301V81.2482H86.4631V74.8692H87.1301V77.453H88.0195V74.7312H88.7172ZM85.6274 75.5592V76.1496H83.7796V79.3315C84.623 79.3238 85.2594 79.2855 85.9954 79.1474L86.0491 79.7455C85.221 79.9142 84.5157 79.9448 83.5113 79.9525H83.0512V75.5592H85.6274ZM97.0284 77.2613V77.8364H92.3668V75.1222H96.9441V75.7126H93.1028V77.2613H97.0284ZM97.8028 78.6721V79.2624H94.9966V81.5856H94.2836V79.2624H91.5157V78.6721H97.8028ZM104.573 77.5527V78.1354H101.797V78.7488H103.783V80.3742H99.7809V80.9722H103.975V81.5319H99.0679V79.8528H103.062V79.2931H99.0602V78.7488H101.077V78.1354H98.3088V77.5527H104.573ZM104.013 74.9535V75.5286H101.882C102.027 76.1304 103.005 76.6096 104.259 76.717L104.021 77.269C102.836 77.1578 101.851 76.7323 101.437 76.0806C101.019 76.7323 100.038 77.1578 98.8609 77.269L98.6309 76.717C99.8729 76.6096 100.847 76.1343 101 75.5286H98.8839V74.9535H104.013ZM111.381 80.1672V80.7805H105.094V80.1672H107.862V78.9634H105.861V76.7783H109.894V75.8122H105.846V75.2142H110.615V77.361H106.582V78.3654H110.776V78.9634H108.583V80.1672H111.381ZM116.196 75.9656C116.196 76.8396 116.802 77.6754 117.852 78.028L117.484 78.5954C116.706 78.3271 116.135 77.7904 115.836 77.1157C115.537 77.8594 114.943 78.4421 114.134 78.7257L113.743 78.1584C114.816 77.7904 115.46 76.9086 115.468 75.9579V75.7739H113.957V75.1835H117.676V75.7739H116.196V75.9656ZM119.194 74.7312V76.4946H120.191V77.108H119.194V78.8714H118.466V74.7312H119.194ZM119.194 79.2088V81.6009H118.466V79.7991H114.655V79.2088H119.194ZM123.02 75.7586C123.02 76.7246 123.641 77.5833 124.684 77.9207L124.285 78.4881C123.53 78.2159 122.974 77.6869 122.675 77.0006C122.376 77.7865 121.778 78.3961 120.95 78.6951L120.559 78.1124C121.655 77.7367 122.292 76.8243 122.299 75.7892V75.1145H123.02V75.7586ZM126.309 74.7312V78.7871H125.581V76.7246H124.132V76.1266H125.581V74.7312H126.309ZM124.009 78.9788C125.45 78.9788 126.332 79.4541 126.332 80.2898C126.332 81.1179 125.45 81.5933 124.009 81.5856C122.568 81.5933 121.678 81.1179 121.686 80.2898C121.678 79.4541 122.568 78.9788 124.009 78.9788ZM124.009 79.5461C123.005 79.5461 122.407 79.8145 122.407 80.2898C122.407 80.7499 123.005 81.0106 124.009 81.0106C125.013 81.0106 125.611 80.7499 125.611 80.2898C125.611 79.8145 125.013 79.5461 124.009 79.5461ZM132.765 74.7082V76.3183H133.769V76.9163H132.765V78.4881H132.037V74.7082H132.765ZM132.765 78.8101V80.4049H129.054V80.9799H133.003V81.5319H128.341V79.8912H132.044V79.3545H128.326V78.8101H132.765ZM131.469 75.3139V75.8889H127.375V75.3139H129.062V74.6698H129.79V75.3139H131.469ZM129.422 76.1496C130.426 76.1496 131.086 76.579 131.086 77.2767C131.086 77.9744 130.426 78.3961 129.422 78.3961C128.41 78.3961 127.751 77.9744 127.751 77.2767C127.751 76.579 128.41 76.1496 129.422 76.1496ZM129.422 76.671C128.832 76.671 128.448 76.9086 128.456 77.2767C128.448 77.6447 128.832 77.867 129.422 77.867C130.012 77.867 130.396 77.6447 130.403 77.2767C130.396 76.9086 130.012 76.671 129.422 76.671ZM139.589 75.3369C139.581 76.2493 140.7 77.108 142.05 77.2843L141.766 77.8824C140.643 77.7022 139.654 77.1195 139.213 76.3106C138.761 77.1233 137.775 77.7022 136.66 77.8824L136.368 77.2843C137.718 77.108 138.822 76.2569 138.83 75.3369V74.9612H139.589V75.3369ZM142.334 78.5571V79.1551H139.543V81.6009H138.83V79.1551H136.069V78.5571H142.334ZM143.637 81.0029C143.338 81.0029 143.085 80.7575 143.093 80.4585C143.085 80.1595 143.338 79.9142 143.637 79.9142C143.928 79.9142 144.181 80.1595 144.181 80.4585C144.181 80.7575 143.928 81.0029 143.637 81.0029ZM145.707 81.0029C145.408 81.0029 145.155 80.7575 145.163 80.4585C145.155 80.1595 145.408 79.9142 145.707 79.9142C145.998 79.9142 146.251 80.1595 146.251 80.4585C146.251 80.7575 145.998 81.0029 145.707 81.0029ZM147.777 81.0029C147.478 81.0029 147.225 80.7575 147.233 80.4585C147.225 80.1595 147.478 79.9142 147.777 79.9142C148.069 79.9142 148.322 80.1595 148.322 80.4585C148.322 80.7575 148.069 81.0029 147.777 81.0029Z" fill="black" fill-opacity="0.5"/>
<path d="M27.7635 102.971V102.31L29.5627 100.574C30.0758 100.061 30.3429 99.7588 30.3429 99.3301C30.3429 98.8592 29.9704 98.557 29.4714 98.557C28.9443 98.557 28.6069 98.8873 28.6139 99.4004H27.7424C27.7354 98.4375 28.4593 97.812 29.4784 97.812C30.5186 97.812 31.2214 98.4305 31.2214 99.2879C31.2214 99.8642 30.9403 100.328 29.9423 101.27L29.0356 102.169V102.205H31.2987V102.971H27.7635ZM33.9765 103.041C32.7535 103.041 32.0226 102.092 32.0226 100.426C32.0226 98.7678 32.7535 97.812 33.9765 97.812C35.1923 97.812 35.9303 98.7678 35.9303 100.426C35.9303 102.092 35.1994 103.041 33.9765 103.041ZM33.9765 102.275C34.616 102.275 35.0096 101.649 35.0096 100.426C35.0096 99.2106 34.609 98.571 33.9765 98.571C33.3439 98.571 32.9433 99.2106 32.9433 100.426C32.9433 101.649 33.3369 102.275 33.9765 102.275ZM36.6964 102.971V102.31L38.4956 100.574C39.0087 100.061 39.2757 99.7588 39.2757 99.3301C39.2757 98.8592 38.9032 98.557 38.4042 98.557C37.8771 98.557 37.5398 98.8873 37.5468 99.4004H36.6753C36.6683 98.4375 37.3922 97.812 38.4113 97.812C39.4514 97.812 40.1542 98.4305 40.1542 99.2879C40.1542 99.8642 39.8731 100.328 38.8751 101.27L37.9685 102.169V102.205H40.2316V102.971H36.6964ZM42.839 103.041C41.8199 103.041 41.0749 102.437 41.0468 101.593H41.9394C41.9675 102.008 42.3541 102.303 42.839 102.303C43.4083 102.303 43.8159 101.888 43.8159 101.326C43.8159 100.743 43.3943 100.328 42.8109 100.328C42.4173 100.321 42.1292 100.462 41.9675 100.764H41.1171L41.4264 97.8823H44.4344V98.6484H42.1784L42.0238 99.9978H42.0729C42.2697 99.7729 42.6422 99.6112 43.0569 99.6112C44.0057 99.6112 44.7015 100.321 44.7015 101.298C44.7015 102.317 43.9354 103.041 42.839 103.041ZM45.8682 103.027C45.566 103.027 45.32 102.781 45.32 102.479C45.32 102.184 45.566 101.938 45.8682 101.938C46.1563 101.938 46.4094 102.184 46.4094 102.479C46.4094 102.781 46.1563 103.027 45.8682 103.027ZM50.6895 103.041C49.4666 103.041 48.7357 102.092 48.7357 100.426C48.7357 98.7678 49.4666 97.812 50.6895 97.812C51.9054 97.812 52.6434 98.7678 52.6434 100.426C52.6434 102.092 51.9124 103.041 50.6895 103.041ZM50.6895 102.275C51.3291 102.275 51.7227 101.649 51.7227 100.426C51.7227 99.2106 51.3221 98.571 50.6895 98.571C50.057 98.571 49.6564 99.2106 49.6564 100.426C49.6564 101.649 50.05 102.275 50.6895 102.275ZM55.4757 97.8823V102.971H54.555V98.7749H54.5269L53.3392 99.5339V98.6976L54.5972 97.8823H55.4757ZM56.9938 103.027C56.6916 103.027 56.4456 102.781 56.4456 102.479C56.4456 102.184 56.6916 101.938 56.9938 101.938C57.282 101.938 57.535 102.184 57.535 102.479C57.535 102.781 57.282 103.027 56.9938 103.027ZM61.8152 103.041C60.5923 103.041 59.8613 102.092 59.8613 100.426C59.8613 98.7678 60.5923 97.812 61.8152 97.812C63.0311 97.812 63.769 98.7678 63.769 100.426C63.769 102.092 63.0381 103.041 61.8152 103.041ZM61.8152 102.275C62.4548 102.275 62.8483 101.649 62.8483 100.426C62.8483 99.2106 62.4477 98.571 61.8152 98.571C61.1826 98.571 60.782 99.2106 60.782 100.426C60.782 101.649 61.1756 102.275 61.8152 102.275ZM66.6014 97.8823V102.971H65.6807V98.7749H65.6526L64.4648 99.5339V98.6976L65.7229 97.8823H66.6014ZM68.1195 103.027C67.8173 103.027 67.5713 102.781 67.5713 102.479C67.5713 102.184 67.8173 101.938 68.1195 101.938C68.4076 101.938 68.6607 102.184 68.6607 102.479C68.6607 102.781 68.4076 103.027 68.1195 103.027Z" fill="black" fill-opacity="0.5"/>
</g>
<defs>
<filter id="filter0_d_354_8597" x="0.873627" y="-0.987305" width="175.938" height="136.682" filterUnits="userSpaceOnUse" color-interpolation-filters="sRGB">
<feFlood flood-opacity="0" result="BackgroundImageFix"/>
<feColorMatrix in="SourceAlpha" type="matrix" values="0 0 0 0 0 0 0 0 0 0 0 0 0 0 0 0 0 0 127 0" result="hardAlpha"/>
<feOffset dy="2"/>
<feGaussianBlur stdDeviation="8"/>
<feComposite in2="hardAlpha" operator="out"/>
<feColorMatrix type="matrix" values="0 0 0 0 0 0 0 0 0 0 0 0 0 0 0 0 0 0 0.03 0"/>
<feBlend mode="normal" in2="BackgroundImageFix" result="effect1_dropShadow_354_8597"/>
<feBlend mode="normal" in="SourceGraphic" in2="effect1_dropShadow_354_8597" result="shape"/>
</filter>
<clipPath id="clip0_354_8597">
<rect width="7.85115" height="7.85115" fill="white" transform="translate(29.9589 26.3633)"/>
</clipPath>
</defs>
</svg>
