<svg width="48" height="19" viewBox="0 0 48 19" fill="none" xmlns="http://www.w3.org/2000/svg">
<g clip-path="url(#clip0_1819_8731)">
<path d="M40.8271 18.3013C39.9297 18.3013 39.1736 18.2029 38.559 18.0062C37.9566 17.8218 37.5017 17.5514 37.1944 17.1949C36.8871 16.8507 36.7334 16.4327 36.7334 15.941C36.7334 15.8549 36.7395 15.732 36.7518 15.5722C36.7641 15.4123 36.801 15.2341 36.8625 15.0374H39.7944C39.7821 15.0743 39.7698 15.1112 39.7575 15.148C39.7575 15.1849 39.7575 15.2218 39.7575 15.2587C39.7575 15.4308 39.8067 15.5722 39.9051 15.6828C40.0157 15.8057 40.1694 15.8979 40.3661 15.9594C40.5628 16.0209 40.8025 16.0516 41.0852 16.0516C41.5647 16.0516 41.9642 15.9655 42.2838 15.7934C42.6034 15.6336 42.8493 15.4 43.0214 15.0927C43.2058 14.7854 43.3349 14.4289 43.4086 14.0232C43.4332 13.8511 43.4578 13.6851 43.4824 13.5253C43.5193 13.3532 43.55 13.1934 43.5746 13.0459H43.4455C43.1874 13.3163 42.9046 13.5438 42.5973 13.7282C42.3022 13.9126 41.9826 14.0478 41.6384 14.1338C41.2942 14.2199 40.9316 14.2629 40.5505 14.2629C39.8743 14.2629 39.2843 14.1338 38.7802 13.8757C38.2885 13.6175 37.9074 13.2303 37.637 12.714C37.3788 12.1854 37.2497 11.5277 37.2497 10.7409C37.2497 10.5319 37.2559 10.3106 37.2682 10.0771C37.2927 9.84349 37.3296 9.59763 37.3788 9.33947C37.6615 7.76593 38.2147 6.60422 39.0384 5.85433C39.862 5.10444 40.8762 4.72949 42.081 4.72949C42.7448 4.72949 43.3164 4.86472 43.7959 5.13517C44.2876 5.39333 44.6564 5.78057 44.9023 6.29688H45.0314L45.5292 4.95077H48.0002L46.4512 13.765C46.2545 14.8469 45.9103 15.7197 45.4186 16.3835C44.9269 17.0473 44.2999 17.5329 43.5377 17.8403C42.7755 18.1476 41.872 18.3013 40.8271 18.3013ZM41.8781 11.9395C42.1978 11.9395 42.4866 11.8842 42.7448 11.7735C43.003 11.6506 43.2304 11.4846 43.4271 11.2757C43.6238 11.0667 43.7836 10.827 43.9065 10.5565C44.0295 10.2738 44.1217 9.96642 44.1831 9.63451C44.2077 9.45011 44.2261 9.30259 44.2384 9.19195C44.263 9.08131 44.2753 8.98296 44.2753 8.89691C44.2876 8.81086 44.2938 8.73095 44.2938 8.65719C44.2938 8.33757 44.2384 8.06097 44.1278 7.8274C44.0172 7.59382 43.8451 7.41557 43.6115 7.29264C43.3902 7.15741 43.1013 7.0898 42.7448 7.0898C42.3145 7.0898 41.9396 7.17585 41.62 7.34796C41.3126 7.52006 41.0606 7.77208 40.8639 8.10399C40.6795 8.42362 40.5505 8.817 40.4767 9.28415C40.4275 9.51772 40.3906 9.70827 40.3661 9.85578C40.3538 10.0033 40.3415 10.1262 40.3292 10.2246C40.3292 10.3106 40.3292 10.3905 40.3292 10.4643C40.3292 10.7716 40.3784 11.0359 40.4767 11.2572C40.575 11.4662 40.741 11.6322 40.9746 11.7551C41.2081 11.878 41.5093 11.9395 41.8781 11.9395Z" fill="currentColor"/>
<path d="M29.5279 14.8899C28.5691 14.8899 27.7454 14.7485 27.057 14.4658C26.3809 14.183 25.8584 13.7528 25.4896 13.175C25.1331 12.5972 24.9548 11.8719 24.9548 10.9991C24.9548 10.7532 24.9671 10.5073 24.9917 10.2615C25.0163 10.0033 25.0532 9.75129 25.1024 9.50543C25.2868 8.42362 25.6371 7.53236 26.1534 6.83164C26.6697 6.11863 27.3336 5.59002 28.1449 5.24581C28.9563 4.9016 29.8906 4.72949 30.9478 4.72949C31.9313 4.72949 32.7611 4.87086 33.4372 5.15361C34.1256 5.43635 34.6481 5.86662 35.0046 6.4444C35.3734 7.02219 35.5578 7.75364 35.5578 8.63875C35.5578 9.21654 35.4902 9.74515 35.3549 10.2246C35.232 10.704 35.0476 11.1404 34.8017 11.5338C34.5067 12.296 34.1133 12.9291 33.6216 13.4331C33.1299 13.9249 32.5459 14.2937 31.8698 14.5395C31.1937 14.7731 30.413 14.8899 29.5279 14.8899ZM29.7492 12.6955C30.2532 12.6955 30.6712 12.5972 31.0031 12.4005C31.3473 12.2038 31.6239 11.9211 31.8329 11.5523C32.0419 11.1712 32.1956 10.704 32.2939 10.1508C32.3554 9.8189 32.3984 9.56075 32.423 9.37635C32.4599 9.17966 32.4783 9.02599 32.4783 8.91535C32.4906 8.80471 32.4968 8.70636 32.4968 8.62031C32.4968 8.25151 32.4353 7.94418 32.3124 7.69832C32.1894 7.44016 31.9989 7.24961 31.7407 7.12668C31.4949 6.99145 31.1629 6.92384 30.745 6.92384C30.2409 6.92384 29.8168 7.02219 29.4726 7.21888C29.1407 7.41557 28.8702 7.70446 28.6613 8.08555C28.4523 8.45435 28.2986 8.91535 28.2003 9.46855C28.1388 9.80046 28.0896 10.0648 28.0527 10.2615C28.0282 10.4582 28.0097 10.6118 27.9974 10.7225C27.9851 10.8208 27.979 10.913 27.979 10.9991C27.979 11.3679 28.0404 11.6813 28.1634 11.9395C28.2863 12.1854 28.4769 12.3759 28.735 12.5111C29.0055 12.6341 29.3435 12.6955 29.7492 12.6955Z" fill="currentColor"/>
<path d="M13.2629 14.6682L15.4942 2H18.7949L17.0431 11.9575H23.3864L22.907 14.6682H13.2629Z" fill="currentColor"/>
<path d="M0 14.6682L2.24967 2H8.75895C9.61948 2 10.3386 2.14752 10.9164 2.44256C11.4942 2.7376 11.9306 3.14942 12.2257 3.67803C12.5207 4.20664 12.6682 4.82131 12.6682 5.52202C12.6682 6.24732 12.5514 6.90501 12.3179 7.49509C12.0843 8.08517 11.7524 8.60149 11.3221 9.04404C10.8918 9.47431 10.3755 9.80623 9.77315 10.0398C9.17078 10.2734 8.5008 10.3902 7.7632 10.3902H4.07522L3.31918 14.6682H0ZM4.53622 7.84545H7.28376C7.70173 7.84545 8.05824 7.76554 8.35328 7.60573C8.64831 7.43362 8.87574 7.20005 9.03555 6.90501C9.19536 6.60998 9.27527 6.26576 9.27527 5.87238C9.27527 5.45441 9.15234 5.13478 8.90647 4.9135C8.66061 4.67993 8.28566 4.56315 7.78164 4.56315H5.10785L4.53622 7.84545Z" fill="currentColor"/>
</g>
<defs>
<clipPath id="clip0_1819_8731">
<rect width="48" height="19" fill="white"/>
</clipPath>
</defs>
</svg>
