<svg width="166" height="126" viewBox="0 0 166 126" fill="none" xmlns="http://www.w3.org/2000/svg">
<g filter="url(#filter0_d_334_6725)">
<path d="M10.8736 14.7468C10.8736 11.8561 13.217 9.5127 16.1077 9.5127H149.577C152.468 9.5127 154.811 11.8561 154.811 14.7468V108.961C154.811 111.851 152.468 114.195 149.577 114.195H16.1077C13.217 114.195 10.8736 111.851 10.8736 108.961V14.7468Z" fill="white" shape-rendering="crispEdges"/>
<path d="M31.2324 32.8195H21.6523V31.6004H31.2324V32.8195ZM30.4274 25.666H28.9553V28.8402H30.3814V29.9903H22.4459V28.8402H23.849V25.666H22.3999V24.493H30.4274V25.666ZM27.5062 28.8402V25.666H25.3211V28.8402H27.5062ZM41.4106 32.877H31.8305V31.6694H35.8672V30.0938H32.9345V26.5746H38.8574V25.4245H32.923V24.2514H40.3065V27.7246H34.4066V28.8977H40.548V30.0938H37.3278V31.6694H41.4106V32.877ZM48.9205 29.8983H47.5289V27.3451H46.3674V26.1606H47.5289V23.7799H48.9205V29.8983ZM45.3093 25.827C45.3093 26.4174 45.4646 26.956 45.7751 27.4429C46.0894 27.9297 46.5667 28.2958 47.2069 28.5412L46.4709 29.6683C46.0377 29.4996 45.6658 29.2696 45.3553 28.9782C45.0486 28.683 44.8013 28.338 44.6135 27.9432C44.418 28.384 44.1535 28.7693 43.82 29.099C43.4903 29.4287 43.0935 29.6874 42.6296 29.8753L41.8591 28.7137C42.3191 28.5412 42.7005 28.3035 43.0034 28.0007C43.3063 27.6978 43.5286 27.3585 43.6704 26.9829C43.8123 26.6072 43.8832 26.2181 43.8832 25.8155V25.505H42.2156V24.3319H46.8734V25.505H45.3093V25.827ZM51.0021 29.9558H49.6106V23.5729H51.0021V29.9558ZM51.0021 34.0385H49.5415V31.4969H43.7682V30.3353H51.0021V34.0385ZM60.7202 30.1398H53.3138V24.3434H60.6397V25.528H54.8089V26.6321H60.3982V27.7822H54.8089V28.9782H60.7202V30.1398ZM61.7668 32.8195H52.1867V31.6234H61.7668V32.8195ZM70.4498 25.6315H66.9766V27.3566H70.3003V28.5067H66.9766V30.4848C67.7817 30.4771 68.5024 30.4522 69.1387 30.4101C69.779 30.3679 70.4307 30.2931 71.0939 30.1858L71.2319 31.3704C70.4843 31.4854 69.7406 31.562 69.0007 31.6004C68.2609 31.6387 67.3868 31.6579 66.3786 31.6579H65.493V24.4354H70.4498V25.6315ZM73.3365 27.5406H74.8776V28.7712H73.3365V34.0385H71.8644V23.5729H73.3365V27.5406ZM84.0207 34.0615H82.5371V23.5729H84.0207V34.0615ZM78.3393 24.3089C78.8645 24.3089 79.3341 24.4623 79.7481 24.769C80.166 25.0757 80.4938 25.5108 80.7315 26.0743C80.9691 26.6378 81.088 27.2915 81.088 28.0352C81.088 28.7865 80.9691 29.4459 80.7315 30.0133C80.4938 30.5768 80.166 31.0119 79.7481 31.3186C79.3341 31.6215 78.8645 31.7729 78.3393 31.7729C77.8026 31.7729 77.3234 31.6215 76.9017 31.3186C76.48 31.0119 76.1503 30.5768 75.9127 30.0133C75.6788 29.4459 75.5638 28.7865 75.5676 28.0352C75.5638 27.2915 75.6788 26.6378 75.9127 26.0743C76.1503 25.5108 76.48 25.0757 76.9017 24.769C77.3234 24.4623 77.8026 24.3089 78.3393 24.3089ZM78.3393 25.6315C78.0671 25.6315 77.8275 25.7254 77.6205 25.9133C77.4173 26.0973 77.2602 26.3695 77.149 26.7298C77.0378 27.0902 76.9822 27.5253 76.9822 28.0352C76.9822 28.5489 77.0378 28.9859 77.149 29.3462C77.2602 29.7066 77.4173 29.9788 77.6205 30.1628C77.8275 30.3468 78.0671 30.4388 78.3393 30.4388C78.6077 30.4388 78.8415 30.3468 79.0409 30.1628C79.2402 29.975 79.3955 29.7009 79.5066 29.3405C79.6178 28.9801 79.6734 28.545 79.6734 28.0352C79.6734 27.5291 79.6178 27.0959 79.5066 26.7356C79.3955 26.3714 79.2383 26.0973 79.0351 25.9133C78.8358 25.7254 78.6038 25.6315 78.3393 25.6315ZM93.9573 27.7707H86.6083V23.7914H93.8653V24.7805H88.0804V25.2865H93.6237V26.2526H88.0804V26.7701H93.9573V27.7707ZM94.9578 29.3577H85.4582V28.2652H94.9578V29.3577ZM93.8193 32.3709H87.9884V32.923H94.0953V33.9695H86.5508V31.3819H92.3702V30.8758H86.5393V29.8523H93.8193V32.3709Z" fill="black"/>
<path d="M28.9719 50.3561H21.637V49.6405H28.9719V50.3561ZM28.301 44.8102H27.0756V47.4848H28.2742V48.1646H22.2811V47.4848H23.4797V44.8102H22.2632V44.1125H28.301V44.8102ZM26.2437 47.4848V44.8102H24.3205V47.4848H26.2437ZM36.8882 50.4009H29.5533V49.6853H32.7825V48.2809H30.4478V45.7316H35.1529V44.6045H30.4299V43.9068H35.9937V46.4114H31.2887V47.5832H36.1816V48.2809H33.6233V49.6853H36.8882V50.4009ZM42.7293 48.1736H41.9243V46.0715H40.8061V45.3827H41.9243V43.5132H42.7293V48.1736ZM39.8937 45.0607C39.8937 45.3559 39.9519 45.6451 40.0682 45.9284C40.1874 46.2116 40.3634 46.4695 40.5959 46.7021C40.8285 46.9317 41.1103 47.1151 41.4412 47.2522L41.0119 47.9052C40.657 47.7591 40.3529 47.5564 40.0995 47.297C39.846 47.0346 39.6463 46.7334 39.5002 46.3935C39.3511 46.7752 39.1424 47.1121 38.874 47.4043C38.6086 47.6965 38.2866 47.9231 37.908 48.0841L37.4518 47.4132C37.7946 47.2761 38.0883 47.0823 38.3328 46.8318C38.5773 46.5814 38.7607 46.3026 38.883 45.9955C39.0082 45.6883 39.0708 45.3768 39.0708 45.0607V44.6671H37.6485V43.9784H41.2355V44.6671H39.8937V45.0607ZM44.3036 48.2362H43.4986V43.3433H44.3036V48.2362ZM44.3036 51.358H43.4628V49.2559H38.8561V48.5671H44.3036V51.358ZM51.889 48.2898H46.3073V44.0052H51.8085V44.694H47.166V45.7763H51.6385V46.4472H47.166V47.61H51.889V48.2898ZM52.7209 50.3472H45.386V49.6495H52.7209V50.3472ZM62.8734 50.3561H55.5385V49.6495H57.2917V47.5564C56.9578 47.3715 56.6984 47.1374 56.5135 46.8542C56.3287 46.5709 56.2362 46.2534 56.2362 45.9015C56.2362 45.4871 56.3615 45.1218 56.6119 44.8058C56.8654 44.4897 57.2157 44.2452 57.663 44.0723C58.1102 43.8964 58.6186 43.8084 59.1881 43.8084C59.7606 43.8084 60.2704 43.8964 60.7177 44.0723C61.1679 44.2452 61.5183 44.4897 61.7687 44.8058C62.0222 45.1218 62.1489 45.4871 62.1489 45.9015C62.1489 46.2504 62.0594 46.565 61.8805 46.8452C61.7016 47.1225 61.4482 47.3536 61.1202 47.5385V49.6495H62.8734V50.3561ZM59.1881 44.4882C58.7707 44.4882 58.4009 44.5464 58.0789 44.6627C57.7569 44.776 57.5064 44.9399 57.3275 45.1546C57.1486 45.3663 57.0592 45.6153 57.0592 45.9015C57.0592 46.1848 57.1486 46.4338 57.3275 46.6484C57.5064 46.8631 57.7569 47.0301 58.0789 47.1494C58.4009 47.2656 58.7707 47.3238 59.1881 47.3238C59.6025 47.3238 59.9708 47.2656 60.2928 47.1494C60.6178 47.0301 60.8712 46.8631 61.0531 46.6484C61.235 46.4338 61.3259 46.1848 61.3259 45.9015C61.3259 45.6183 61.235 45.3693 61.0531 45.1546C60.8742 44.9399 60.6223 44.776 60.2973 44.6627C59.9752 44.5464 59.6055 44.4882 59.1881 44.4882ZM60.2615 49.6495V47.865C59.9365 47.9455 59.5787 47.9857 59.1881 47.9857C58.8124 47.9857 58.4606 47.947 58.1326 47.8694V49.6495H60.2615ZM70.8881 45.2128H69.7521V46.2325H70.8881V46.9481H69.7521V48.0931H68.9023V43.3433H69.7521V44.5151H70.8881V45.2128ZM69.7521 51.358H68.9023V49.1396H64.4567V48.4509H69.7521V51.358ZM65.709 43.8084C66.1145 43.8084 66.4783 43.8904 66.8003 44.0544C67.1253 44.2154 67.3802 44.442 67.5651 44.7342C67.7499 45.0234 67.8439 45.3529 67.8468 45.7226C67.8439 46.0924 67.7499 46.4233 67.5651 46.7155C67.3802 47.0048 67.1253 47.2314 66.8003 47.3953C66.4783 47.5564 66.1145 47.6369 65.709 47.6369C65.3035 47.6369 64.9382 47.5564 64.6132 47.3953C64.2882 47.2314 64.0333 47.0048 63.8484 46.7155C63.6665 46.4233 63.5771 46.0924 63.5801 45.7226C63.5771 45.3529 63.6665 45.0234 63.8484 44.7342C64.0333 44.442 64.2882 44.2154 64.6132 44.0544C64.9382 43.8904 65.3035 43.8084 65.709 43.8084ZM65.709 44.533C65.4585 44.533 65.2349 44.5836 65.0381 44.685C64.8413 44.7834 64.6863 44.9221 64.573 45.101C64.4626 45.2799 64.409 45.4871 64.412 45.7226C64.409 45.9612 64.4626 46.1714 64.573 46.3533C64.6863 46.5322 64.8413 46.6708 65.0381 46.7692C65.2349 46.8676 65.4585 46.9153 65.709 46.9123C65.9594 46.9153 66.1831 46.8676 66.3799 46.7692C66.5796 46.6708 66.7347 46.5322 66.845 46.3533C66.9583 46.1714 67.015 45.9612 67.015 45.7226C67.015 45.4871 66.9583 45.2799 66.845 45.101C66.7347 44.9191 66.5796 44.7789 66.3799 44.6805C66.1831 44.5821 65.9594 44.533 65.709 44.533ZM78.0173 47.6458H77.1675V43.3433H78.0173V47.6458ZM73.6074 48.9339H77.1765V48.0304H78.0173V51.2596H72.7755V48.0304H73.6074V48.9339ZM77.1765 50.5619V49.6048H73.6074V50.5619H77.1765ZM73.67 43.71C74.0755 43.71 74.4393 43.789 74.7613 43.9471C75.0863 44.1051 75.3398 44.3257 75.5216 44.609C75.7065 44.8893 75.7989 45.2098 75.7989 45.5706C75.7989 45.9314 75.7065 46.2534 75.5216 46.5366C75.3398 46.8169 75.0863 47.0361 74.7613 47.1941C74.4393 47.3491 74.0755 47.4252 73.67 47.4222C73.2645 47.4252 72.8993 47.3491 72.5743 47.1941C72.2493 47.0361 71.9943 46.8169 71.8095 46.5366C71.6246 46.2534 71.5322 45.9314 71.5322 45.5706C71.5322 45.2098 71.6246 44.8893 71.8095 44.609C71.9943 44.3257 72.2493 44.1051 72.5743 43.9471C72.8993 43.789 73.2645 43.71 73.67 43.71ZM73.67 44.4256C73.4196 44.4226 73.1944 44.4703 72.9947 44.5687C72.7979 44.6641 72.6428 44.7998 72.5295 44.9757C72.4192 45.1487 72.3641 45.3469 72.3641 45.5706C72.3641 45.7972 72.4192 45.9984 72.5295 46.1744C72.6428 46.3473 72.7979 46.483 72.9947 46.5814C73.1944 46.6768 73.4196 46.7245 73.67 46.7245C73.9175 46.7245 74.1396 46.6768 74.3364 46.5814C74.5332 46.483 74.6868 46.3473 74.7971 46.1744C74.9104 45.9984 74.967 45.7972 74.967 45.5706C74.967 45.3469 74.9104 45.1487 74.7971 44.9757C74.6868 44.7998 74.5332 44.6641 74.3364 44.5687C74.1396 44.4703 73.9175 44.4226 73.67 44.4256ZM85.9426 51.358H85.0928V43.3433H85.9426V51.358ZM80.6203 48.585C81.9322 48.5761 83.1607 48.4538 84.3056 48.2183L84.4219 48.9339C83.7421 49.071 83.0772 49.1694 82.4272 49.2291C81.7772 49.2887 81.1182 49.3185 80.4503 49.3185H79.7795V44.1215H80.6203V48.585ZM93.4474 46.4472H94.7355V47.1449H93.4474V51.3759H92.5976V43.3433H93.4474V46.4472ZM91.2917 44.8013H88.3935V48.6745C89.1031 48.6715 89.7263 48.6506 90.263 48.6119C90.8027 48.5731 91.3453 48.5045 91.891 48.4061L91.9983 49.1217C91.4467 49.2201 90.904 49.2887 90.3703 49.3275C89.8396 49.3632 89.2254 49.3811 88.5277 49.3811H88.1877H87.5437V44.1125H91.2917V44.8013ZM96.0325 50.6603C95.9192 50.6603 95.8119 50.6319 95.7105 50.5753C95.6121 50.5186 95.5346 50.4411 95.4779 50.3427C95.4213 50.2443 95.3944 50.1385 95.3974 50.0252C95.3944 49.9119 95.4213 49.806 95.4779 49.7076C95.5346 49.6092 95.6121 49.5317 95.7105 49.4751C95.8119 49.4184 95.9192 49.3901 96.0325 49.3901C96.1428 49.3901 96.2472 49.4184 96.3456 49.4751C96.444 49.5317 96.5215 49.6092 96.5781 49.7076C96.6378 49.806 96.6676 49.9119 96.6676 50.0252C96.6676 50.1385 96.6378 50.2443 96.5781 50.3427C96.5215 50.4411 96.444 50.5186 96.3456 50.5753C96.2472 50.6319 96.1428 50.6603 96.0325 50.6603ZM102.768 48.9876C103.594 48.9428 104.319 48.8743 104.942 48.7818L105.004 49.408C104.202 49.5541 103.382 49.6495 102.544 49.6942C101.707 49.736 100.797 49.7568 99.8162 49.7568L99.7089 49.0591C100.666 49.0532 101.402 49.0412 101.918 49.0233V47.6011H102.768V48.9876ZM104.566 45.0518H102.768C102.783 45.3648 102.874 45.66 103.041 45.9373C103.208 46.2116 103.439 46.4517 103.734 46.6574C104.032 46.8631 104.378 47.0197 104.772 47.127L104.378 47.7889C103.904 47.6548 103.491 47.4475 103.139 47.1673C102.79 46.887 102.525 46.556 102.343 46.1744C102.167 46.5799 101.906 46.9287 101.561 47.2209C101.215 47.5101 100.803 47.7233 100.326 47.8605L99.9236 47.2164C100.317 47.1031 100.66 46.9392 100.952 46.7245C101.247 46.5098 101.477 46.2593 101.641 45.9731C101.808 45.6839 101.897 45.3768 101.909 45.0518H100.138V44.363H101.918V43.4059H102.768V44.363H104.566V45.0518ZM106.292 51.3759H105.443V43.3433H106.292V51.3759ZM114.459 51.358H113.645V47.2164H112.608V50.9465H111.829V43.5043H112.608V46.5187H113.645V43.3433H114.459V51.358ZM110.854 44.9981H108.699V48.7103C109.223 48.7043 109.683 48.6864 110.076 48.6566C110.473 48.6268 110.875 48.5731 111.284 48.4956L111.346 49.1933C110.896 49.2857 110.452 49.3483 110.014 49.3811C109.575 49.411 109.033 49.4288 108.386 49.4348H107.849V44.3093H110.854V44.9981ZM124.156 46.966H118.717V43.7995H124.057V44.4882H119.576V46.2951H124.156V46.966ZM125.059 48.6298H121.785V51.3401H120.953V48.6298H117.724V47.941H125.059V48.6298ZM132.957 47.3148H129.719V48.0304H132.036V49.9268H127.367V50.6245H132.26V51.2775H126.535V49.3185H131.195V48.6655H126.526V48.0304H128.879V47.3148H125.649V46.635H132.957V47.3148ZM132.304 44.2735H129.813C129.87 44.5031 130.025 44.7163 130.278 44.9131C130.535 45.1099 130.863 45.2739 131.262 45.4051C131.665 45.5333 132.108 45.6183 132.591 45.66L132.313 46.3041C131.613 46.2385 130.994 46.0849 130.457 45.8434C129.924 45.6019 129.537 45.2933 129.299 44.9176C129.057 45.2933 128.67 45.6019 128.136 45.8434C127.605 46.0849 126.991 46.2385 126.293 46.3041L126.025 45.66C126.505 45.6183 126.943 45.5333 127.34 45.4051C127.74 45.2739 128.066 45.1114 128.319 44.9176C128.573 44.7208 128.728 44.5061 128.785 44.2735H126.32V43.6027H132.304V44.2735ZM140.901 50.4009H133.566V49.6853H136.795V48.2809H134.46V45.7316H139.165V44.6045H134.442V43.9068H140.006V46.4114H135.301V47.5832H140.194V48.2809H137.636V49.6853H140.901V50.4009ZM24.4368 58.7834C24.4368 59.1263 24.5128 59.4558 24.6649 59.7718C24.8199 60.0879 25.0421 60.3697 25.3313 60.6171C25.6235 60.8646 25.9694 61.0554 26.3689 61.1896L25.9396 61.8515C25.4923 61.6965 25.1032 61.4699 24.7722 61.1717C24.4442 60.8736 24.1923 60.5262 24.0164 60.1296C23.8405 60.565 23.5811 60.9451 23.2382 61.2701C22.8983 61.5951 22.4957 61.8396 22.0306 62.0036L21.5744 61.3417C21.9859 61.2015 22.3422 61.0003 22.6433 60.7379C22.9445 60.4755 23.1756 60.1758 23.3366 59.8389C23.5006 59.499 23.584 59.1442 23.587 58.7745V58.5598H21.8249V57.871H26.1632V58.5598H24.4368V58.7834ZM27.9343 59.4006H29.0971V60.1162H27.9343V62.1736H27.0845V57.3433H27.9343V59.4006ZM27.9343 65.358H27.0845V63.2559H22.6389V62.5671H27.9343V65.358ZM32.3978 58.5419C32.3978 58.9176 32.4754 59.2739 32.6304 59.6108C32.7855 59.9448 33.0091 60.2385 33.3013 60.4919C33.5935 60.7453 33.9394 60.9362 34.3389 61.0644L33.8738 61.7263C33.4384 61.5683 33.0598 61.3417 32.7377 61.0465C32.4187 60.7483 32.1712 60.3965 31.9953 59.991C31.8194 60.4531 31.5585 60.8557 31.2126 61.1986C30.8697 61.5385 30.4598 61.7949 29.9827 61.9678L29.5265 61.288C29.9469 61.1449 30.3092 60.9377 30.6133 60.6663C30.9174 60.395 31.15 60.0804 31.311 59.7226C31.472 59.3619 31.554 58.9802 31.557 58.5777V57.7905H32.3978V58.5419ZM36.2352 62.0752H35.3855V59.669H33.6949V58.9713H35.3855V57.3433H36.2352V62.0752ZM33.5517 62.2988C34.1123 62.2988 34.5953 62.3584 35.0008 62.4777C35.4063 62.597 35.7179 62.7714 35.9356 63.001C36.1532 63.2306 36.2621 63.5064 36.2621 63.8284C36.2621 64.1474 36.1532 64.4202 35.9356 64.6469C35.7179 64.8764 35.4048 65.0494 34.9964 65.1657C34.5908 65.2849 34.1093 65.3431 33.5517 65.3401C32.9912 65.3431 32.5067 65.2849 32.0982 65.1657C31.6927 65.0494 31.3811 64.8764 31.1634 64.6469C30.9458 64.4202 30.8384 64.1474 30.8414 63.8284C30.8384 63.5064 30.9458 63.2306 31.1634 63.001C31.3811 62.7714 31.6927 62.597 32.0982 62.4777C32.5067 62.3584 32.9912 62.2988 33.5517 62.2988ZM33.5517 62.9607C32.9644 62.9607 32.5052 63.0368 32.1742 63.1888C31.8462 63.3379 31.6822 63.5511 31.6822 63.8284C31.6822 64.0967 31.8462 64.304 32.1742 64.4501C32.5052 64.5962 32.9644 64.6692 33.5517 64.6692C34.1391 64.6692 34.5968 64.5962 34.9248 64.4501C35.2558 64.304 35.4212 64.0967 35.4212 63.8284C35.4212 63.5511 35.2558 63.3379 34.9248 63.1888C34.5968 63.0368 34.1391 62.9607 33.5517 62.9607ZM43.7669 59.1949H44.9387V59.8926H43.7669V61.7263H42.9171V57.3164H43.7669V59.1949ZM43.7669 63.9626H39.4375V64.6334H44.0442V65.2775H38.6057V63.3632H42.9261V62.7371H38.5878V62.102H43.7669V63.9626ZM42.2552 58.694H37.4786V58.0231H39.4465V57.2717H40.2963V58.0231H42.2552V58.694ZM39.8669 58.9981C40.2545 58.9981 40.5944 59.0518 40.8866 59.1591C41.1818 59.2635 41.4084 59.4155 41.5665 59.6153C41.7275 59.8121 41.808 60.0447 41.808 60.313C41.808 60.5814 41.7275 60.8139 41.5665 61.0107C41.4084 61.2075 41.1833 61.3581 40.8911 61.4624C40.5989 61.5668 40.2575 61.619 39.8669 61.619C39.4733 61.619 39.1289 61.5668 38.8338 61.4624C38.5416 61.3581 38.3149 61.2075 38.1539 61.0107C37.9959 60.8139 37.9169 60.5814 37.9169 60.313C37.9169 60.0447 37.9974 59.8121 38.1584 59.6153C38.3194 59.4155 38.546 59.2635 38.8382 59.1591C39.1334 59.0518 39.4763 58.9981 39.8669 58.9981ZM39.8669 59.6064C39.6403 59.6064 39.4405 59.6362 39.2676 59.6958C39.0976 59.7525 38.9664 59.8344 38.874 59.9418C38.7816 60.0461 38.7369 60.1699 38.7398 60.313C38.7369 60.5247 38.8367 60.6932 39.0395 60.8184C39.2452 60.9406 39.521 61.0018 39.8669 61.0018C40.2128 61.0018 40.4886 60.9406 40.6943 60.8184C40.903 60.6961 41.0089 60.5277 41.0119 60.313C41.0089 60.1699 40.9597 60.0461 40.8643 59.9418C40.7689 59.8344 40.6347 59.7525 40.4617 59.6958C40.2918 59.6362 40.0935 59.6064 39.8669 59.6064ZM51.728 58.0499C51.725 58.3988 51.8517 58.7357 52.1081 59.0607C52.3675 59.3827 52.7179 59.657 53.1592 59.8836C53.6004 60.1073 54.0805 60.2534 54.5993 60.322L54.2683 61.0197C53.833 60.9511 53.4201 60.8318 53.0295 60.6619C52.6389 60.4919 52.293 60.2817 51.9918 60.0312C51.6907 59.7808 51.4551 59.5005 51.2852 59.1904C51.1122 59.5005 50.8752 59.7808 50.5741 60.0312C50.2759 60.2817 49.933 60.4919 49.5454 60.6619C49.1578 60.8288 48.7463 60.9481 48.311 61.0197L47.9711 60.322C48.4899 60.2534 48.9684 60.1073 49.4067 59.8836C49.845 59.66 50.1924 59.3872 50.4488 59.0652C50.7082 58.7402 50.8394 58.4018 50.8424 58.0499V57.6116H51.728V58.0499ZM54.9303 62.5045H51.6743V65.358H50.8424V62.5045H47.6222V61.8068H54.9303V62.5045ZM60.5567 62.6387C60.5567 62.9995 60.6461 63.3468 60.825 63.6808C61.0069 64.0118 61.2723 64.2816 61.6211 64.4903C61.8567 64.3383 62.0564 64.1579 62.2204 63.9491C62.3874 63.7404 62.5126 63.5228 62.5961 63.2962C62.6796 63.0696 62.7214 62.8504 62.7214 62.6387V62.2541H63.5532V62.6387C63.5532 62.919 63.6144 63.1903 63.7366 63.4527C63.8589 63.7121 64.0393 63.9432 64.2778 64.1459C64.5163 64.3487 64.8055 64.5052 65.1454 64.6155L64.725 65.2417C64.3374 65.1075 64.0079 64.9137 63.7366 64.6603C63.4683 64.4098 63.261 64.1161 63.1149 63.7792C62.9808 64.1191 62.7899 64.4232 62.5425 64.6916C62.298 64.9599 61.9998 65.1672 61.648 65.3133C61.2782 65.1731 60.9666 64.9719 60.7132 64.7095C60.4627 64.4471 60.2719 64.1444 60.1407 63.8016C59.9916 64.1266 59.7844 64.4143 59.519 64.6647C59.2537 64.9152 58.9376 65.1075 58.5709 65.2417L58.1415 64.6155C58.4725 64.4963 58.7572 64.3323 58.9958 64.1236C59.2373 63.9149 59.4192 63.6823 59.5414 63.4259C59.6666 63.1665 59.7307 62.9041 59.7337 62.6387V62.2541H60.5567V62.6387ZM64.4209 61.9142H63.5711V57.3522H64.4209V61.9142ZM60.0736 57.7905C60.4791 57.7905 60.8429 57.871 61.1649 58.032C61.4899 58.193 61.7434 58.4182 61.9253 58.7074C62.1101 58.9936 62.2025 59.3201 62.2025 59.6869C62.2025 60.0506 62.1101 60.3756 61.9253 60.6619C61.7434 60.9451 61.4899 61.1673 61.1649 61.3283C60.8429 61.4863 60.4791 61.5653 60.0736 61.5653C59.6681 61.5653 59.3029 61.4863 58.9779 61.3283C58.6529 61.1673 58.3979 60.9451 58.2131 60.6619C58.0282 60.3756 57.9358 60.0506 57.9358 59.6869C57.9358 59.3201 58.0282 58.9936 58.2131 58.7074C58.3979 58.4182 58.6529 58.193 58.9779 58.032C59.3029 57.871 59.6681 57.7905 60.0736 57.7905ZM60.0736 58.5151C59.8232 58.5121 59.5981 58.5598 59.3983 58.6582C59.2015 58.7536 59.0465 58.8908 58.9332 59.0697C58.8228 59.2486 58.7677 59.4543 58.7677 59.6869C58.7677 59.9164 58.8228 60.1207 58.9332 60.2996C59.0465 60.4755 59.2015 60.6127 59.3983 60.7111C59.5981 60.8095 59.8232 60.8586 60.0736 60.8586C60.3211 60.8586 60.5433 60.8095 60.74 60.7111C60.9368 60.6127 61.0904 60.4755 61.2007 60.2996C61.314 60.1207 61.3707 59.9164 61.3707 59.6869C61.3707 59.4543 61.314 59.2486 61.2007 59.0697C61.0904 58.8908 60.9368 58.7536 60.74 58.6582C60.5433 58.5598 60.3211 58.5121 60.0736 58.5151ZM67.4354 62.9965H71.2012V62.1467H72.051V65.2596H66.5945V62.1467H67.4354V62.9965ZM71.2012 64.5798V63.6584H67.4354V64.5798H71.2012ZM72.9992 61.6458H65.6911V60.9392H72.9992V61.6458ZM69.779 57.7726C69.779 58.0738 69.9057 58.3675 70.1591 58.6537C70.4155 58.937 70.7584 59.18 71.1878 59.3827C71.6201 59.5825 72.0897 59.7137 72.5966 59.7763L72.2925 60.4472C71.6365 60.3547 71.0447 60.1624 70.5169 59.8702C69.9921 59.578 69.6015 59.2217 69.3451 58.8013C69.0887 59.2247 68.6966 59.5825 68.1689 59.8747C67.6441 60.1639 67.0567 60.3547 66.4067 60.4472L66.0847 59.7763C66.5975 59.7107 67.0701 59.5795 67.5025 59.3827C67.9348 59.1859 68.2777 58.9459 68.5311 58.6627C68.7846 58.3794 68.9113 58.0827 68.9113 57.7726V57.4327H69.779V57.7726ZM80.2625 65.358H79.4127V57.3433H80.2625V65.358ZM74.9402 62.585C76.2521 62.5761 77.4806 62.4538 78.6256 62.2183L78.7418 62.9339C78.062 63.071 77.3971 63.1694 76.7471 63.2291C76.0971 63.2887 75.4382 63.3185 74.7703 63.3185H74.0994V58.1215H74.9402V62.585ZM87.7673 60.4472H89.0554V61.1449H87.7673V65.3759H86.9176V57.3433H87.7673V60.4472ZM85.6116 58.8013H82.7134V62.6745C83.423 62.6715 84.0462 62.6506 84.5829 62.6119C85.1226 62.5731 85.6653 62.5045 86.2109 62.4061L86.3182 63.1217C85.7666 63.2201 85.224 63.2887 84.6903 63.3275C84.1595 63.3632 83.5453 63.3811 82.8476 63.3811H82.5077H81.8636V58.1125H85.6116V58.8013ZM90.3524 64.6603C90.2391 64.6603 90.1318 64.6319 90.0304 64.5753C89.932 64.5186 89.8545 64.4411 89.7978 64.3427C89.7412 64.2443 89.7144 64.1385 89.7173 64.0252C89.7144 63.9119 89.7412 63.806 89.7978 63.7076C89.8545 63.6092 89.932 63.5317 90.0304 63.4751C90.1318 63.4184 90.2391 63.3901 90.3524 63.3901C90.4628 63.3901 90.5671 63.4184 90.6655 63.4751C90.7639 63.5317 90.8414 63.6092 90.8981 63.7076C90.9577 63.806 90.9875 63.9119 90.9875 64.0252C90.9875 64.1385 90.9577 64.2443 90.8981 64.3427C90.8414 64.4411 90.7639 64.5186 90.6655 64.5753C90.5671 64.6319 90.4628 64.6603 90.3524 64.6603ZM97.088 62.9876C97.9139 62.9428 98.6385 62.8743 99.2616 62.7818L99.3243 63.408C98.5222 63.5541 97.7022 63.6495 96.8644 63.6942C96.0265 63.736 95.1171 63.7568 94.1362 63.7568L94.0288 63.0591C94.9859 63.0532 95.7224 63.0412 96.2382 63.0233V61.6011H97.088V62.9876ZM98.886 59.0518H97.088C97.1029 59.3648 97.1939 59.66 97.3608 59.9373C97.5278 60.2116 97.7589 60.4517 98.0541 60.6574C98.3522 60.8631 98.6981 61.0197 99.0917 61.127L98.6981 61.7889C98.224 61.6548 97.8111 61.4475 97.4592 61.1673C97.1104 60.887 96.845 60.556 96.6631 60.1744C96.4872 60.5799 96.2263 60.9287 95.8804 61.2209C95.5346 61.5101 95.1231 61.7233 94.646 61.8605L94.2435 61.2164C94.6371 61.1031 94.98 60.9392 95.2722 60.7245C95.5674 60.5098 95.7969 60.2593 95.9609 59.9731C96.1279 59.6839 96.2174 59.3768 96.2293 59.0518H94.4582V58.363H96.2382V57.4059H97.088V58.363H98.886V59.0518ZM100.612 65.3759H99.7626V57.3433H100.612V65.3759ZM108.779 65.358H107.965V61.2164H106.928V64.9465H106.149V57.5043H106.928V60.5187H107.965V57.3433H108.779V65.358ZM105.174 58.9981H103.019V62.7103C103.543 62.7043 104.002 62.6864 104.396 62.6566C104.793 62.6268 105.195 62.5731 105.604 62.4956L105.666 63.1933C105.216 63.2857 104.772 63.3483 104.333 63.3811C103.895 63.411 103.352 63.4288 102.705 63.4348H102.169V58.3093H105.174V58.9981ZM118.475 60.966H113.037V57.7995H118.377V58.4882H113.896V60.2951H118.475V60.966ZM119.379 62.6298H116.105V65.3401H115.273V62.6298H112.044V61.941H119.379V62.6298ZM127.277 61.3148H124.039V62.0304H126.356V63.9268H121.687V64.6245H126.58V65.2775H120.855V63.3185H125.515V62.6655H120.846V62.0304H123.198V61.3148H119.969V60.635H127.277V61.3148ZM126.624 58.2735H124.133C124.19 58.5031 124.345 58.7163 124.598 58.9131C124.855 59.1099 125.183 59.2739 125.582 59.4051C125.985 59.5333 126.428 59.6183 126.911 59.66L126.633 60.3041C125.933 60.2385 125.314 60.0849 124.777 59.8434C124.244 59.6019 123.857 59.2933 123.619 58.9176C123.377 59.2933 122.99 59.6019 122.456 59.8434C121.925 60.0849 121.311 60.2385 120.613 60.3041L120.345 59.66C120.825 59.6183 121.263 59.5333 121.66 59.4051C122.059 59.2739 122.386 59.1114 122.639 58.9176C122.893 58.7208 123.048 58.5061 123.105 58.2735H120.64V57.6027H126.624V58.2735ZM135.221 64.4009H127.886V63.6853H131.115V62.2809H128.78V59.7316H133.485V58.6045H128.762V57.9068H134.326V60.4114H129.621V61.5832H134.514V62.2809H131.956V63.6853H135.221V64.4009ZM136.714 64.6603C136.601 64.6603 136.494 64.6319 136.392 64.5753C136.294 64.5186 136.216 64.4411 136.16 64.3427C136.103 64.2443 136.076 64.1385 136.079 64.0252C136.076 63.9119 136.103 63.806 136.16 63.7076C136.216 63.6092 136.294 63.5317 136.392 63.4751C136.494 63.4184 136.601 63.3901 136.714 63.3901C136.825 63.3901 136.929 63.4184 137.027 63.4751C137.126 63.5317 137.203 63.6092 137.26 63.7076C137.32 63.806 137.349 63.9119 137.349 64.0252C137.349 64.1385 137.32 64.2443 137.26 64.3427C137.203 64.4411 137.126 64.5186 137.027 64.5753C136.929 64.6319 136.825 64.6603 136.714 64.6603ZM139.129 64.6603C139.016 64.6603 138.909 64.6319 138.807 64.5753C138.709 64.5186 138.632 64.4411 138.575 64.3427C138.518 64.2443 138.491 64.1385 138.494 64.0252C138.491 63.9119 138.518 63.806 138.575 63.7076C138.632 63.6092 138.709 63.5317 138.807 63.4751C138.909 63.4184 139.016 63.3901 139.129 63.3901C139.24 63.3901 139.344 63.4184 139.443 63.4751C139.541 63.5317 139.618 63.6092 139.675 63.7076C139.735 63.806 139.765 63.9119 139.765 64.0252C139.765 64.1385 139.735 64.2443 139.675 64.3427C139.618 64.4411 139.541 64.5186 139.443 64.5753C139.344 64.6319 139.24 64.6603 139.129 64.6603ZM141.545 64.6603C141.431 64.6603 141.324 64.6319 141.223 64.5753C141.124 64.5186 141.047 64.4411 140.99 64.3427C140.933 64.2443 140.907 64.1385 140.91 64.0252C140.907 63.9119 140.933 63.806 140.99 63.7076C141.047 63.6092 141.124 63.5317 141.223 63.4751C141.324 63.4184 141.431 63.3901 141.545 63.3901C141.655 63.3901 141.759 63.4184 141.858 63.4751C141.956 63.5317 142.034 63.6092 142.09 63.7076C142.15 63.806 142.18 63.9119 142.18 64.0252C142.18 64.1385 142.15 64.2443 142.09 64.3427C142.034 64.4411 141.956 64.5186 141.858 64.5753C141.759 64.6319 141.655 64.6603 141.545 64.6603Z" fill="black" fill-opacity="0.5"/>
<path d="M21.8019 86.8242L23.7646 84.9304C23.9768 84.7183 24.1403 84.5445 24.2553 84.4091C24.3729 84.2711 24.4624 84.1356 24.5237 84.0027C24.585 83.8673 24.6157 83.7241 24.6157 83.5733C24.6157 83.4047 24.5748 83.2564 24.493 83.1287C24.4112 83.0009 24.2975 82.9025 24.1518 82.8335C24.0087 82.7645 23.8464 82.73 23.665 82.73C23.4758 82.73 23.3097 82.7683 23.1666 82.845C23.026 82.9191 22.9174 83.0264 22.8408 83.167C22.7641 83.305 22.727 83.466 22.7296 83.65H21.7789C21.7763 83.305 21.8555 83.0021 22.0165 82.7415C22.1775 82.4782 22.4012 82.275 22.6874 82.1319C22.9762 81.9888 23.3046 81.9172 23.6726 81.9172C24.0458 81.9172 24.3755 81.9862 24.6617 82.1243C24.9505 82.2623 25.1741 82.4539 25.3326 82.6993C25.4936 82.9421 25.5741 83.2181 25.5741 83.5273C25.5741 83.742 25.5319 83.949 25.4476 84.1484C25.3658 84.3477 25.2252 84.5688 25.0259 84.8116C24.8265 85.0518 24.5441 85.3445 24.1787 85.6895L23.1896 86.6709V86.7092H25.6584V87.5449H21.8019V86.8242ZM28.5796 87.6216C28.1349 87.6216 27.7528 87.5104 27.4334 87.2881C27.1165 87.0632 26.8724 86.7373 26.7012 86.3105C26.5325 85.8837 26.4481 85.37 26.4481 84.7694C26.4481 84.1714 26.5325 83.659 26.7012 83.2322C26.8724 82.8028 27.1177 82.4769 27.4372 82.2546C27.7567 82.0297 28.1375 81.9172 28.5796 81.9172C29.0192 81.9172 29.3987 82.0297 29.7182 82.2546C30.0402 82.4769 30.2855 82.8028 30.4542 83.2322C30.6255 83.659 30.7111 84.1714 30.7111 84.7694C30.7111 85.37 30.6255 85.8837 30.4542 86.3105C30.2855 86.7373 30.0415 87.0632 29.722 87.2881C29.4051 87.5104 29.0243 87.6216 28.5796 87.6216ZM28.5796 86.7859C28.8147 86.7859 29.0154 86.7105 29.1815 86.5597C29.3501 86.4064 29.4792 86.1802 29.5687 85.8812C29.6607 85.5796 29.7067 85.209 29.7067 84.7694C29.7067 84.3349 29.6607 83.9669 29.5687 83.6654C29.4792 83.3612 29.3501 83.1325 29.1815 82.9791C29.0128 82.8232 28.8122 82.7453 28.5796 82.7453C28.347 82.7453 28.1464 82.8232 27.9777 82.9791C27.8091 83.1325 27.6787 83.3612 27.5867 83.6654C27.4973 83.9669 27.4525 84.3349 27.4525 84.7694C27.4525 85.209 27.4973 85.5796 27.5867 85.8812C27.6787 86.1802 27.8078 86.4064 27.9739 86.5597C28.1426 86.7105 28.3445 86.7859 28.5796 86.7859ZM31.5468 86.8242L33.5096 84.9304C33.7217 84.7183 33.8853 84.5445 34.0003 84.4091C34.1178 84.2711 34.2073 84.1356 34.2686 84.0027C34.33 83.8673 34.3606 83.7241 34.3606 83.5733C34.3606 83.4047 34.3197 83.2564 34.2379 83.1287C34.1562 83.0009 34.0424 82.9025 33.8968 82.8335C33.7536 82.7645 33.5914 82.73 33.4099 82.73C33.2208 82.73 33.0547 82.7683 32.9115 82.845C32.771 82.9191 32.6624 83.0264 32.5857 83.167C32.509 83.305 32.472 83.466 32.4745 83.65H31.5238C31.5212 83.305 31.6005 83.0021 31.7615 82.7415C31.9225 82.4782 32.1461 82.275 32.4323 82.1319C32.7211 81.9888 33.0495 81.9172 33.4176 81.9172C33.7907 81.9172 34.1204 81.9862 34.4066 82.1243C34.6954 82.2623 34.919 82.4539 35.0775 82.6993C35.2385 82.9421 35.319 83.2181 35.319 83.5273C35.319 83.742 35.2768 83.949 35.1925 84.1484C35.1107 84.3477 34.9702 84.5688 34.7708 84.8116C34.5715 85.0518 34.2891 85.3445 33.9236 85.6895L32.9345 86.6709V86.7092H35.4034V87.5449H31.5468V86.8242ZM38.2479 87.6216C37.8824 87.6216 37.5527 87.5539 37.2588 87.4184C36.9649 87.283 36.7323 87.0964 36.5611 86.8587C36.3924 86.6185 36.303 86.3463 36.2927 86.0422H37.2665C37.2767 86.1904 37.3252 86.3233 37.4121 86.4409C37.5016 86.5584 37.6192 86.6504 37.7648 86.7169C37.9131 86.7833 38.0741 86.8165 38.2479 86.8165C38.4523 86.8165 38.6351 86.7705 38.7961 86.6785C38.9596 86.5865 39.0861 86.46 39.1756 86.299C39.2676 86.1354 39.3136 85.9527 39.3136 85.7508C39.3136 85.5412 39.2663 85.3547 39.1717 85.1911C39.0772 85.025 38.9468 84.8959 38.7807 84.8039C38.6146 84.7094 38.4268 84.6621 38.2172 84.6621C37.7776 84.6544 37.4709 84.8129 37.2971 85.1374H36.3694L36.7068 81.9939H39.9883V82.8296H37.5271L37.3585 84.3017H37.4121C37.522 84.1765 37.6728 84.0755 37.8645 83.9989C38.0562 83.9196 38.2632 83.88 38.4855 83.88C38.8255 83.88 39.1321 83.9593 39.4056 84.1177C39.6791 84.2762 39.8925 84.496 40.0458 84.7771C40.2017 85.0557 40.2797 85.37 40.2797 85.7201C40.2797 86.0856 40.1928 86.4127 40.019 86.7015C39.8477 86.9903 39.6075 87.2165 39.2983 87.3801C38.9916 87.5411 38.6414 87.6216 38.2479 87.6216ZM41.5524 87.6063C41.4451 87.6063 41.3454 87.5794 41.2534 87.5258C41.1614 87.4721 41.0885 87.3992 41.0349 87.3072C40.9812 87.2152 40.9544 87.1156 40.9544 87.0082C40.9544 86.9034 40.9812 86.8063 41.0349 86.7169C41.0885 86.6249 41.1614 86.552 41.2534 86.4984C41.3454 86.4447 41.4451 86.4179 41.5524 86.4179C41.6546 86.4179 41.7505 86.4447 41.8399 86.4984C41.9319 86.552 42.0048 86.6249 42.0584 86.7169C42.1147 86.8063 42.1428 86.9034 42.1428 87.0082C42.1428 87.1156 42.1147 87.2152 42.0584 87.3072C42.0048 87.3992 41.9319 87.4721 41.8399 87.5258C41.7505 87.5794 41.6546 87.6063 41.5524 87.6063ZM46.8121 87.6216C46.3674 87.6216 45.9853 87.5104 45.6658 87.2881C45.3489 87.0632 45.1048 86.7373 44.9336 86.3105C44.7649 85.8837 44.6806 85.37 44.6806 84.7694C44.6806 84.1714 44.7649 83.659 44.9336 83.2322C45.1048 82.8028 45.3502 82.4769 45.6696 82.2546C45.9891 82.0297 46.3699 81.9172 46.8121 81.9172C47.2516 81.9172 47.6312 82.0297 47.9506 82.2546C48.2726 82.4769 48.518 82.8028 48.6867 83.2322C48.8579 83.659 48.9435 84.1714 48.9435 84.7694C48.9435 85.37 48.8579 85.8837 48.6867 86.3105C48.518 86.7373 48.2739 87.0632 47.9545 87.2881C47.6375 87.5104 47.2567 87.6216 46.8121 87.6216ZM46.8121 86.7859C47.0472 86.7859 47.2478 86.7105 47.4139 86.5597C47.5826 86.4064 47.7117 86.1802 47.8011 85.8812C47.8931 85.5796 47.9391 85.209 47.9391 84.7694C47.9391 84.3349 47.8931 83.9669 47.8011 83.6654C47.7117 83.3612 47.5826 83.1325 47.4139 82.9791C47.2452 82.8232 47.0446 82.7453 46.8121 82.7453C46.5795 82.7453 46.3789 82.8232 46.2102 82.9791C46.0415 83.1325 45.9112 83.3612 45.8192 83.6654C45.7297 83.9669 45.685 84.3349 45.685 84.7694C45.685 85.209 45.7297 85.5796 45.8192 85.8812C45.9112 86.1802 46.0402 86.4064 46.2063 86.5597C46.375 86.7105 46.5769 86.7859 46.8121 86.7859ZM52.0334 87.5449H51.029V82.9676H50.9983L49.7026 83.7957V82.8833L51.075 81.9939H52.0334V87.5449ZM53.6895 87.6063C53.5821 87.6063 53.4825 87.5794 53.3905 87.5258C53.2984 87.4721 53.2256 87.3992 53.1719 87.3072C53.1183 87.2152 53.0914 87.1156 53.0914 87.0082C53.0914 86.9034 53.1183 86.8063 53.1719 86.7169C53.2256 86.6249 53.2984 86.552 53.3905 86.4984C53.4825 86.4447 53.5821 86.4179 53.6895 86.4179C53.7917 86.4179 53.8875 86.4447 53.977 86.4984C54.069 86.552 54.1418 86.6249 54.1955 86.7169C54.2517 86.8063 54.2798 86.9034 54.2798 87.0082C54.2798 87.1156 54.2517 87.2152 54.1955 87.3072C54.1418 87.3992 54.069 87.4721 53.977 87.5258C53.8875 87.5794 53.7917 87.6063 53.6895 87.6063ZM58.9491 87.6216C58.5044 87.6216 58.1224 87.5104 57.8029 87.2881C57.486 87.0632 57.2419 86.7373 57.0707 86.3105C56.902 85.8837 56.8177 85.37 56.8177 84.7694C56.8177 84.1714 56.902 83.659 57.0707 83.2322C57.2419 82.8028 57.4873 82.4769 57.8067 82.2546C58.1262 82.0297 58.507 81.9172 58.9491 81.9172C59.3887 81.9172 59.7682 82.0297 60.0877 82.2546C60.4097 82.4769 60.6551 82.8028 60.8237 83.2322C60.995 83.659 61.0806 84.1714 61.0806 84.7694C61.0806 85.37 60.995 85.8837 60.8237 86.3105C60.6551 86.7373 60.411 87.0632 60.0915 87.2881C59.7746 87.5104 59.3938 87.6216 58.9491 87.6216ZM58.9491 86.7859C59.1842 86.7859 59.3849 86.7105 59.551 86.5597C59.7197 86.4064 59.8487 86.1802 59.9382 85.8812C60.0302 85.5796 60.0762 85.209 60.0762 84.7694C60.0762 84.3349 60.0302 83.9669 59.9382 83.6654C59.8487 83.3612 59.7197 83.1325 59.551 82.9791C59.3823 82.8232 59.1817 82.7453 58.9491 82.7453C58.7166 82.7453 58.5159 82.8232 58.3473 82.9791C58.1786 83.1325 58.0482 83.3612 57.9562 83.6654C57.8668 83.9669 57.8221 84.3349 57.8221 84.7694C57.8221 85.209 57.8668 85.5796 57.9562 85.8812C58.0482 86.1802 58.1773 86.4064 58.3434 86.5597C58.5121 86.7105 58.714 86.7859 58.9491 86.7859ZM64.1704 87.5449H63.166V82.9676H63.1354L61.8396 83.7957V82.8833L63.212 81.9939H64.1704V87.5449ZM65.8265 87.6063C65.7192 87.6063 65.6195 87.5794 65.5275 87.5258C65.4355 87.4721 65.3627 87.3992 65.309 87.3072C65.2553 87.2152 65.2285 87.1156 65.2285 87.0082C65.2285 86.9034 65.2553 86.8063 65.309 86.7169C65.3627 86.6249 65.4355 86.552 65.5275 86.4984C65.6195 86.4447 65.7192 86.4179 65.8265 86.4179C65.9288 86.4179 66.0246 86.4447 66.1141 86.4984C66.2061 86.552 66.2789 86.6249 66.3326 86.7169C66.3888 86.8063 66.4169 86.9034 66.4169 87.0082C66.4169 87.1156 66.3888 87.2152 66.3326 87.3072C66.2789 87.3992 66.2061 87.4721 66.1141 87.5258C66.0246 87.5794 65.9288 87.6063 65.8265 87.6063Z" fill="black" fill-opacity="0.5"/>
</g>
<defs>
<filter id="filter0_d_334_6725" x="0.405432" y="0.353025" width="164.874" height="125.618" filterUnits="userSpaceOnUse" color-interpolation-filters="sRGB">
<feFlood flood-opacity="0" result="BackgroundImageFix"/>
<feColorMatrix in="SourceAlpha" type="matrix" values="0 0 0 0 0 0 0 0 0 0 0 0 0 0 0 0 0 0 127 0" result="hardAlpha"/>
<feOffset dy="1.30852"/>
<feGaussianBlur stdDeviation="5.2341"/>
<feComposite in2="hardAlpha" operator="out"/>
<feColorMatrix type="matrix" values="0 0 0 0 0 0 0 0 0 0 0 0 0 0 0 0 0 0 0.03 0"/>
<feBlend mode="normal" in2="BackgroundImageFix" result="effect1_dropShadow_334_6725"/>
<feBlend mode="normal" in="SourceGraphic" in2="effect1_dropShadow_334_6725" result="shape"/>
</filter>
</defs>
</svg>
