<svg width="240" height="240" viewBox="0 0 240 240" fill="none" xmlns="http://www.w3.org/2000/svg">
<g clip-path="url(#clip0_1909_4886)">
<rect width="240" height="240" fill="url(#paint0_linear_1909_4886)"/>
<g filter="url(#filter0_d_1909_4886)">
<path d="M132.334 163.774L148.129 74.0939H171.496L159.095 144.585H204L200.606 163.774H132.334Z" fill="white"/>
<path d="M38.4443 163.774L54.3702 74.0936H100.451C106.542 74.0936 111.633 75.1379 115.724 77.2266C119.814 79.3152 122.903 82.2306 124.992 85.9727C127.081 89.7149 128.125 94.0662 128.125 99.0267C128.125 104.161 127.298 108.817 125.645 112.994C123.991 117.172 121.642 120.827 118.596 123.96C115.55 127.006 111.895 129.355 107.63 131.009C103.366 132.662 98.623 133.489 93.4015 133.489H67.2936L61.9414 163.774H38.4443ZM70.5571 115.475H90.0074C92.9663 115.475 95.4901 114.909 97.5787 113.778C99.6674 112.559 101.277 110.906 102.409 108.817C103.54 106.729 104.106 104.292 104.106 101.507C104.106 98.548 103.235 96.2853 101.495 94.7189C99.7544 93.0654 97.1001 92.2386 93.532 92.2386H74.6038L70.5571 115.475Z" fill="white"/>
</g>
</g>
<defs>
<filter id="filter0_d_1909_4886" x="-17.1112" y="18.5381" width="276.667" height="200.792" filterUnits="userSpaceOnUse" color-interpolation-filters="sRGB">
<feFlood flood-opacity="0" result="BackgroundImageFix"/>
<feColorMatrix in="SourceAlpha" type="matrix" values="0 0 0 0 0 0 0 0 0 0 0 0 0 0 0 0 0 0 127 0" result="hardAlpha"/>
<feOffset/>
<feGaussianBlur stdDeviation="27.7778"/>
<feComposite in2="hardAlpha" operator="out"/>
<feColorMatrix type="matrix" values="0 0 0 0 0 0 0 0 0 0.583333 0 0 0 0 1 0 0 0 1 0"/>
<feBlend mode="normal" in2="BackgroundImageFix" result="effect1_dropShadow_1909_4886"/>
<feBlend mode="normal" in="SourceGraphic" in2="effect1_dropShadow_1909_4886" result="shape"/>
</filter>
<linearGradient id="paint0_linear_1909_4886" x1="78.8235" y1="-1.92916e-06" x2="169.556" y2="264.444" gradientUnits="userSpaceOnUse">
<stop stop-color="#6DFFEE"/>
<stop offset="1" stop-color="#A4D2FF"/>
</linearGradient>
<clipPath id="clip0_1909_4886">
<rect width="240" height="240" fill="white"/>
</clipPath>
</defs>
</svg>
